<svg xmlns="http://www.w3.org/2000/svg" xmlns:xlink="http://www.w3.org/1999/xlink" width="119" height="119" viewBox="0 0 119 119">
  <defs>
    <filter id="Trazado_826199" x="0" y="0" width="119" height="119" filterUnits="userSpaceOnUse">
      <feOffset input="SourceAlpha"/>
      <feGaussianBlur stdDeviation="5.5" result="blur"/>
      <feFlood flood-color="#fff" flood-opacity="0.659"/>
      <feComposite operator="in" in2="blur"/>
      <feComposite in="SourceGraphic"/>
    </filter>
  </defs>
  <g id="Grupo_1103429" data-name="Grupo 1103429" transform="translate(-1108.5 -4340.5)">
    <g transform="matrix(1, 0, 0, 1, 1108.5, 4340.5)" filter="url(#Trazado_826199)">
      <path id="Trazado_826199-2" data-name="Trazado 826199" d="M43,0A43,43,0,1,1,0,43,43,43,0,0,1,43,0Z" transform="translate(16.5 16.5)" fill="#4df5df"/>
    </g>
    <g id="social-addict_7038027" transform="translate(1132.771 4370.038)">
      <path id="Trazado_887244" data-name="Trazado 887244" d="M31.763,5.881,32.83,4.814a9.606,9.606,0,0,1,16.4,6.792V28.2a6.792,6.792,0,0,1-6.792,6.792H30.792A6.792,6.792,0,0,1,24,28.2V11.261a5.745,5.745,0,0,1,7.763-5.38Z" transform="translate(-0.534 -0.03)" fill="#c88250"/>
      <path id="Trazado_887245" data-name="Trazado 887245" d="M38.828,4.037a10.015,10.015,0,0,0-6.152,2.991l-.854.854-.064-.023A4.278,4.278,0,0,0,26,11.872V28.258a6.792,6.792,0,0,0,6.792,6.792h9.7a6.792,6.792,0,0,0,6.792-6.792V13.606a9.606,9.606,0,0,0-10.46-9.569Z" transform="translate(-0.593 -0.089)" fill="#b47546"/>
      <path id="Trazado_887246" data-name="Trazado 887246" d="M49.933,36.411,40.288,34H32.525L22.88,36.411A7.763,7.763,0,0,0,17,43.942V50.5a3.881,3.881,0,0,0,3.881,3.881v4.852H51.932V54.377A3.881,3.881,0,0,0,55.813,50.5V43.942a7.763,7.763,0,0,0-5.88-7.531Z" transform="translate(-0.326 -0.979)" fill="#ff6e83"/>
      <path id="Trazado_887247" data-name="Trazado 887247" d="M50.022,36.411,40.377,34H35.525v1.941L25.88,38.352A7.763,7.763,0,0,0,20,45.883v6.554a3.784,3.784,0,0,0,.517,1.9,3.873,3.873,0,0,0,.453.046v4.852H52.021V54.377A3.881,3.881,0,0,0,55.9,50.5V43.942a7.763,7.763,0,0,0-5.88-7.531Z" transform="translate(-0.415 -0.979)" fill="#f05064"/>
      <path id="Trazado_887248" data-name="Trazado 887248" d="M49.2,45a.97.97,0,0,0-.97.97v.97H24.941v-.97a.97.97,0,0,0-1.941,0v1.941a.97.97,0,0,0,.97.97H49.2a.97.97,0,0,0,.97-.97V45.97A.97.97,0,0,0,49.2,45Z" transform="translate(-0.504 -1.305)" fill="#e83f5b"/>
      <path id="Trazado_887249" data-name="Trazado 887249" d="M21,53H52.051v3.881H21Z" transform="translate(-0.445 -1.543)" fill="#e83f5b"/>
      <rect id="Rect치ngulo_404278" data-name="Rect치ngulo 404278" width="14" height="19" rx="2" transform="translate(29.229 41.08)" fill="#566a7e"/>
      <rect id="Rect치ngulo_404279" data-name="Rect치ngulo 404279" width="12" height="17" rx="2" transform="translate(31.229 43.08)" fill="#44586c"/>
      <path id="Trazado_887250" data-name="Trazado 887250" d="M50.881,47v.97a.97.97,0,0,1-.97.97H47v5.822h5.822A3.881,3.881,0,0,0,56.7,50.881V47" transform="translate(-1.216 -1.365)" fill="#f05064"/>
      <path id="Trazado_887251" data-name="Trazado 887251" d="M22.822,47v.97a.97.97,0,0,0,.97.97H26.7v5.822H20.881A3.881,3.881,0,0,1,17,50.881V47" transform="translate(-0.326 -1.365)" fill="#ff6e83"/>
      <path id="Trazado_887252" data-name="Trazado 887252" d="M26.792,54.763V48.941H23.881a.97.97,0,0,1-.97-.97V47H20v5.822a3.784,3.784,0,0,0,.517,1.9,3.873,3.873,0,0,0,.453.046Z" transform="translate(-0.415 -1.365)" fill="#f05064"/>
      <path id="Trazado_887253" data-name="Trazado 887253" d="M27,49h2.911a2.911,2.911,0,0,1,0,5.822H27Z" transform="translate(-0.623 -1.424)" fill="#fad5b2"/>
      <path id="Trazado_887254" data-name="Trazado 887254" d="M0,0H2.911a2.911,2.911,0,0,1,0,5.822H0Z" transform="translate(45.784 53.398) rotate(180)" fill="#fad5b2"/>
      <path id="Trazado_887255" data-name="Trazado 887255" d="M33,29h7.763v5.822a3.881,3.881,0,1,1-7.763,0Z" transform="translate(-0.801 -0.831)" fill="#f6c89a"/>
      <path id="Trazado_887256" data-name="Trazado 887256" d="M28,22.674V15.881a4.971,4.971,0,0,0,4.823-3.766L32.852,12a17.714,17.714,0,0,0,11.062,3.881h1.553v6.792a8.733,8.733,0,1,1-17.466,0Z" transform="translate(-0.653 -0.326)" fill="#ffe0c8"/>
      <path id="Trazado_887257" data-name="Trazado 887257" d="M37.763,31.349a8.733,8.733,0,0,0,7.763-8.676V15.881H43.973A17.712,17.712,0,0,1,32.914,12l-.032.113A4.956,4.956,0,0,1,30,15.47v7.2A8.733,8.733,0,0,0,37.763,31.349Z" transform="translate(-0.712 -0.326)" fill="#fad5b2"/>
      <path id="Trazado_887258" data-name="Trazado 887258" d="M18.733,6.941a.97.97,0,0,0,0-1.941A8.744,8.744,0,0,0,10,13.733a.97.97,0,1,0,1.941,0,6.8,6.8,0,0,1,6.792-6.792Z" transform="translate(-0.119 -0.119)"/>
      <path id="Trazado_887259" data-name="Trazado 887259" d="M18.614,2.941a.97.97,0,1,0,0-1.941A12.629,12.629,0,0,0,6,13.614a.97.97,0,1,0,1.941,0A10.686,10.686,0,0,1,18.614,2.941Z"/>
      <path id="Trazado_887260" data-name="Trazado 887260" d="M18.852,10.941a.97.97,0,1,0,0-1.941A4.857,4.857,0,0,0,14,13.852a.97.97,0,1,0,1.941,0,2.911,2.911,0,0,1,2.911-2.911Z" transform="translate(-0.237 -0.237)"/>
      <path id="Trazado_887261" data-name="Trazado 887261" d="M56.754,42.963a8.72,8.72,0,0,0-6.615-8.472l-2.639-.66a7.7,7.7,0,0,0,2.462-5.662V11.577A10.577,10.577,0,0,0,31.908,4.1l-.65.65a6.716,6.716,0,0,0-8.465,6.484V28.169a7.7,7.7,0,0,0,2.462,5.662l-2.639.66A8.72,8.72,0,0,0,16,42.963v6.554a4.86,4.86,0,0,0,3.881,4.755V58.25a.97.97,0,0,0,.97.97h7.941a2.911,2.911,0,0,0,2.732,1.941h9.7a2.911,2.911,0,0,0,2.732-1.941H51.9a.97.97,0,0,0,.97-.97V54.271a4.86,4.86,0,0,0,3.881-4.755ZM24.733,28.169V11.231a4.775,4.775,0,0,1,6.452-4.47.97.97,0,0,0,1.027-.223L33.279,5.47a8.636,8.636,0,0,1,14.742,6.106V28.169a5.774,5.774,0,0,1-2.967,5.046l-3.825-.952v-1.52a9.664,9.664,0,0,0,4.852-8.4V15.555a.97.97,0,0,0-.97-.97H43.557A16.8,16.8,0,0,1,33.1,10.916a.97.97,0,0,0-1.548.523l-.029.115a4,4,0,0,1-3.878,3.03.97.97,0,0,0-.97.97v6.792a9.7,9.7,0,0,0,4.852,8.392v1.526l-3.826.957a5.773,5.773,0,0,1-2.966-5.053ZM36.377,30.11a7.773,7.773,0,0,1-7.763-7.763v-5.9a5.933,5.933,0,0,0,4.351-3.22,18.763,18.763,0,0,0,10.592,3.3h.582v5.822a7.763,7.763,0,0,1-7.763,7.763ZM39.288,31.6v2.387a2.911,2.911,0,1,1-5.822,0V31.6a9.7,9.7,0,0,0,5.822,0ZM28.614,57.279H21.822V54.368h6.792Zm-.97-4.852V48.546h1.941a1.941,1.941,0,1,1,0,3.881ZM42.2,58.25a.97.97,0,0,1-.97.97h-9.7a.97.97,0,0,1-.97-.97V54.231a3.863,3.863,0,0,0,0-7.487V42.724a.97.97,0,0,1,.97-.97h9.7a.97.97,0,0,1,.97.97v4.019a3.863,3.863,0,0,0,0,7.487Zm.97-5.822a1.941,1.941,0,1,1,0-3.881H45.11v3.881Zm7.763,4.852H44.14V54.368h6.792Zm3.881-14.312v6.55A2.911,2.911,0,0,1,51.9,52.428H47.051V48.546h2.911a.97.97,0,0,0,.97-.97V45.635a.97.97,0,1,0-1.941,0v.97H44.14V42.724a2.911,2.911,0,0,0-2.911-2.911h-9.7a2.911,2.911,0,0,0-2.911,2.911v3.881H23.763v-.97a.97.97,0,0,0-1.941,0v1.941a.97.97,0,0,0,.97.97H25.7v3.881H20.852a2.911,2.911,0,0,1-2.911-2.911V42.963a6.783,6.783,0,0,1,5.143-6.59l8.467-2.116a4.83,4.83,0,0,0,9.649,0l8.471,2.116a6.783,6.783,0,0,1,5.143,6.59Z" transform="translate(-0.297 0)"/>
    </g>
  </g>
</svg>
