<svg xmlns="http://www.w3.org/2000/svg" xmlns:xlink="http://www.w3.org/1999/xlink" width="119" height="119" viewBox="0 0 119 119">
  <defs>
    <filter id="Trazado_826199" x="0" y="0" width="119" height="119" filterUnits="userSpaceOnUse">
      <feOffset input="SourceAlpha"/>
      <feGaussianBlur stdDeviation="5.5" result="blur"/>
      <feFlood flood-color="#fff" flood-opacity="0.659"/>
      <feComposite operator="in" in2="blur"/>
      <feComposite in="SourceGraphic"/>
    </filter>
  </defs>
  <g id="Grupo_1103827" data-name="Grupo 1103827" transform="translate(6644.5 10303.5)">
    <g id="Grupo_1102848" data-name="Grupo 1102848" transform="translate(-7753 -14644)">
      <g transform="matrix(1, 0, 0, 1, 1108.5, 4340.5)" filter="url(#Trazado_826199)">
        <path id="Trazado_826199-2" data-name="Trazado 826199" d="M43,0A43,43,0,1,1,0,43,43,43,0,0,1,43,0Z" transform="translate(16.5 16.5)" fill="#4df5df"/>
      </g>
    </g>
    <g id="Layer_x0020_1" transform="translate(-6616.005 -10429.432)">
      <path id="Trazado_886934" data-name="Trazado 886934" d="M40.144,169.331H20.278a.769.769,0,0,1,0-1.537H40.144A.769.769,0,0,1,40.144,169.331Zm-9.927,41.987H2.782A.773.773,0,0,1,2,210.55v-9.367a6.947,6.947,0,0,1,6.761-6.761h4.065V193.6a7.844,7.844,0,0,1-4.182-6.931v-8.663a1.571,1.571,0,0,1,1.563-1.576h2.97a2.662,2.662,0,0,1,1.863.769,2.662,2.662,0,0,1,1.863-.769h5.862a1.6,1.6,0,0,1,1.589,1.589v8.65a7.894,7.894,0,0,1-4.182,6.931v.821h4.052a6.765,6.765,0,0,1,6.019,3.687,6.926,6.926,0,0,1,5.954-3.687h4.065V193.6a7.844,7.844,0,0,1-4.182-6.931v-8.663a1.573,1.573,0,0,1,1.576-1.576h2.957a2.662,2.662,0,0,1,1.863.769,2.662,2.662,0,0,1,1.863-.769H50.2a1.6,1.6,0,0,1,1.589,1.589v8.65a7.894,7.894,0,0,1-4.182,6.931v.821h4.052a6.772,6.772,0,0,1,6.761,6.761v9.367a.762.762,0,0,1-.769.769Zm-13.679-12.1a2.133,2.133,0,0,0,2.084-2.123v-2.866a8.148,8.148,0,0,1-4.26,0v2.866A2.135,2.135,0,0,0,16.539,199.216ZM3.55,209.781H8.826v-2.827a.769.769,0,0,1,1.537,0v2.827H22.622v-2.827a.769.769,0,0,1,1.537,0v2.827h5.276v-8.6a5.218,5.218,0,0,0-5.211-5.211H20.173v1.12a3.674,3.674,0,1,1-7.347,0v-1.12H8.774A5.428,5.428,0,0,0,3.55,201.2Zm10.331-17.366A6.311,6.311,0,0,0,22.8,186.67v-4.95H10.181v4.95A6.332,6.332,0,0,0,13.881,192.415Zm1.941-13.431v1.186H22.8a19.664,19.664,0,0,0-.039-2.2H16.9A1.093,1.093,0,0,0,15.822,178.984Zm-5.628,1.186h4.078c0-.847.182-2.2-1.107-2.2H10.207Zm3.96,4.494c-.99,0-2.4.261-2.4-.769s1.407-.782,2.4-.782A.775.775,0,0,1,14.155,184.664Zm-.821,2.775c-.873,0-.769-.977-.769-1.589a.776.776,0,0,1,1.55,0C14.116,186.462,14.22,187.439,13.334,187.439Zm7.126-2.775c-.99,0-2.4.261-2.4-.769s1.407-.782,2.4-.782A.775.775,0,0,1,20.46,184.664Zm-.808,2.775c-.886,0-.782-.977-.782-1.589a.776.776,0,0,1,1.55,0C20.421,186.462,20.525,187.439,19.652,187.439ZM16.9,188.768c-.612,0-1.589.117-1.589-.769s.977-.769,1.589-.769A.769.769,0,0,1,16.9,188.768Zm-.4,2.8c-1.12,0-2.853-1.133-1.863-1.98a.776.776,0,0,1,1.081.078,1.049,1.049,0,0,0,1.55,0,.776.776,0,0,1,1.172,1.016A2.593,2.593,0,0,1,16.5,191.569Zm14.487,18.212h5.276v-2.827a.775.775,0,0,1,1.55,0v2.827H50.058v-2.827a.769.769,0,0,1,1.537,0v2.827h5.289V201.2a5.232,5.232,0,0,0-5.224-5.224H47.609v1.12a3.674,3.674,0,1,1-7.347,0v-1.12H36.21A5.416,5.416,0,0,0,31,201.2v8.585Zm10.331-17.366a6.311,6.311,0,0,0,8.924-5.745v-4.95H37.617v4.95A6.332,6.332,0,0,0,41.317,192.415Zm.482,1.811v2.866a2.13,2.13,0,0,0,4.26,0v-2.866A8.014,8.014,0,0,1,41.8,194.226Zm1.459-15.164v1.107h6.983a19.663,19.663,0,0,0-.039-2.2H44.339A1.09,1.09,0,0,0,43.258,179.062ZM37.63,180.17h4.078c0-.847.182-2.2-1.094-2.2h-2.97Zm3.96,4.494c-.99,0-2.4.261-2.4-.769s1.407-.782,2.4-.782A.775.775,0,0,1,41.59,184.664Zm-.808,2.775c-.886,0-.782-.977-.782-1.589a.776.776,0,0,1,1.55,0C41.551,186.462,41.656,187.439,40.783,187.439Zm7.126-2.775c-.99,0-2.41.261-2.41-.769s1.42-.782,2.41-.782A.776.776,0,0,1,47.909,184.664Zm-.821,2.775c-.886,0-.769-.977-.769-1.589a.769.769,0,0,1,1.537,0C47.857,186.462,47.974,187.439,47.088,187.439Zm-2.749,1.329c-.612,0-1.589.117-1.589-.769s.977-.769,1.589-.769A.769.769,0,0,1,44.339,188.768Zm-.4,2.8c-1.107,0-2.853-1.12-1.863-1.98a.776.776,0,0,1,1.081.078,1.049,1.049,0,0,0,1.55,0,.776.776,0,0,1,1.172,1.016A2.593,2.593,0,0,1,43.935,191.569Zm-1.485-17.7H34.712L31.677,176.9a2.1,2.1,0,0,1-2.931,0l-3.035-3.035H17.985a4.036,4.036,0,0,1-4.025-4.025v-6.8A4.031,4.031,0,0,1,17.985,159H42.45a4.039,4.039,0,0,1,4.025,4.039v6.8A4.036,4.036,0,0,1,42.45,173.864ZM17.985,160.55a2.5,2.5,0,0,0-2.488,2.488v6.8a2.5,2.5,0,0,0,2.488,2.488H42.45a2.485,2.485,0,0,0,2.475-2.488v-6.8a2.485,2.485,0,0,0-2.475-2.488Zm9.9,13.314,1.954,1.954a.56.56,0,0,0,.756,0l1.941-1.954Zm12.259-8.781H20.278a.769.769,0,0,1,0-1.537H40.144A.769.769,0,0,1,40.144,165.084Z" transform="translate(0)" fill="#333" fill-rule="evenodd"/>
      <path id="Trazado_886935" data-name="Trazado 886935" d="M1062.648,286.781h-19.867a.769.769,0,0,1,0-1.537h19.867A.769.769,0,0,1,1062.648,286.781Zm-22.16,3h24.465a2.485,2.485,0,0,0,2.475-2.488v-6.8a2.485,2.485,0,0,0-2.475-2.488h-24.465a2.5,2.5,0,0,0-2.488,2.488v6.8A2.5,2.5,0,0,0,1040.488,289.777Zm22.16-7.243h-19.867a.769.769,0,0,1,0-1.537h19.867A.769.769,0,0,1,1062.648,282.534Z" transform="translate(-1022.504 -117.45)" fill="#ffe4af" fill-rule="evenodd"/>
      <path id="Trazado_886936" data-name="Trazado 886936" d="M1993.651,1300H1989l1.954,1.954a.56.56,0,0,0,.756,0Z" transform="translate(-1961.114 -1126.136)" fill="#ffe4af" fill-rule="evenodd"/>
      <path id="Trazado_886937" data-name="Trazado 886937" d="M2739.983,1615h-2.97l-.013,2.2h4.078C2741.077,1616.355,2741.26,1615,2739.983,1615Z" transform="translate(-2699.369 -1437.032)" fill="#c06000" fill-rule="evenodd"/>
      <path id="Trazado_886938" data-name="Trazado 886938" d="M3170.081,1615a1.09,1.09,0,0,0-1.081,1.094v1.107h6.983a19.617,19.617,0,0,0-.039-2.2Z" transform="translate(-3125.742 -1437.032)" fill="#c06000" fill-rule="evenodd"/>
      <path id="Trazado_886939" data-name="Trazado 886939" d="M2748.623,1903H2736v4.95a6.312,6.312,0,0,0,12.624,0Zm-8.65,1.394a.775.775,0,0,1,0,1.55c-.99,0-2.4.26-2.4-.769S2738.983,1904.394,2739.973,1904.394Zm6.319,1.55c-.99,0-2.41.26-2.41-.769s1.42-.781,2.41-.781A.776.776,0,0,1,2746.292,1905.944Zm-7.908,1.185a.776.776,0,0,1,1.55,0c0,.612.1,1.589-.768,1.589S2738.384,1907.742,2738.384,1907.13Zm7.087,1.589c-.886,0-.769-.977-.769-1.589a.769.769,0,0,1,1.537,0C2746.24,1907.742,2746.356,1908.719,2745.471,1908.719Zm-4.338.56c0-.886.977-.769,1.59-.769a.769.769,0,0,1,0,1.537C2742.11,1910.048,2741.133,1910.165,2741.133,1909.279Zm-.677,1.589a.776.776,0,0,1,1.081.078,1.049,1.049,0,0,0,1.55,0,.776.776,0,0,1,1.173,1.016,2.593,2.593,0,0,1-1.941.886C2741.211,1912.849,2739.465,1911.728,2740.455,1910.868Z" transform="translate(-2698.383 -1721.28)" fill="#ff9e5c" fill-rule="evenodd"/>
      <path id="Trazado_886940" data-name="Trazado 886940" d="M1069.983,1617.2a19.707,19.707,0,0,0-.039-2.2h-5.862a1.093,1.093,0,0,0-1.081,1.016v1.186Z" transform="translate(-1047.178 -1437.032)" fill="#c06000" fill-rule="evenodd"/>
      <path id="Trazado_886941" data-name="Trazado 886941" d="M635.078,1617.2c0-.847.182-2.2-1.107-2.2h-2.957l-.013,2.2Z" transform="translate(-620.806 -1437.032)" fill="#c06000" fill-rule="evenodd"/>
      <path id="Trazado_886942" data-name="Trazado 886942" d="M642.624,1903H630v4.95a6.312,6.312,0,0,0,12.624,0Zm-8.65,1.394a.775.775,0,0,1,0,1.55c-.99,0-2.4.26-2.4-.769S632.983,1904.394,633.973,1904.394Zm6.305,1.55c-.99,0-2.4.26-2.4-.769s1.407-.781,2.4-.781A.775.775,0,0,1,640.279,1905.944Zm-6.344,1.185c0,.612.1,1.589-.782,1.589s-.769-.977-.769-1.589A.776.776,0,0,1,633.934,1907.13Zm5.537,1.589c-.886,0-.782-.977-.782-1.589a.776.776,0,0,1,1.55,0C640.24,1907.742,640.344,1908.719,639.471,1908.719Zm-4.338.56c0-.886.977-.769,1.589-.769a.769.769,0,0,1,0,1.537C636.11,1910.048,635.133,1910.165,635.133,1909.279Zm-.677,1.589a.776.776,0,0,1,1.081.078,1.049,1.049,0,0,0,1.55,0,.776.776,0,0,1,1.172,1.016,2.593,2.593,0,0,1-1.941.886C635.2,1912.849,633.465,1911.715,634.455,1910.868Z" transform="translate(-619.819 -1721.28)" fill="#ff9e5c" fill-rule="evenodd"/>
      <path id="Trazado_886943" data-name="Trazado 886943" d="M141.675,2997h-4.052v1.12a3.674,3.674,0,1,1-7.347,0V2997h-4.052a5.428,5.428,0,0,0-5.224,5.224v8.585h5.276v-2.827a.769.769,0,0,1,1.537,0v2.827h12.259v-2.827a.769.769,0,0,1,1.537,0v2.827h5.276v-8.6A5.218,5.218,0,0,0,141.675,2997Z" transform="translate(-117.45 -2801.028)" fill="#1aa1ff" fill-rule="evenodd"/>
      <path id="Trazado_886944" data-name="Trazado 886944" d="M955.26,2865.866V2863a8.144,8.144,0,0,1-4.26,0v2.866a2.13,2.13,0,0,0,4.26,0Z" transform="translate(-936.637 -2668.773)" fill="#ff9e5c" fill-rule="evenodd"/>
      <path id="Trazado_886945" data-name="Trazado 886945" d="M3057,2863v2.866a2.13,2.13,0,0,0,4.26,0V2863A8.012,8.012,0,0,1,3057,2863Z" transform="translate(-3015.201 -2668.773)" fill="#ff9e5c" fill-rule="evenodd"/>
      <path id="Trazado_886946" data-name="Trazado 886946" d="M2240.845,3001.794a3.685,3.685,0,0,1-3.583-3.674V2997h-4.052a5.416,5.416,0,0,0-5.211,5.224v8.585h5.263v-2.827a.776.776,0,0,1,1.551,0v2.827h12.246v-2.827a.769.769,0,0,1,1.537,0v2.827h5.289v-8.585a5.232,5.232,0,0,0-5.224-5.224h-4.052v1.12A3.689,3.689,0,0,1,2240.845,3001.794Z" transform="translate(-2197.001 -2801.028)" fill="#1aa1ff" fill-rule="evenodd"/>
    </g>
  </g>
</svg>
