<svg xmlns="http://www.w3.org/2000/svg" xmlns:xlink="http://www.w3.org/1999/xlink" width="119" height="119" viewBox="0 0 119 119">
  <defs>
    <filter id="Trazado_826199" x="0" y="0" width="119" height="119" filterUnits="userSpaceOnUse">
      <feOffset input="SourceAlpha"/>
      <feGaussianBlur stdDeviation="5.5" result="blur"/>
      <feFlood flood-color="#fff" flood-opacity="0.659"/>
      <feComposite operator="in" in2="blur"/>
      <feComposite in="SourceGraphic"/>
    </filter>
  </defs>
  <g id="Grupo_1103835" data-name="Grupo 1103835" transform="translate(6014.5 10303.5)">
    <g id="Grupo_1103433" data-name="Grupo 1103433" transform="translate(-7123 -14644)">
      <g transform="matrix(1, 0, 0, 1, 1108.5, 4340.5)" filter="url(#Trazado_826199)">
        <path id="Trazado_826199-2" data-name="Trazado 826199" d="M43,0A43,43,0,1,1,0,43,43,43,0,0,1,43,0Z" transform="translate(16.5 16.5)" fill="#4df5df"/>
      </g>
    </g>
    <g id="share_2913282" transform="translate(-6057.586 -10273.066)">
      <path id="Trazado_886947" data-name="Trazado 886947" d="M121.531,63.929H93.272A2.271,2.271,0,0,1,91,61.658V9.771A2.271,2.271,0,0,1,93.272,7.5h28.259A2.271,2.271,0,0,1,123.8,9.771V61.658A2.271,2.271,0,0,1,121.531,63.929Z" transform="translate(-6.648 -6.648)" fill="#756f6f"/>
      <path id="Trazado_886948" data-name="Trazado 886948" d="M329.385,7.5h-3.908a2.27,2.27,0,0,1,2.271,2.271V58.189H327q-.007.118-.007.235a4.648,4.648,0,0,0,.479,2.062,2.6,2.6,0,0,1,.28,1.149v.023a2.27,2.27,0,0,1-2.271,2.271h3.908a2.271,2.271,0,0,0,2.271-2.271V9.771A2.271,2.271,0,0,0,329.385,7.5Z" transform="translate(-214.502 -6.648)" fill="#5b5555"/>
      <path id="Trazado_886949" data-name="Trazado 886949" d="M91,58.05h32.8V103H91Z" transform="translate(-6.645 -51.459)" fill="#faf7f7"/>
      <path id="Trazado_886950" data-name="Trazado 886950" d="M169.425,58.05V79a4.646,4.646,0,0,0-.76,2.552,4.7,4.7,0,0,0,.179,1.284l-13.373,6.65a.884.884,0,0,0-.182.124,4.668,4.668,0,1,0-.49,6.124,1.032,1.032,0,0,1,1.179-.174l12.611,6.265a.853.853,0,0,0,.267.082,4.678,4.678,0,0,0-.185,1.091h4.661V58.05Zm-13.4,35.632a4.661,4.661,0,0,0-.006-2.6.835.835,0,0,0,.208-.072l11.688-5.792a1.043,1.043,0,0,1,1.507.935v14.192a.83.83,0,0,0-.076-.046Z" transform="translate(-56.18 -51.459)" fill="#f3eae6"/>
      <g id="Grupo_1103828" data-name="Grupo 1103828" transform="translate(92.123 12.921)">
        <path id="Trazado_886951" data-name="Trazado 886951" d="M175.22,122.435a5.058,5.058,0,0,0-7.153-7.153,5.058,5.058,0,0,0-7.153,7.153l6.467,6.467a.971.971,0,0,0,1.373,0Z" transform="translate(-159.436 -113.804)" fill="#fb4a59"/>
        <path id="Trazado_886952" data-name="Trazado 886952" d="M227.218,122.43l-6.467,6.467a.971.971,0,0,1-1.374,0l-1.283-1.283,6.172-6.172a5.068,5.068,0,0,0-.577-7.642,5.059,5.059,0,0,1,3.529,8.631Z" transform="translate(-211.434 -113.799)" fill="#f82f40"/>
      </g>
      <g id="Grupo_1103833" data-name="Grupo 1103833" transform="translate(90.697 23.157)">
        <g id="Grupo_1103829" data-name="Grupo 1103829" transform="translate(0 10.841)">
          <circle id="Elipse_11785" data-name="Elipse 11785" cx="4.667" cy="4.667" r="4.667" fill="#31a7fb"/>
          <path id="Trazado_886953" data-name="Trazado 886953" d="M183.549,304.109a4.672,4.672,0,0,1-5.832,4.521,4.67,4.67,0,0,0,0-9.041,4.672,4.672,0,0,1,5.832,4.52Z" transform="translate(-174.215 -299.443)" fill="#1c96f9"/>
          <path id="Trazado_886954" data-name="Trazado 886954" d="M188.575,306.074A4.664,4.664,0,0,1,186,310.247l-.608-3.418a.914.914,0,0,0-.9-.754.914.914,0,0,1-.83-.531l-.192-.416a.914.914,0,0,1,.093-.924l1.866-2.545A4.672,4.672,0,0,1,188.575,306.074Z" transform="translate(-179.24 -301.407)" fill="#27e19d"/>
          <path id="Trazado_886955" data-name="Trazado 886955" d="M198.983,306.077a4.662,4.662,0,0,1-2.575,4.173l-.341-1.914a4.665,4.665,0,0,0-.94-5.705l.71-.967A4.67,4.67,0,0,1,198.983,306.077Z" transform="translate(-189.649 -301.41)" fill="#26d192"/>
        </g>
        <g id="Grupo_1103832" data-name="Grupo 1103832" transform="translate(21.789)">
          <g id="Grupo_1103830" data-name="Grupo 1103830">
            <circle id="Elipse_11786" data-name="Elipse 11786" cx="4.667" cy="4.667" r="4.667" transform="translate(0 0)" fill="#31a7fb"/>
            <path id="Trazado_886956" data-name="Trazado 886956" d="M375.451,208.629a4.673,4.673,0,0,1-5.834,4.521,4.669,4.669,0,0,0,0-9.041,4.673,4.673,0,0,1,5.834,4.52Z" transform="translate(-366.116 -203.962)" fill="#1c96f9"/>
            <path id="Trazado_886957" data-name="Trazado 886957" d="M348.565,205.64l-.979,3.173a.735.735,0,0,1-.417.461l-.51.215a.735.735,0,0,1-1.016-.587.735.735,0,0,0-.243-.461l-.624-.551a.735.735,0,0,0-.723-.145l-1.411.48a.735.735,0,0,1-.6-.058l-1.533-.879a4.666,4.666,0,0,1,8.058-1.648Z" transform="translate(-340.311 -203.958)" fill="#27e19d"/>
            <path id="Trazado_886958" data-name="Trazado 886958" d="M374.379,205.645l-.979,3.172a.732.732,0,0,1-.311.405,4.672,4.672,0,0,0-3.462-5.113,4.674,4.674,0,0,1,4.752,1.535Z" transform="translate(-366.125 -203.962)" fill="#26d192"/>
          </g>
          <g id="Grupo_1103831" data-name="Grupo 1103831" transform="translate(0 21.681)">
            <circle id="Elipse_11787" data-name="Elipse 11787" cx="4.667" cy="4.667" r="4.667" transform="translate(0 0)" fill="#31a7fb"/>
            <path id="Trazado_886959" data-name="Trazado 886959" d="M375.451,399.581a4.673,4.673,0,0,1-5.834,4.521,4.67,4.67,0,0,0,0-9.042,4.673,4.673,0,0,1,5.834,4.521Z" transform="translate(-366.116 -394.913)" fill="#1c96f9"/>
            <path id="Trazado_886960" data-name="Trazado 886960" d="M359.614,396.223l-1.283,4.072a.967.967,0,0,1-1.869-.089l-.24-1.113a.967.967,0,0,0-.946-.765h-.011a.965.965,0,0,1-.837-.481l-1.062-1.825a4.666,4.666,0,0,1,6.247.2Z" transform="translate(-351.711 -394.919)" fill="#27e19d"/>
            <path id="Trazado_886961" data-name="Trazado 886961" d="M374.037,396.226l-.922,2.926a4.672,4.672,0,0,0-3.478-4.083,4.675,4.675,0,0,1,4.4,1.157Z" transform="translate(-366.134 -394.922)" fill="#26d192"/>
          </g>
        </g>
      </g>
      <g id="Grupo_1103834" data-name="Grupo 1103834" transform="translate(83.501 0)">
        <path id="Trazado_886962" data-name="Trazado 886962" d="M219.966,28.238a.852.852,0,1,0,0-1.7h-2.595a.852.852,0,0,0,0,1.7Z" transform="translate(-201.417 -23.522)"/>
        <path id="Trazado_886963" data-name="Trazado 886963" d="M219.966,470.46h-2.595a.852.852,0,0,0,0,1.7h2.595a.852.852,0,1,0,0-1.7Z" transform="translate(-201.417 -417.045)"/>
        <path id="Trazado_886964" data-name="Trazado 886964" d="M272.623,28.239h0a.852.852,0,0,0,0-1.7h-.016a.852.852,0,0,0,0,1.7Z" transform="translate(-250.389 -23.523)"/>
        <path id="Trazado_886965" data-name="Trazado 886965" d="M295.523,28.239h0a.852.852,0,0,0,0-1.7h-.016a.852.852,0,0,0,0,1.7Z" transform="translate(-270.689 -23.523)"/>
        <path id="Trazado_886966" data-name="Trazado 886966" d="M161.445,107.533a5.91,5.91,0,0,0-7.755,8.882l6.467,6.467a1.824,1.824,0,0,0,2.577,0l6.467-6.467h0a5.91,5.91,0,0,0-7.756-8.882Zm6.55,7.679-6.466,6.466a.119.119,0,0,1-.168,0l-6.466-6.466a4.207,4.207,0,0,1,5.949-5.949.851.851,0,0,0,1.2,0,4.206,4.206,0,0,1,5.949,5.949Z" transform="translate(-144.193 -94.262)"/>
        <path id="Trazado_886967" data-name="Trazado 886967" d="M118,44.053V33.278a5.519,5.519,0,0,0,0-10.906V19.38a.852.852,0,1,0-1.7,0v2.992a5.519,5.519,0,0,0-4.41,7.119L99.863,35.475a5.516,5.516,0,0,0-9.472.793.852.852,0,0,0,1.534.74,3.84,3.84,0,0,1,3.439-2.16h.025l-1.056,1.441a1.766,1.766,0,0,0-.179,1.784l.192.416a1.771,1.771,0,0,0,1.6,1.026.063.063,0,0,1,.062.052l.487,2.74a3.818,3.818,0,0,1-4.561-1.966.852.852,0,0,0-1.529.75,5.515,5.515,0,0,0,9.456.762l12.029,5.984a5.5,5.5,0,0,0-.129,2.85H85.2V7.442h31.1V15.3a.852.852,0,0,0,1.7,0V3.122A3.126,3.126,0,0,0,114.882,0H96.923a.852.852,0,0,0,0,1.7h17.959A1.421,1.421,0,0,1,116.3,3.122V5.739H85.2V3.122A1.421,1.421,0,0,1,86.623,1.7h6.221a.852.852,0,0,0,0-1.7H86.623A3.126,3.126,0,0,0,83.5,3.122V55.009a3.126,3.126,0,0,0,3.122,3.122h28.259A3.126,3.126,0,0,0,118,55.009c0-.017,0-.034,0-.051a5.519,5.519,0,0,0,0-10.906Zm-.852,1.637a3.8,3.8,0,0,1,2.252.738l-1.112,3.529a.116.116,0,0,1-.043.06.12.12,0,0,1-.181-.071l-.239-1.111a1.828,1.828,0,0,0-1.778-1.439h-.011a.116.116,0,0,1-.1-.058l-.669-1.149a3.791,3.791,0,0,1,1.883-.5Zm0-14.05a3.82,3.82,0,0,1-3.815-3.795l.453.26a1.586,1.586,0,0,0,1.3.126l1.347-.458.541.478a1.584,1.584,0,0,0,2.186,1.222l.51-.215a1.583,1.583,0,0,0,.9-.994l.337-1.093a3.811,3.811,0,0,1-3.758,4.471Zm0-7.632a3.8,3.8,0,0,1,2.626,1.052l-.817,2.648-.325.137a1.585,1.585,0,0,0-.5-.844l-.624-.551a1.59,1.59,0,0,0-1.561-.313l-1.361.463-.849-.487A3.82,3.82,0,0,1,117.153,24.009ZM97.687,39.271a1.764,1.764,0,0,0-1.739-1.457.063.063,0,0,1-.057-.036l-.192-.416a.063.063,0,0,1,.006-.063L97.168,35.3a3.812,3.812,0,0,1,.891,6.06Zm2.938,1.061a5.516,5.516,0,0,0,0-3.333l12.029-5.984a5.525,5.525,0,0,0,3.648,2.263V44.053a5.525,5.525,0,0,0-3.648,2.263Zm14.257,16.1H86.623A1.421,1.421,0,0,1,85.2,55.009V52.393h27.248a5.53,5.53,0,0,0,3.852,2.566c0,.017,0,.033,0,.051A1.421,1.421,0,0,1,114.882,56.429Zm2.271-3.107a3.814,3.814,0,0,1-3.163-5.947l.476.818a1.823,1.823,0,0,0,1.574.907h.011a.117.117,0,0,1,.113.093L116.4,50.3a1.828,1.828,0,0,0,1.779,1.439,1.82,1.82,0,0,0,1.735-1.272l.762-2.419a3.815,3.815,0,0,1-3.527,5.271Z" transform="translate(-83.501 0)"/>
      </g>
    </g>
  </g>
</svg>
