<svg xmlns="http://www.w3.org/2000/svg" width="76.414" height="76.414" viewBox="0 0 76.414 76.414">
  <g id="Grupo_1103922" data-name="Grupo 1103922" transform="translate(-604 -2043.293)">
    <g id="Grupo_1101760" data-name="Grupo 1101760" transform="translate(315 -884)">
      <g id="Grupo_1101752" data-name="Grupo 1101752">
        <path id="Trazado_878240" data-name="Trazado 878240" d="M38.207,0A38.207,38.207,0,1,1,0,38.207,38.207,38.207,0,0,1,38.207,0Z" transform="translate(289 2927.293)" fill="#f0c52c"/>
      </g>
    </g>
    <g id="email_10614170" transform="translate(612.394 2055.514)">
      <g id="Grupo_1103843" data-name="Grupo 1103843" transform="translate(4.303 0.79)">
        <path id="Trazado_886998" data-name="Trazado 886998" d="M132.083,9.191V58.164a1.687,1.687,0,0,1-1.687,1.687H103.282a1.686,1.686,0,0,1-1.687-1.687V9.191A1.686,1.686,0,0,1,103.282,7.5H130.4A1.686,1.686,0,0,1,132.083,9.191Z" transform="translate(-92.054 -7.504)" fill="#dcf5f8"/>
        <path id="Trazado_886999" data-name="Trazado 886999" d="M344.614,7.5h-3.583a1.687,1.687,0,0,1,1.687,1.687V58.163a1.687,1.687,0,0,1-1.687,1.687h3.583a1.687,1.687,0,0,0,1.687-1.687V9.19A1.687,1.687,0,0,0,344.614,7.5Z" transform="translate(-306.271 -7.503)" fill="#c8effe"/>
        <path id="Trazado_887000" data-name="Trazado 887000" d="M185.065,7.5V9.449a1.209,1.209,0,0,0,1.209,1.209h10.487a1.209,1.209,0,0,0,1.209-1.209V7.5Z" transform="translate(-166.733 -7.5)" fill="#9facba"/>
        <path id="Trazado_887001" data-name="Trazado 887001" d="M132.083,436.16v5.511a1.687,1.687,0,0,1-1.687,1.687H103.282a1.686,1.686,0,0,1-1.687-1.687V436.16Z" transform="translate(-92.054 -391.011)" fill="#8d9ca8"/>
        <path id="Trazado_887002" data-name="Trazado 887002" d="M342.717,436.16v5.511a1.687,1.687,0,0,1-1.687,1.687h3.583a1.687,1.687,0,0,0,1.687-1.687V436.16Z" transform="translate(-306.271 -391.011)" fill="#7a8c98"/>
        <g id="Grupo_1103838" data-name="Grupo 1103838" transform="translate(22.728 18.07)">
          <path id="Trazado_887003" data-name="Trazado 887003" d="M254.333,198.482H228.141a1.344,1.344,0,0,1-1.344-1.344V180.4a1.344,1.344,0,0,1,1.344-1.344h26.192a1.344,1.344,0,0,1,1.344,1.344v16.736A1.344,1.344,0,0,1,254.333,198.482Z" transform="translate(-226.797 -179.059)" fill="#fee97d"/>
        </g>
        <path id="Trazado_887004" data-name="Trazado 887004" d="M457.8,179.059h-3.583a1.344,1.344,0,0,1,1.344,1.344v16.736a1.344,1.344,0,0,1-1.344,1.344H457.8a1.344,1.344,0,0,0,1.344-1.344V180.4A1.344,1.344,0,0,0,457.8,179.059Z" transform="translate(-407.535 -160.989)" fill="#fcdb54"/>
        <g id="Grupo_1103839" data-name="Grupo 1103839" transform="translate(13.268 20.519)">
          <path id="Trazado_887005" data-name="Trazado 887005" d="M142.134,205.155h-3.728a1.422,1.422,0,0,1,0-2.844h3.728a1.422,1.422,0,0,1,0,2.844Z" transform="translate(-136.985 -202.311)" fill="#05e39c"/>
        </g>
        <g id="Grupo_1103840" data-name="Grupo 1103840" transform="translate(0 26.223)">
          <path id="Trazado_887006" data-name="Trazado 887006" d="M16.243,259.318H12.435a1.422,1.422,0,0,1,0-2.844h3.808a1.422,1.422,0,0,1,0,2.844Z" transform="translate(-11.013 -256.474)" fill="#05e39c"/>
        </g>
        <g id="Grupo_1103841" data-name="Grupo 1103841" transform="translate(9.541 26.223)">
          <path id="Trazado_887007" data-name="Trazado 887007" d="M110.472,259.318h-7.455a1.422,1.422,0,1,1,0-2.844h7.455a1.422,1.422,0,0,1,0,2.844Z" transform="translate(-101.595 -256.474)" fill="#00f2a6"/>
        </g>
        <g id="Grupo_1103842" data-name="Grupo 1103842" transform="translate(3.326 31.928)">
          <path id="Trazado_887008" data-name="Trazado 887008" d="M57.683,313.481H44.014a1.422,1.422,0,0,1,0-2.844H57.683a1.422,1.422,0,0,1,0,2.844Z" transform="translate(-42.592 -310.637)" fill="#00f2a6"/>
        </g>
      </g>
      <g id="Grupo_1103844" data-name="Grupo 1103844" transform="translate(3.513 0)">
        <path id="Trazado_887009" data-name="Trazado 887009" d="M226.142,464.41h2.838a.79.79,0,1,0,0-1.58h-2.838a.79.79,0,1,0,0,1.58Z" transform="translate(-201.987 -414.082)"/>
        <path id="Trazado_887010" data-name="Trazado 887010" d="M84.954,36.709V20.2A2.136,2.136,0,0,0,82.82,18.07H78a7.581,7.581,0,0,0-4.629-7.157V2.477A2.48,2.48,0,0,0,70.9,0H43.784a2.48,2.48,0,0,0-2.477,2.477V31.928h-4a2.212,2.212,0,1,0,0,4.424h4v15.1a2.479,2.479,0,0,0,2.477,2.476H70.9a2.479,2.479,0,0,0,2.476-2.476V41.972a.79.79,0,0,0-1.58,0v3.177H42.887V35.562h0a.79.79,0,0,0-.79-.79H37.3a.632.632,0,0,1,0-1.264H50.974a.632.632,0,1,1,0,1.264h-5.19a.79.79,0,1,0,0,1.58h5.19a2.212,2.212,0,1,0,0-4.424H42.887V30.554a2.2,2.2,0,0,0,.632.093h7.455a2.212,2.212,0,0,0,0-4.424H43.519a2.2,2.2,0,0,0-.632.093V2.477a.9.9,0,0,1,.9-.9H50.1V2.739a2,2,0,0,0,2,2H62.585a2,2,0,0,0,2-2V1.58H70.9a.9.9,0,0,1,.9.9V10.4a7.98,7.98,0,0,0-9.6,7.669H56.628A2.136,2.136,0,0,0,54.495,20.2V36.939a2.136,2.136,0,0,0,2.133,2.133H82.82a2.136,2.136,0,0,0,2.133-2.133v-.214c0-.005,0-.011,0-.016ZM42.887,46.729H71.8V51.45a.9.9,0,0,1-.9.9H43.784c-.024,0-.048,0-.072,0h-.02c-.022,0-.043-.006-.064-.01l-.025,0h0a.9.9,0,0,1-.716-.878ZM43.519,27.8h7.455a.632.632,0,0,1,0,1.264H43.519a.632.632,0,1,1,0-1.264ZM63,2.739a.419.419,0,0,1-.419.419H52.1a.419.419,0,0,1-.419-.419V1.58H63V2.739Zm10.14,26.852,10.23-7.586v13.35ZM71.8,18.07H67.613a2.464,2.464,0,0,1,2.21-2.685c1.1,0,1.887.989,1.973,2.438Zm-.314,1.58A2.021,2.021,0,0,1,69.746,21a2.131,2.131,0,0,1-1.809-1.346Zm1.892,0h2.692c-.117.662-1.208,2.314-2.391,1.487-.388-.334-.3-1.03-.3-1.487Zm2.887-3.317a5.051,5.051,0,0,1,.16,1.737H73.383c0-.023-.008-5.386-.008-5.386A6.329,6.329,0,0,1,76.26,16.332ZM64.576,15.121a6.361,6.361,0,0,1,7.22-3.1v2.436a3.23,3.23,0,0,0-1.973-.656,4.016,4.016,0,0,0-3.789,4.265H63.78A6.386,6.386,0,0,1,64.576,15.121ZM56.628,19.65h5.706A7.926,7.926,0,0,0,69.268,26.1a.79.79,0,0,0,.1-1.574,6.359,6.359,0,0,1-5.418-4.874h2.311a3.825,3.825,0,0,0,3.487,2.926,3.247,3.247,0,0,0,2.322-1.007,2.6,2.6,0,0,0,.486.683,2.252,2.252,0,0,0,1.6.687,3.493,3.493,0,0,0,3.232-2.3c.135-.338.247-.666.338-.986h5.1a.553.553,0,0,1,.531.405l-12.131,9-.011.009-.408.3a1.8,1.8,0,0,1-2.154,0l-.411-.3,0,0-12.136-9a.553.553,0,0,1,.531-.405ZM56.074,22,66.3,29.591,56.074,35.355ZM82.82,37.493H56.628a.554.554,0,0,1-.513-.347l11.578-6.524.013.009a3.368,3.368,0,0,0,4.036,0l.013-.009,11.578,6.524a.554.554,0,0,1-.513.347Z" transform="translate(-31.767 0)"/>
        <path id="Trazado_887011" data-name="Trazado 887011" d="M131.7,194.811a2.212,2.212,0,1,0,0,4.424h3.727a2.212,2.212,0,1,0,0-4.424Zm4.359,2.212a.633.633,0,0,1-.632.632H131.7a.632.632,0,0,1,0-1.264h3.727A.633.633,0,0,1,136.056,197.023Z" transform="translate(-116.217 -174.292)"/>
        <path id="Trazado_887012" data-name="Trazado 887012" d="M11.745,251.186a2.214,2.214,0,0,0-2.212-2.212H5.725a2.212,2.212,0,0,0,0,4.424H9.533A2.214,2.214,0,0,0,11.745,251.186Zm-6.652,0a.633.633,0,0,1,.632-.632H9.533a.632.632,0,0,1,0,1.264H5.725A.633.633,0,0,1,5.093,251.186Z" transform="translate(-3.513 -222.751)"/>
      </g>
    </g>
  </g>
</svg>
