<svg xmlns="http://www.w3.org/2000/svg" width="76.414" height="76.414" viewBox="0 0 76.414 76.414">
  <g id="Grupo_1103923" data-name="Grupo 1103923" transform="translate(-919.793 -2043.293)">
    <g id="Grupo_1101761" data-name="Grupo 1101761" transform="translate(630.5 -884)">
      <g id="Grupo_1101752" data-name="Grupo 1101752">
        <path id="Trazado_878240" data-name="Trazado 878240" d="M38.207,0A38.207,38.207,0,1,1,0,38.207,38.207,38.207,0,0,1,38.207,0Z" transform="translate(289.293 2927.293)" fill="#f0c52c"/>
      </g>
    </g>
    <g id="internet-tablet-money-laptop-shopping_online" data-name="internet-tablet-money-laptop-shopping online" transform="translate(931.416 2055)">
      <circle id="Elipse_11788" data-name="Elipse 11788" cx="9.572" cy="9.572" r="9.572" transform="translate(16.587 2.912)" fill="#ffcd00"/>
      <path id="Trazado_887013" data-name="Trazado 887013" d="M41.239,12.633A9.624,9.624,0,0,1,30,22.13,9.633,9.633,0,0,0,30,3.136a9.624,9.624,0,0,1,11.239,9.5Z" transform="translate(-5.522 -0.197)" fill="#ddb200"/>
      <path id="Trazado_887014" data-name="Trazado 887014" d="M19.056,57v1.606a1.61,1.61,0,0,1-1.606,1.606H4.606A1.61,1.61,0,0,1,3,58.606V57Z" transform="translate(-0.197 -10.846)" fill="#c6c5ca"/>
      <path id="Trazado_887015" data-name="Trazado 887015" d="M19.056,34.606V52.267H3V34.606A1.61,1.61,0,0,1,4.606,33H17.45a1.61,1.61,0,0,1,1.606,1.606Z" transform="translate(-0.197 -6.113)" fill="#46f8ff"/>
      <path id="Trazado_887016" data-name="Trazado 887016" d="M21.817,57v1.606a1.61,1.61,0,0,1-1.606,1.606H17a1.61,1.61,0,0,0,1.606-1.606V57Z" transform="translate(-2.958 -10.846)" fill="#898890"/>
      <path id="Trazado_887017" data-name="Trazado 887017" d="M21.817,34.606V52.267H18.606V34.606A1.61,1.61,0,0,0,17,33h3.211a1.61,1.61,0,0,1,1.606,1.606Z" transform="translate(-2.958 -6.113)" fill="#00b6bd"/>
      <path id="Trazado_887018" data-name="Trazado 887018" d="M54.295,55v3.211a1.61,1.61,0,0,1-1.606,1.606H28.606A1.61,1.61,0,0,1,27,58.211V55h9.633a1.61,1.61,0,0,0,1.606,1.606h4.817A1.61,1.61,0,0,0,44.661,55Z" transform="translate(-4.93 -10.452)" fill="#898890"/>
      <path id="Trazado_887019" data-name="Trazado 887019" d="M53.084,35.211V50.464H45.056A1.61,1.61,0,0,1,43.45,52.07H38.633a1.61,1.61,0,0,1-1.606-1.606H29V35.211A3.211,3.211,0,0,1,32.211,32H49.873A3.211,3.211,0,0,1,53.084,35.211Z" transform="translate(-5.325 -5.916)" fill="#ff7956"/>
      <path id="Trazado_887020" data-name="Trazado 887020" d="M59.817,55v3.211a1.61,1.61,0,0,1-1.606,1.606H55a1.61,1.61,0,0,0,1.606-1.606V55Z" transform="translate(-10.452 -10.452)" fill="#57565c"/>
      <path id="Trazado_887021" data-name="Trazado 887021" d="M57.422,35.211V50.464H54.211V35.211A3.211,3.211,0,0,0,51,32h3.211A3.211,3.211,0,0,1,57.422,35.211Z" transform="translate(-9.663 -5.916)" fill="#ff5023"/>
      <path id="Trazado_887022" data-name="Trazado 887022" d="M50.661,37.606v9.633H33V37.606A1.61,1.61,0,0,1,34.606,36h14.45A1.61,1.61,0,0,1,50.661,37.606Z" transform="translate(-6.113 -6.705)" fill="#46f8ff"/>
      <path id="Trazado_887023" data-name="Trazado 887023" d="M53.817,37.606v9.633H50.606V37.606A1.61,1.61,0,0,0,49,36h3.211A1.61,1.61,0,0,1,53.817,37.606Z" transform="translate(-9.269 -6.705)" fill="#00b6bd"/>
      <path id="Trazado_887024" data-name="Trazado 887024" d="M54.1,49.464h-.8V35.014A4.014,4.014,0,0,0,49.281,31H31.62a4.014,4.014,0,0,0-4.014,4.014v14.45h-.8a.8.8,0,0,0-.8.8v3.211a2.416,2.416,0,0,0,2.408,2.408H52.492A2.416,2.416,0,0,0,54.9,53.478V50.267A.8.8,0,0,0,54.1,49.464ZM29.211,35.014a2.416,2.416,0,0,1,2.408-2.408H49.281a2.416,2.416,0,0,1,2.408,2.408v14.45H44.464a.8.8,0,0,0-.8.8.8.8,0,0,1-.8.8H38.042a.8.8,0,0,1-.8-.8.8.8,0,0,0-.8-.8H29.211ZM53.295,53.478a.8.8,0,0,1-.8.8H28.408a.8.8,0,0,1-.8-.8V51.07H35.77a2.42,2.42,0,0,0,2.272,1.606h4.817a2.42,2.42,0,0,0,2.272-1.606h8.164Z" transform="translate(-4.733 -5.719)"/>
      <path id="Trazado_887025" data-name="Trazado 887025" d="M42,53h3.211v1.606H42Z" transform="translate(-7.888 -10.058)"/>
      <path id="Trazado_887026" data-name="Trazado 887026" d="M30,57h1.606v1.606H30Z" transform="translate(-5.522 -10.846)"/>
      <path id="Trazado_887027" data-name="Trazado 887027" d="M34,57h1.606v1.606H34Z" transform="translate(-6.311 -10.846)"/>
      <path id="Trazado_887028" data-name="Trazado 887028" d="M52,57h1.606v1.606H52Z" transform="translate(-9.86 -10.846)"/>
      <path id="Trazado_887029" data-name="Trazado 887029" d="M56,57h1.606v1.606H56Z" transform="translate(-10.649 -10.846)"/>
      <path id="Trazado_887030" data-name="Trazado 887030" d="M51.267,47.042V37.408A2.408,2.408,0,0,0,48.859,35H34.408A2.408,2.408,0,0,0,32,37.408v9.633a.8.8,0,0,0,.8.8H50.464A.8.8,0,0,0,51.267,47.042Zm-1.606-.8H33.606V37.408a.8.8,0,0,1,.8-.8h14.45a.8.8,0,0,1,.8.8Z" transform="translate(-5.916 -6.508)"/>
      <path id="Trazado_887031" data-name="Trazado 887031" d="M17.253,32H4.408A2.416,2.416,0,0,0,2,34.408V53.675a2.416,2.416,0,0,0,2.408,2.408H17.253a2.416,2.416,0,0,0,2.408-2.408V34.408A2.416,2.416,0,0,0,17.253,32Zm.8,21.675a.8.8,0,0,1-.8.8H4.408a.8.8,0,0,1-.8-.8v-.8h14.45Zm0-2.408H3.606V34.408a.8.8,0,0,1,.8-.8H17.253a.8.8,0,0,1,.8.8Z" transform="translate(0 -5.916)"/>
      <path id="Trazado_887032" data-name="Trazado 887032" d="M7.606,37.606H9.211V36H6.8a.8.8,0,0,0-.8.8v2.408H7.606Z" transform="translate(-0.789 -6.705)"/>
      <path id="Trazado_887033" data-name="Trazado 887033" d="M6,42H7.606v1.606H6Z" transform="translate(-0.789 -7.888)"/>
      <path id="Trazado_887034" data-name="Trazado 887034" d="M51,14h1.606v1.606H51Z" transform="translate(-9.663 -2.367)"/>
      <path id="Trazado_887035" data-name="Trazado 887035" d="M55,14h1.606v1.606H55Z" transform="translate(-10.452 -2.367)"/>
      <path id="Trazado_887036" data-name="Trazado 887036" d="M55,18h1.606v1.606H55Z" transform="translate(-10.452 -3.155)"/>
      <path id="Trazado_887037" data-name="Trazado 887037" d="M55,22h1.606v1.606H55Z" transform="translate(-10.452 -3.944)"/>
      <path id="Trazado_887038" data-name="Trazado 887038" d="M55,26h1.606v1.606H55Z" transform="translate(-10.452 -4.733)"/>
      <path id="Trazado_887039" data-name="Trazado 887039" d="M11,14h1.606v1.606H11Z" transform="translate(-1.775 -2.367)"/>
      <path id="Trazado_887040" data-name="Trazado 887040" d="M7,14H8.606v1.606H7Z" transform="translate(-0.986 -2.367)"/>
      <path id="Trazado_887041" data-name="Trazado 887041" d="M7,18H8.606v1.606H7Z" transform="translate(-0.986 -3.155)"/>
      <path id="Trazado_887042" data-name="Trazado 887042" d="M7,22H8.606v1.606H7Z" transform="translate(-0.986 -3.944)"/>
      <path id="Trazado_887043" data-name="Trazado 887043" d="M7,26H8.606v1.606H7Z" transform="translate(-0.986 -4.733)"/>
      <path id="Trazado_887044" data-name="Trazado 887044" d="M4,2H5.606V3.606H4Z" transform="translate(-0.394)"/>
      <path id="Trazado_887045" data-name="Trazado 887045" d="M2,4H3.606V5.606H2Z" transform="translate(0 -0.394)"/>
      <path id="Trazado_887046" data-name="Trazado 887046" d="M4,6H5.606V7.606H4Z" transform="translate(-0.394 -0.789)"/>
      <path id="Trazado_887047" data-name="Trazado 887047" d="M6,4H7.606V5.606H6Z" transform="translate(-0.789 -0.394)"/>
      <path id="Trazado_887048" data-name="Trazado 887048" d="M12,4h1.606V5.606H12Z" transform="translate(-1.972 -0.394)"/>
      <path id="Trazado_887049" data-name="Trazado 887049" d="M10,6h1.606V7.606H10Z" transform="translate(-1.578 -0.789)"/>
      <path id="Trazado_887050" data-name="Trazado 887050" d="M12,8h1.606V9.606H12Z" transform="translate(-1.972 -1.183)"/>
      <path id="Trazado_887051" data-name="Trazado 887051" d="M14,6h1.606V7.606H14Z" transform="translate(-2.367 -0.789)"/>
      <path id="Trazado_887052" data-name="Trazado 887052" d="M58,2h1.606V3.606H58Z" transform="translate(-11.044)"/>
      <path id="Trazado_887053" data-name="Trazado 887053" d="M60,4h1.606V5.606H60Z" transform="translate(-11.438 -0.394)"/>
      <path id="Trazado_887054" data-name="Trazado 887054" d="M58,6h1.606V7.606H58Z" transform="translate(-11.044 -0.789)"/>
      <path id="Trazado_887055" data-name="Trazado 887055" d="M56,4h1.606V5.606H56Z" transform="translate(-10.649 -0.394)"/>
      <path id="Trazado_887056" data-name="Trazado 887056" d="M50,4h1.606V5.606H50Z" transform="translate(-9.466 -0.394)"/>
      <path id="Trazado_887057" data-name="Trazado 887057" d="M52,6h1.606V7.606H52Z" transform="translate(-9.86 -0.789)"/>
      <path id="Trazado_887058" data-name="Trazado 887058" d="M50,8h1.606V9.606H50Z" transform="translate(-9.466 -1.183)"/>
      <path id="Trazado_887059" data-name="Trazado 887059" d="M31.211,17.239a1.606,1.606,0,0,1-1.606-1.606H28a3.211,3.211,0,0,0,2.408,3.1v1.72h1.606v-1.72a3.2,3.2,0,0,0-.8-6.308,1.606,1.606,0,1,1,1.606-1.606h1.606a3.211,3.211,0,0,0-2.408-3.1V6H30.408V7.72a3.2,3.2,0,0,0,.8,6.308,1.606,1.606,0,1,1,0,3.211Z" transform="translate(-5.127 -0.789)"/>
      <path id="Trazado_887060" data-name="Trazado 887060" d="M29.436,22.873A10.436,10.436,0,1,0,19,12.436,10.436,10.436,0,0,0,29.436,22.873Zm0-19.267a8.831,8.831,0,1,1-8.831,8.831,8.831,8.831,0,0,1,8.831-8.831Z" transform="translate(-3.353 0)"/>
      <path id="Trazado_887061" data-name="Trazado 887061" d="M48,6h1.606V7.606H48Z" transform="translate(-9.072 -0.789)"/>
    </g>
  </g>
</svg>
