<svg xmlns="http://www.w3.org/2000/svg" width="78" height="78" viewBox="0 0 78 78">
  <g id="Grupo_1103907" data-name="Grupo 1103907" transform="translate(-205 -437.5)">
    <g id="Grupo_1095345" data-name="Grupo 1095345" transform="translate(205 437.5)">
      <path id="Trazado_875520" data-name="Trazado 875520" d="M39,0A39,39,0,1,1,0,39,39,39,0,0,1,39,0Z" fill="#d6e1fd"/>
    </g>
    <g id="information_7865676" transform="translate(221.032 454.532)">
      <rect id="Rect치ngulo_404281" data-name="Rect치ngulo 404281" width="42" height="32" rx="4" transform="translate(1.968 6.968)" fill="#686868"/>
      <path id="Trazado_887262" data-name="Trazado 887262" d="M41.7,10H4.854a2.828,2.828,0,0,0-2.788,2.37A30.471,30.471,0,0,0,32.491,41.18H41.7a2.835,2.835,0,0,0,2.835-2.835V12.835A2.835,2.835,0,0,0,41.7,10Z" transform="translate(-0.311 -2.622)" fill="#939393"/>
      <rect id="Rect치ngulo_404282" data-name="Rect치ngulo 404282" width="36" height="23" rx="2" transform="translate(4.968 9.968)" fill="#4fb5dc"/>
      <path id="Trazado_887263" data-name="Trazado 887263" d="M42.849,15.417A1.417,1.417,0,0,0,41.432,14H7.417A1.417,1.417,0,0,0,6,15.417v9.3a30.594,30.594,0,0,0,9.933,11.961h25.5a1.417,1.417,0,0,0,1.417-1.417Z" transform="translate(-1.457 -3.788)" fill="#5ed3f2"/>
      <path id="Trazado_887264" data-name="Trazado 887264" d="M32.047,54l4.96,5.669H20L24.96,54" transform="translate(-5.536 -15.442)" fill="#474747"/>
      <path id="Trazado_887265" data-name="Trazado 887265" d="M33.739,54l4.96,5.669H29.225A3.418,3.418,0,0,1,26.652,54" transform="translate(-7.228 -15.442)" fill="#595959"/>
      <path id="Trazado_887266" data-name="Trazado 887266" d="M31,49h1.417v1.417H31Z" transform="translate(-8.741 -13.985)" fill="#474747"/>
      <path id="Trazado_887267" data-name="Trazado 887267" d="M36.928,28.928V2H14.252V21.842H10V28.22a2.126,2.126,0,0,0,2.126,2.126H35.511A1.417,1.417,0,0,0,36.928,28.928Z" transform="translate(-2.622 -0.291)" fill="#ddd1c4"/>
      <path id="Trazado_887268" data-name="Trazado 887268" d="M37.531,30.318a1.417,1.417,0,0,0,1.146-1.39V2H16V8.226A22.619,22.619,0,0,0,37.531,30.318Z" transform="translate(-4.37 -0.291)" fill="#f3e8d8"/>
      <g id="Grupo_1103927" data-name="Grupo 1103927" transform="translate(13.755 16.59)">
        <path id="Trazado_887269" data-name="Trazado 887269" d="M19,23H32.464v1.417H19Z" transform="translate(-19 -23)" fill="#474747"/>
        <path id="Trazado_887270" data-name="Trazado 887270" d="M19,27H31.087v1.417H19Z" transform="translate(-19 -24.165)" fill="#474747"/>
        <path id="Trazado_887271" data-name="Trazado 887271" d="M19,31H31.413v1.417H19Z" transform="translate(-19 -25.331)" fill="#474747"/>
        <path id="Trazado_887272" data-name="Trazado 887272" d="M19,35H33.293v1.417H19Z" transform="translate(-19 -26.496)" fill="#474747"/>
      </g>
      <circle id="Elipse_11797" data-name="Elipse 11797" cx="6.5" cy="6.5" r="6.5" transform="translate(25.968 13.968)" fill="#95ebfc"/>
      <path id="Trazado_887273" data-name="Trazado 887273" d="M42.086,19a7.086,7.086,0,1,0,7.086,7.086A7.086,7.086,0,0,0,42.086,19Zm4.9,4.252H45.355a9.086,9.086,0,0,0-.745-2.235,5.709,5.709,0,0,1,2.38,2.235Zm-2.776,2.835a13.322,13.322,0,0,1-.077,1.417h-4.1a13.162,13.162,0,0,1,0-2.835h4.1a13.323,13.323,0,0,1,.077,1.417Zm-2.126,5.669c-.6,0-1.381-1.049-1.811-2.835H43.9C43.468,30.706,42.684,31.755,42.086,31.755Zm-5.669-5.669a5.636,5.636,0,0,1,.186-1.417h2.005c-.043.456-.066.929-.066,1.417s.023.962.066,1.417H36.6A5.636,5.636,0,0,1,36.417,26.086Zm3.859-2.835c.429-1.785,1.213-2.835,1.811-2.835s1.381,1.049,1.811,2.835Zm-.712-2.235a9.086,9.086,0,0,0-.745,2.235H37.184a5.709,5.709,0,0,1,2.38-2.235Zm-2.38,7.9h1.634a9.086,9.086,0,0,0,.745,2.235A5.709,5.709,0,0,1,37.184,28.921Zm7.425,2.235a9.086,9.086,0,0,0,.745-2.235h1.634a5.709,5.709,0,0,1-2.38,2.235Zm2.96-3.652H45.564c.043-.456.066-.929.066-1.417s-.023-.962-.066-1.417h2.005A5.482,5.482,0,0,1,47.569,27.5Z" transform="translate(-9.906 -5.245)" fill="#4fb5dc"/>
      <ellipse id="Elipse_11798" data-name="Elipse 11798" cx="5" cy="4.5" rx="5" ry="4.5" transform="translate(17.968 4.968)" fill="#f4a93c"/>
      <path id="Trazado_887274" data-name="Trazado 887274" d="M14.252,30v6.378a2.126,2.126,0,1,1-4.252,0V30Z" transform="translate(-2.622 -8.45)" fill="#cebfaf"/>
      <path id="Trazado_887275" data-name="Trazado 887275" d="M31,9h1.417v1.417H31Z" transform="translate(-8.741 -2.331)" fill="#474747"/>
      <path id="Trazado_887276" data-name="Trazado 887276" d="M31,12h1.417v3.543H31Z" transform="translate(-8.741 -3.205)" fill="#474747"/>
      <path id="Trazado_887277" data-name="Trazado 887277" d="M41.392,6.669H35.015V1.709A.709.709,0,0,0,34.306,1H11.63a.709.709,0,0,0-.709.709v4.96H4.543A3.547,3.547,0,0,0,1,10.212V35.723a3.547,3.547,0,0,0,3.543,3.543H17.866l-3.932,4.494a.709.709,0,0,0,.531,1.175H31.471a.709.709,0,0,0,.534-1.175L28.07,39.266H41.392a3.547,3.547,0,0,0,3.543-3.543V10.212a3.547,3.547,0,0,0-3.543-3.543ZM9.5,29.346a1.417,1.417,0,0,1-1.417-1.417V22.259h2.835v5.669A1.417,1.417,0,0,1,9.5,29.346Zm1.417-8.5H7.378a.709.709,0,0,0-.709.709v6.378A2.835,2.835,0,0,0,9.5,30.763H32.889a2.126,2.126,0,0,0,2.126-2.126v-1.3a7.08,7.08,0,0,0,0-12.981V10.921h4.96a.709.709,0,0,1,.709.709V31.471a.709.709,0,0,1-.709.709H5.96a.709.709,0,0,1-.709-.709V11.63a.709.709,0,0,1,.709-.709h4.96Zm26.161-2.835H35.448a9.086,9.086,0,0,0-.745-2.235,5.709,5.709,0,0,1,2.38,2.235Zm.767,2.835a5.636,5.636,0,0,1-.186,1.417H35.657c.043-.456.066-.929.066-1.417s-.023-.962-.066-1.417h2.005a5.636,5.636,0,0,1,.186,1.417ZM34.7,25.911a9.086,9.086,0,0,0,.745-2.235h1.634a5.709,5.709,0,0,1-2.38,2.235Zm-4.649-5.07a13.324,13.324,0,0,1,.077-1.417h4.1a13.161,13.161,0,0,1,0,2.835h-4.1a13.322,13.322,0,0,1-.077-1.417Zm3.936-2.835H30.369c.429-1.785,1.213-2.835,1.811-2.835S33.561,16.222,33.991,18.007Zm-5.079,0H27.278a5.709,5.709,0,0,1,2.38-2.235,9.086,9.086,0,0,0-.745,2.235Zm-2.4,2.835a5.636,5.636,0,0,1,.186-1.417H28.7c-.043.456-.066.929-.066,1.417s.023.962.066,1.417H26.7A5.636,5.636,0,0,1,26.511,20.842Zm2.4,2.835a9.086,9.086,0,0,0,.745,2.235,5.709,5.709,0,0,1-2.38-2.235Zm1.458,0h3.621c-.429,1.785-1.213,2.835-1.811,2.835S30.8,25.461,30.369,23.676ZM12.338,2.417H33.6V13.9a7.064,7.064,0,0,0-7.073,2.693H13.755v1.417H25.69a7.016,7.016,0,0,0-.453,1.417H13.755v1.417H25.094a7.074,7.074,0,0,0,.142,1.417H13.755v1.417H25.69a7.08,7.08,0,0,0,.835,1.417H13.755v1.417H27.947A7.045,7.045,0,0,0,33.6,27.787v.85a.709.709,0,0,1-.709.709H11.944a2.806,2.806,0,0,0,.394-1.417Zm17.574,41.1H16.023l3.72-4.252h6.443Zm13.606-7.8a2.126,2.126,0,0,1-2.126,2.126H4.543a2.126,2.126,0,0,1-2.126-2.126V10.212A2.126,2.126,0,0,1,4.543,8.086h6.378V9.5H5.96A2.126,2.126,0,0,0,3.835,11.63V31.471A2.126,2.126,0,0,0,5.96,33.6H39.975A2.126,2.126,0,0,0,42.1,31.471V11.63A2.126,2.126,0,0,0,39.975,9.5h-4.96V8.086h6.378a2.126,2.126,0,0,1,2.126,2.126Z"/>
      <path id="Trazado_887278" data-name="Trazado 887278" d="M31,49h1.417v1.417H31Z" transform="translate(-8.741 -13.985)"/>
      <path id="Trazado_887279" data-name="Trazado 887279" d="M31,9h1.417v1.417H31Z" transform="translate(-8.741 -2.331)"/>
      <path id="Trazado_887280" data-name="Trazado 887280" d="M31,12h1.417v3.543H31Z" transform="translate(-8.741 -3.205)"/>
      <path id="Trazado_887281" data-name="Trazado 887281" d="M29.669,16.338A5.669,5.669,0,1,0,24,10.669a5.669,5.669,0,0,0,5.669,5.669Zm0-9.921a4.252,4.252,0,1,1-4.252,4.252A4.252,4.252,0,0,1,29.669,6.417Z" transform="translate(-6.701 -1.165)"/>
    </g>
  </g>
</svg>
