<svg xmlns="http://www.w3.org/2000/svg" xmlns:xlink="http://www.w3.org/1999/xlink" width="119" height="119" viewBox="0 0 119 119">
  <defs>
    <filter id="Trazado_836181" x="0" y="0" width="119" height="119" filterUnits="userSpaceOnUse">
      <feOffset input="SourceAlpha"/>
      <feGaussianBlur stdDeviation="5.5" result="blur"/>
      <feFlood flood-color="#fff" flood-opacity="0.659"/>
      <feComposite operator="in" in2="blur"/>
      <feComposite in="SourceGraphic"/>
    </filter>
  </defs>
  <g id="Grupo_1103920" data-name="Grupo 1103920" transform="translate(-1108.5 -1397.5)">
    <g id="Grupo_1103430" data-name="Grupo 1103430" transform="translate(-4 -3426)">
      <g transform="matrix(1, 0, 0, 1, 1112.5, 4823.5)" filter="url(#Trazado_836181)">
        <path id="Trazado_836181-2" data-name="Trazado 836181" d="M43,0A43,43,0,1,1,0,43,43,43,0,0,1,43,0Z" transform="translate(16.5 16.5)" fill="#4df5df"/>
      </g>
    </g>
    <g id="commuication_5957249" transform="translate(1125 1400)">
      <rect id="Rect치ngulo_404232" data-name="Rect치ngulo 404232" width="41" height="30" rx="15" transform="translate(22 33)" fill="#e9eef2"/>
      <path id="Trazado_886924" data-name="Trazado 886924" d="M75.408,326.182H24l3.654-11.694A3.545,3.545,0,0,1,31.038,312H68.37a3.545,3.545,0,0,1,3.384,2.488Z" transform="translate(-7.114 -248.978)" fill="#dadcde"/>
      <path id="Trazado_886925" data-name="Trazado 886925" d="M24,440H75.408a3.545,3.545,0,0,1-3.545,3.545H27.545A3.545,3.545,0,0,1,24,440Z" transform="translate(-7.114 -362.796)" fill="#c3c6c7"/>
      <path id="Trazado_886926" data-name="Trazado 886926" d="M104,72h33.681V95.045H104Z" transform="translate(-78.25 -35.568)" fill="#a3d4f7"/>
      <path id="Trazado_886927" data-name="Trazado 886927" d="M125.227,351.091H88L89.773,344h33.681Z" transform="translate(-64.023 -277.432)" fill="#c3c6c7"/>
      <rect id="Rect치ngulo_404233" data-name="Rect치ngulo 404233" width="23" height="16" rx="8" transform="translate(31 40)" fill="#e6be34"/>
      <path id="Trazado_886928" data-name="Trazado 886928" d="M178.532,162.094a1.767,1.767,0,0,1-1.276.542h-19.5a1.767,1.767,0,0,1-1.276-.542L165.734,152h3.545Z" transform="translate(-124.916 -106.705)" fill="#ffd33a"/>
      <path id="Trazado_886929" data-name="Trazado 886929" d="M178.532,104.542l-8.056,8.788a4.03,4.03,0,0,1-5.941,0l-8.056-8.788a1.767,1.767,0,0,1,1.276-.542h19.5A1.767,1.767,0,0,1,178.532,104.542Z" transform="translate(-124.916 -64.023)" fill="#ffe76c"/>
      <ellipse id="Elipse_11784" data-name="Elipse 11784" cx="4.5" cy="5" rx="4.5" ry="5" transform="translate(47 36)" fill="#eb423f"/>
      <path id="Trazado_886930" data-name="Trazado 886930" d="M96.886,88.818h33.681a.886.886,0,0,0,.886-.886V64.886a.886.886,0,0,0-.886-.886H96.886a.886.886,0,0,0-.886.886V87.932A.886.886,0,0,0,96.886,88.818Zm29.25-19.5a3.545,3.545,0,1,1-3.545-3.545A3.545,3.545,0,0,1,126.136,69.318Zm-6.772,4.223-3.319,3.621a3.143,3.143,0,0,1-4.634,0l-7.191-7.844h13.053a5.311,5.311,0,0,0,2.091,4.223Zm-16.273-2.83,5.223,5.7-5.223,5.7Zm6.426,7.01.586.64a4.916,4.916,0,0,0,7.248,0l.586-.64,5.3,5.779H104.219Zm14.846,4.386-5.223-5.7,1.851-2.019a5.311,5.311,0,0,0,3.373-.058ZM97.773,65.773h20.858a5.323,5.323,0,0,0-1.054,1.773h-13.6a2.658,2.658,0,0,0-2.659,2.659V82.613a2.662,2.662,0,0,0,2.659,2.659h19.5a2.662,2.662,0,0,0,2.659-2.659V73.278a5.307,5.307,0,0,0,.414-7.505h3.131V87.045H97.773Z" transform="translate(-71.136 -28.455)"/>
      <path id="Trazado_886931" data-name="Trazado 886931" d="M80.886,344.864h37.227a.886.886,0,0,0,.86-1.1l-1.773-7.091a.886.886,0,0,0-.86-.671H82.659a.886.886,0,0,0-.86.671l-1.773,7.091a.886.886,0,0,0,.86,1.1Zm1.578-3.545h2.853v1.773h-3.3Zm15.262,0h3.545v1.773H97.727Zm-1.773,1.773H92.409v-1.773h3.545Zm7.091-1.773h3.545v1.773h-3.545Zm5.318,0h3.545v1.773h-3.545Zm0-1.773v-1.773h3.545v1.773Zm-1.773,0h-3.545v-1.773h3.545Zm-5.318,0H97.727v-1.773h3.545Zm-5.318,0H92.409v-1.773h3.545Zm-5.318,0H87.091v-1.773h3.545Zm0,1.773v1.773H87.091v-1.773Zm23.045,1.773v-1.773h2.853l.443,1.773Zm2.41-3.545h-2.41v-1.773h1.967Zm-30.773-1.773v1.773h-2.41l.443-1.773Z" transform="translate(-56.909 -270.319)"/>
      <path id="Trazado_886932" data-name="Trazado 886932" d="M328.886,99.545a.886.886,0,0,0,.886-.886V96.886a.886.886,0,1,0-1.773,0v1.773A.886.886,0,0,0,328.886,99.545Z" transform="translate(-277.432 -56.909)"/>
      <path id="Trazado_886933" data-name="Trazado 886933" d="M69.139,76.936l-3.653-11.69A4.417,4.417,0,0,0,63.43,62.7a2.642,2.642,0,0,0,.433-1.452V34.659A2.662,2.662,0,0,0,61.2,32H23.977a2.662,2.662,0,0,0-2.659,2.659V61.25a2.642,2.642,0,0,0,.433,1.451,4.417,4.417,0,0,0-2.056,2.545l-3.653,11.69A.884.884,0,0,0,16,77.2a4.437,4.437,0,0,0,4.432,4.432H64.749A4.437,4.437,0,0,0,69.181,77.2a.883.883,0,0,0-.042-.268ZM23.091,34.659a.887.887,0,0,1,.886-.886H61.2a.887.887,0,0,1,.886.886V61.25a.887.887,0,0,1-.886.886H23.977a.887.887,0,0,1-.886-.886Zm-1.7,31.116a2.648,2.648,0,0,1,2.538-1.866H61.256a2.648,2.648,0,0,1,2.538,1.866l3.295,10.543h-49ZM64.749,79.863H20.432a2.664,2.664,0,0,1-2.507-1.773H67.257A2.664,2.664,0,0,1,64.749,79.863Z" transform="translate(0)"/>
    </g>
  </g>
</svg>
