<svg xmlns="http://www.w3.org/2000/svg" xmlns:xlink="http://www.w3.org/1999/xlink" width="119" height="119" viewBox="0 0 119 119">
  <defs>
    <filter id="Trazado_836181" x="0" y="0" width="119" height="119" filterUnits="userSpaceOnUse">
      <feOffset input="SourceAlpha"/>
      <feGaussianBlur stdDeviation="5.5" result="blur"/>
      <feFlood flood-color="#fff" flood-opacity="0.659"/>
      <feComposite operator="in" in2="blur"/>
      <feComposite in="SourceGraphic"/>
    </filter>
  </defs>
  <g id="Grupo_1102847" data-name="Grupo 1102847" transform="translate(-1112.5 -4823.5)">
    <g transform="matrix(1, 0, 0, 1, 1112.5, 4823.5)" filter="url(#Trazado_836181)">
      <path id="Trazado_836181-2" data-name="Trazado 836181" d="M43,0A43,43,0,1,1,0,43,43,43,0,0,1,43,0Z" transform="translate(16.5 16.5)" fill="#4df5df"/>
    </g>
    <g id="file_1470512" transform="translate(1147.655 4856.484)">
      <path id="Trazado_884681" data-name="Trazado 884681" d="M46.022,49.336v6.629L40.5,61.489H11.772a1.1,1.1,0,0,1-1.1-1.1V11.772a1.1,1.1,0,0,1,1.1-1.1H44.917a1.105,1.105,0,0,1,1.1,1.1v8.839" transform="translate(-9.563 -9.563)" fill="#e6e9ed"/>
      <path id="Trazado_884682" data-name="Trazado 884682" d="M275.506,416h-8.838v8.838h3.314l5.524-5.524Zm0,0" transform="translate(-239.047 -372.912)" fill="#bae4fb"/>
      <path id="Trazado_884683" data-name="Trazado 884683" d="M74.668,96h22.1v13.258h-22.1Zm0,0" transform="translate(-66.934 -86.057)" fill="#7ecffb"/>
      <path id="Trazado_884684" data-name="Trazado 884684" d="M37.564,15.467V2.209A2.212,2.212,0,0,0,35.354,0H2.21A2.212,2.212,0,0,0,0,2.209V50.822A2.212,2.212,0,0,0,2.21,53.031H30.935a1.1,1.1,0,0,0,.781-.324l5.524-5.524a1.1,1.1,0,0,0,.324-.781V34.249h-2.21v7.733H27.621a1.1,1.1,0,0,0-1.1,1.1v7.734H2.21V2.21H35.354V15.467ZM28.725,44.193h6.629v1.752l-4.877,4.877H28.725Zm0,0"/>
      <path id="Trazado_884685" data-name="Trazado 884685" d="M83.887,100.8H65.1a1.1,1.1,0,0,1-1.1-1.1V86.437a1.1,1.1,0,0,1,1.1-1.1H87.2a1.1,1.1,0,0,1,1.1,1.1V96.38H86.1V87.542H66.21V98.59H83.887Zm0,0" transform="translate(-57.371 -76.494)"/>
      <path id="Trazado_884686" data-name="Trazado 884686" d="M64,277.332H75.048v2.21H64Zm0,0" transform="translate(-57.371 -248.607)"/>
      <path id="Trazado_884687" data-name="Trazado 884687" d="M192,277.332h2.21v2.21H192Zm0,0" transform="translate(-172.113 -248.607)"/>
      <path id="Trazado_884688" data-name="Trazado 884688" d="M64,341.332h6.629v2.21H64Zm0,0" transform="translate(-57.371 -305.978)"/>
      <path id="Trazado_884689" data-name="Trazado 884689" d="M149.332,341.332H160.38v2.21H149.332Zm0,0" transform="translate(-133.865 -305.978)"/>
      <path id="Trazado_884690" data-name="Trazado 884690" d="M64,405.332H75.048v2.21H64Zm0,0" transform="translate(-57.371 -363.349)"/>
      <path id="Trazado_884691" data-name="Trazado 884691" d="M192,405.332h4.419v2.21H192Zm0,0" transform="translate(-172.113 -363.349)"/>
      <path id="Trazado_884692" data-name="Trazado 884692" d="M310.14,174.324l4.687,4.687-7.812,7.812-4.687-4.687Zm0,0" transform="translate(-271.014 -156.268)" fill="#fdd55b"/>
      <path id="Trazado_884693" data-name="Trazado 884693" d="M382.438,146.371l-4.688-4.688,3.124-3.124a2.209,2.209,0,0,1,3.124,0l1.563,1.562a2.21,2.21,0,0,1,0,3.124Zm0,0" transform="translate(-338.624 -123.627)" fill="#fa7241"/>
      <path id="Trazado_884694" data-name="Trazado 884694" d="M282.046,249.75l-2.343,7.031,7.031-2.343Zm0,0" transform="translate(-250.732 -223.882)" fill="#fa7241"/>
      <path id="Trazado_884695" data-name="Trazado 884695" d="M288.884,129.786l-1.562-1.563a3.317,3.317,0,0,0-4.688,0L271.7,139.16c-.01.01-.013.024-.023.036a1.076,1.076,0,0,0-.191.288c-.011.023-.024.045-.033.069s-.014.025-.019.04l-2.345,7.031a1.105,1.105,0,0,0,1.049,1.454,1.085,1.085,0,0,0,.349-.057l7.031-2.343c.016-.006.029-.016.045-.021s.049-.024.074-.036a1.07,1.07,0,0,0,.276-.184c.011-.01.027-.014.038-.024l10.938-10.937a3.32,3.32,0,0,0,0-4.688Zm-15.923,12.2,1.079,1.079,1.079,1.079-3.239,1.079Zm4.2,1.079L275.6,141.5l-1.562-1.563,6.25-6.25,1.562,1.563,1.562,1.563Zm10.155-10.155-2.345,2.343-1.562-1.562-1.562-1.563,2.344-2.343a1.1,1.1,0,0,1,1.563,0l1.563,1.562a1.108,1.108,0,0,1,0,1.563Zm0,0" transform="translate(-241.164 -114.073)"/>
    </g>
  </g>
</svg>
