<svg xmlns="http://www.w3.org/2000/svg" width="76.414" height="76.414" viewBox="0 0 76.414 76.414">
  <g id="Grupo_1103921" data-name="Grupo 1103921" transform="translate(-289.293 -2043.293)">
    <g id="Grupo_1101759" data-name="Grupo 1101759" transform="translate(0 -884)">
      <g id="Grupo_1101752" data-name="Grupo 1101752">
        <path id="Trazado_878240" data-name="Trazado 878240" d="M38.207,0A38.207,38.207,0,1,1,0,38.207,38.207,38.207,0,0,1,38.207,0Z" transform="translate(289.293 2927.293)" fill="#f0c52c"/>
      </g>
    </g>
    <g id="game_1705358" transform="translate(299.282 2049.272)">
      <path id="Trazado_886968" data-name="Trazado 886968" d="M50.969,138.285c-5.1,0-9.4.593-10.732,7.385H29.373c-1.333-6.793-5.633-7.385-10.733-7.385-6.163,0-11.16.865-11.16,12.5s5,26.437,11.16,26.437c4.613,0,8.573-8.3,10.273-17.346H40.7c1.7,9.05,5.659,17.346,10.272,17.346,6.163,0,11.16-14.807,11.16-26.437S57.133,138.285,50.969,138.285Zm0,0" transform="translate(-6.587 -121.779)" fill="#ff6914"/>
      <path id="Trazado_886969" data-name="Trazado 886969" d="M104.553,159.872c-.261-1.388-.468-2.792-.616-4.188a.6.6,0,0,0-.592-.535H93.457c.142-1.481.217-2.948.217-4.368,0-11.63-5-12.5-11.16-12.5-.86,0-1.7.017-2.5.078,4.958.373,8.657,2.411,8.657,12.418s-3.7,22.364-8.657,25.62a4.541,4.541,0,0,0,2.5.817c4.613,0,8.573-8.3,10.273-17.346Zm0,0" transform="translate(-70.461 -121.78)" fill="#ed500a"/>
      <path id="Trazado_886970" data-name="Trazado 886970" d="M353.374,138.285c-.86,0-1.7.017-2.5.078,4.958.373,8.657,2.411,8.657,12.418s-3.7,22.364-8.657,25.62a4.541,4.541,0,0,0,2.5.817c6.163,0,11.16-14.807,11.16-26.437s-5-12.5-11.16-12.5Zm0,0" transform="translate(-308.991 -121.779)" fill="#ed500a"/>
      <g id="Grupo_1103836" data-name="Grupo 1103836" transform="translate(37.253 25.088)">
        <path id="Trazado_886971" data-name="Trazado 886971" d="M358.041,212.351a2.163,2.163,0,1,1-2.163-2.163A2.163,2.163,0,0,1,358.041,212.351Zm0,0" transform="translate(-348.748 -210.188)" fill="#1dc2ff"/>
        <path id="Trazado_886972" data-name="Trazado 886972" d="M358.041,295.577a2.163,2.163,0,1,1-2.163-2.163A2.163,2.163,0,0,1,358.041,295.577Zm0,0" transform="translate(-348.748 -283.48)" fill="#1dc2ff"/>
        <path id="Trazado_886973" data-name="Trazado 886973" d="M399.654,253.968a2.163,2.163,0,1,1-2.163-2.163A2.163,2.163,0,0,1,399.654,253.968Zm0,0" transform="translate(-385.394 -246.838)" fill="#1dc2ff"/>
        <path id="Trazado_886974" data-name="Trazado 886974" d="M316.428,253.968a2.163,2.163,0,1,1-2.163-2.163A2.163,2.163,0,0,1,316.428,253.968Zm0,0" transform="translate(-312.102 -246.838)" fill="#1dc2ff"/>
      </g>
      <path id="Trazado_886975" data-name="Trazado 886975" d="M367.206,210.188a2.162,2.162,0,0,0-.628.093,2.163,2.163,0,0,1,0,4.14,2.163,2.163,0,1,0,.628-4.233Zm0,0" transform="translate(-322.823 -185.1)" fill="#00a2ff"/>
      <path id="Trazado_886976" data-name="Trazado 886976" d="M367.206,293.414a2.163,2.163,0,0,0-.628.093,2.163,2.163,0,0,1,0,4.14,2.163,2.163,0,1,0,.628-4.233Zm0,0" transform="translate(-322.823 -258.392)" fill="#00a2ff"/>
      <path id="Trazado_886977" data-name="Trazado 886977" d="M408.819,251.8a2.166,2.166,0,0,0-.628.093,2.163,2.163,0,0,1,0,4.14,2.163,2.163,0,1,0,.628-4.233Zm0,0" transform="translate(-359.47 -221.746)" fill="#00a2ff"/>
      <path id="Trazado_886978" data-name="Trazado 886978" d="M325.593,251.8a2.163,2.163,0,0,0-.628.093,2.163,2.163,0,0,1,0,4.14,2.163,2.163,0,1,0,.628-4.233Zm0,0" transform="translate(-286.177 -221.746)" fill="#00a2ff"/>
      <path id="Trazado_886979" data-name="Trazado 886979" d="M87.213,224.4a1.866,1.866,0,0,1-1.866-1.866V212.053a1.866,1.866,0,1,1,3.731,0v10.484A1.866,1.866,0,0,1,87.213,224.4Zm0,0" transform="translate(-75.16 -185.1)" fill="#fad200"/>
      <path id="Trazado_886980" data-name="Trazado 886980" d="M94.1,210.188a1.856,1.856,0,0,0-.933.252,1.863,1.863,0,0,1,.933,1.614v10.484a1.864,1.864,0,0,1-.933,1.614,1.863,1.863,0,0,0,2.8-1.614V212.054A1.866,1.866,0,0,0,94.1,210.188Zm0,0" transform="translate(-82.043 -185.1)" fill="#fab700"/>
      <path id="Trazado_886981" data-name="Trazado 886981" d="M53.776,257.841H43.291a1.866,1.866,0,1,1,0-3.731H53.776a1.866,1.866,0,1,1,0,3.731Zm0,0" transform="translate(-36.48 -223.779)" fill="#fad200"/>
      <path id="Trazado_886982" data-name="Trazado 886982" d="M53.776,262.859H43.291a1.864,1.864,0,0,1-1.614-.933,1.863,1.863,0,0,0,1.614,2.8H53.776a1.863,1.863,0,0,0,1.614-2.8,1.864,1.864,0,0,1-1.614.933Zm0,0" transform="translate(-36.48 -230.662)" fill="#fab700"/>
      <path id="Trazado_886983" data-name="Trazado 886983" d="M247,18.475a14.7,14.7,0,0,0-3.98,1.377V14.846a.727.727,0,0,0-.727-.727H237.89a14.68,14.68,0,0,0,1.377-3.98,2.715,2.715,0,0,0-5.429,0,14.685,14.685,0,0,0,1.378,3.98h-4.406a.727.727,0,0,0-.727.727v3.222a.729.729,0,0,0,.954.7,4.7,4.7,0,0,1,1.287-.289,2.715,2.715,0,0,1,0,5.429,4.715,4.715,0,0,1-1.287-.289.729.729,0,0,0-.954.695v3.223a.727.727,0,0,0,.727.727h4.4a14.636,14.636,0,0,0-1.373,3.97,2.715,2.715,0,0,0,5.429,0,14.648,14.648,0,0,0-1.373-3.97h4.4a.727.727,0,0,0,.727-.727V22.527A14.68,14.68,0,0,0,247,23.9a2.715,2.715,0,0,0,0-5.429Zm0,0" transform="translate(-202.619 -6.588)" fill="#f7c6ba"/>
      <path id="Trazado_886984" data-name="Trazado 886984" d="M204.181,428.4l-2.118,2.118a.716.716,0,0,1-1.013,0l-5.754-5.754,3.131-3.131,5.754,5.754A.716.716,0,0,1,204.181,428.4Zm0,0" transform="translate(-171.986 -371.304)" fill="#9af1ff"/>
      <path id="Trazado_886985" data-name="Trazado 886985" d="M215.729,428.392l-1.059,1.059-6.261-6.26,1.566-1.566,5.754,5.754A.716.716,0,0,1,215.729,428.392Zm0,0" transform="translate(-183.534 -371.3)" fill="#32e4ff"/>
      <path id="Trazado_886986" data-name="Trazado 886986" d="M124.848,352.13l7.036,16.853a.727.727,0,0,0,1.321.046l3.169-6.325,6.324-3.169a.727.727,0,0,0-.045-1.321L125.8,351.179a.727.727,0,0,0-.951.951Zm0,0" transform="translate(-109.894 -309.212)" fill="#9af1ff"/>
      <path id="Trazado_886987" data-name="Trazado 886987" d="M140.873,360.45l1.825-.914a.727.727,0,0,0-.046-1.321L125.8,351.18a.727.727,0,0,0-.951.951l.824,1.974Zm0,0" transform="translate(-109.894 -309.212)" fill="#32e4ff"/>
      <path id="Trazado_886988" data-name="Trazado 886988" d="M365.346,99.594a3.505,3.505,0,0,0-.881.163,2.736,2.736,0,0,1,0,5.1,3.5,3.5,0,0,0,.881.163,2.715,2.715,0,0,0,0-5.429Zm0,0" transform="translate(-320.963 -87.706)" fill="#f4ada5"/>
      <path id="Trazado_886989" data-name="Trazado 886989" d="M242.3,63.1h-1.988V74.876a.727.727,0,0,1-.727.727h-9.5v.909a.727.727,0,0,0,.727.727h5.7a14.636,14.636,0,0,1,1.373,3.97,2.67,2.67,0,0,1-2.021,2.57,2.762,2.762,0,0,0,.693.088,2.687,2.687,0,0,0,2.715-2.658,14.636,14.636,0,0,0-1.373-3.97h4.4a.727.727,0,0,0,.727-.727V63.825A.727.727,0,0,0,242.3,63.1Zm0,0" transform="translate(-202.619 -55.566)" fill="#f4ada5"/>
      <path id="Trazado_886990" data-name="Trazado 886990" d="M280.506,10.139a14.7,14.7,0,0,1-1.377,3.98h1.387a14.68,14.68,0,0,0,1.377-3.98,2.687,2.687,0,0,0-2.714-2.659,2.759,2.759,0,0,0-.693.088,2.67,2.67,0,0,1,2.021,2.57Zm0,0" transform="translate(-245.244 -6.587)" fill="#f4ada5"/>
      <path id="Trazado_886991" data-name="Trazado 886991" d="M349.29,208.819a3.056,3.056,0,1,1,3.056-3.056A3.059,3.059,0,0,1,349.29,208.819Zm0-4.326a1.27,1.27,0,1,0,1.27,1.27A1.271,1.271,0,0,0,349.29,204.493Zm0,0" transform="translate(-304.908 -178.512)"/>
      <path id="Trazado_886992" data-name="Trazado 886992" d="M349.29,292.046a3.056,3.056,0,1,1,3.056-3.056A3.059,3.059,0,0,1,349.29,292.046Zm0-4.326a1.27,1.27,0,1,0,1.27,1.27A1.271,1.271,0,0,0,349.29,287.72Zm0,0" transform="translate(-304.908 -251.805)"/>
      <path id="Trazado_886993" data-name="Trazado 886993" d="M390.9,250.432a3.056,3.056,0,1,1,3.056-3.056A3.059,3.059,0,0,1,390.9,250.432Zm0-4.326a1.27,1.27,0,1,0,1.27,1.27A1.271,1.271,0,0,0,390.9,246.106Zm0,0" transform="translate(-341.554 -215.158)"/>
      <path id="Trazado_886994" data-name="Trazado 886994" d="M307.677,250.432a3.056,3.056,0,1,1,3.056-3.056A3.059,3.059,0,0,1,307.677,250.432Zm0-4.326a1.27,1.27,0,1,0,1.27,1.27A1.272,1.272,0,0,0,307.677,246.106Zm0,0" transform="translate(-268.262 -215.158)"/>
      <path id="Trazado_886995" data-name="Trazado 886995" d="M41.946,218.708a2.762,2.762,0,0,1-2.759-2.759v-2.483H36.7a2.759,2.759,0,0,1,0-5.518h2.484v-2.484a2.759,2.759,0,1,1,5.518,0v2.484h2.483a2.759,2.759,0,0,1,1.074,5.3.893.893,0,0,1-.7-1.645.973.973,0,0,0-.379-1.869H43.812a.893.893,0,0,1-.893-.893v-3.377a.973.973,0,1,0-1.945,0v3.377a.893.893,0,0,1-.893.893H36.7a.973.973,0,0,0,0,1.945H40.08a.893.893,0,0,1,.893.893v3.377a.973.973,0,0,0,1.945,0v-3.377a.893.893,0,0,1,1.786,0v3.377a2.762,2.762,0,0,1-2.759,2.759Zm0,0" transform="translate(-29.893 -178.512)"/>
      <path id="Trazado_886996" data-name="Trazado 886996" d="M249.563,18.358a9.052,9.052,0,0,0-5.792-2.59,3.636,3.636,0,0,0,.191-1.166,3.584,3.584,0,0,0-3.551-3.608,8.732,8.732,0,0,0-3.087.91V8.259a1.622,1.622,0,0,0-1.62-1.62H232.66a8.736,8.736,0,0,0,.909-3.087,3.608,3.608,0,0,0-7.216,0,8.736,8.736,0,0,0,.909,3.087h-3.045a1.622,1.622,0,0,0-1.62,1.62v3.223a1.622,1.622,0,0,0,2.128,1.542,3.762,3.762,0,0,1,1.006-.243,1.823,1.823,0,0,1,0,3.643,3.735,3.735,0,0,1-1.006-.243,1.623,1.623,0,0,0-2.128,1.543v3.223a1.622,1.622,0,0,0,1.62,1.62h3.045a8.736,8.736,0,0,0-.909,3.087,3.608,3.608,0,0,0,7.216,0,8.733,8.733,0,0,0-.909-3.087H235.7a1.622,1.622,0,0,0,1.62-1.62V17.3a8.723,8.723,0,0,0,3.087.909,3.5,3.5,0,0,0,2.17-.755c4.3.258,8.1,1.5,8.1,11.547A49.589,49.589,0,0,1,247.1,47.154a.893.893,0,0,0,1.644.7A51.5,51.5,0,0,0,252.463,29c0-5.069-.949-8.55-2.9-10.644ZM236.8,15.125a.893.893,0,0,0-1.26.814V20.78H231.3a.893.893,0,0,0-.814,1.26c1.236,2.741,1.3,3.491,1.3,3.613a1.823,1.823,0,0,1-3.643,0c0-.122.062-.871,1.3-3.613a.893.893,0,0,0-.814-1.26h-4.24V17.946a4.743,4.743,0,0,0,1.348.263,3.608,3.608,0,0,0,0-7.216,4.736,4.736,0,0,0-1.348.264V8.425h4.24a.893.893,0,0,0,.814-1.26c-1.236-2.741-1.3-3.49-1.3-3.613a1.823,1.823,0,0,1,3.643,0c0,.123-.062.872-1.3,3.613a.893.893,0,0,0,.814,1.26h4.24v4.84a.893.893,0,0,0,1.26.814c2.742-1.236,3.491-1.3,3.613-1.3a1.822,1.822,0,0,1,0,3.643c-.122,0-.872-.062-3.613-1.3Zm0,0" transform="translate(-196.028)"/>
      <path id="Trazado_886997" data-name="Trazado 886997" d="M50.45,165.678a.893.893,0,0,0-1.233.274c-1.1,1.727-2.829,3.786-4.835,3.786-3.635,0-7.586-6.989-9.395-16.618a.893.893,0,0,0-.877-.728H22.326a.893.893,0,0,0-.877.728c-.317,1.687-.711,3.329-1.171,4.9l-4.028-1.682a1.62,1.62,0,0,0-2.119,2.12l2.98,7.139c-1.194,1.973-2.979,4.144-5.057,4.144-2.423,0-5-3.022-7.059-8.29a49.863,49.863,0,0,1-3.207-17.254c0-5.037.963-8.282,2.944-9.921,1.693-1.4,4.057-1.681,7.322-1.681,4.844,0,8.646.49,9.857,6.664a.893.893,0,0,0,.877.721h4.032a.893.893,0,1,0,0-1.786H23.505c-.723-2.991-2.119-5-4.254-6.136-1.954-1.037-4.291-1.25-7.2-1.25C5.7,130.805,0,131.829,0,144.194A51.739,51.739,0,0,0,3.331,162.1c2.38,6.077,5.478,9.425,8.722,9.425,2.063,0,4.078-1.354,5.889-3.937l3.223,7.721a1.6,1.6,0,0,0,1.439.995h.059a1.6,1.6,0,0,0,1.445-.894l1.569-3.132,2.762,2.762a1.6,1.6,0,0,0,2.262,0l2.131-2.131a1.6,1.6,0,0,0,0-2.263l-2.762-2.762,3.132-1.569a1.62,1.62,0,0,0-.1-2.943L21.936,158.71c.434-1.456.812-2.974,1.126-4.532H33.374a41.639,41.639,0,0,0,4,11.608c2.084,3.754,4.508,5.739,7.01,5.739,2.229,0,4.422-1.6,6.342-4.613a.892.892,0,0,0-.274-1.233Zm-19.011,6.1-1.868,1.868-3.05-3.05.623-1.244,1.244-.624Zm-3.288-4.929h0l-2.07,1.037a.891.891,0,0,0-.4.4l-3.007,6-6.74-16.146,16.146,6.74Zm0,0" transform="translate(0 -115.192)"/>
    </g>
  </g>
</svg>
