<svg xmlns="http://www.w3.org/2000/svg" width="76.414" height="76.414" viewBox="0 0 76.414 76.414">
  <g id="Grupo_1103924" data-name="Grupo 1103924" transform="translate(-1234.293 -2043.293)">
    <g id="Grupo_1101762" data-name="Grupo 1101762" transform="translate(945 -884)">
      <g id="Grupo_1101752" data-name="Grupo 1101752">
        <path id="Trazado_878240" data-name="Trazado 878240" d="M38.207,0A38.207,38.207,0,1,1,0,38.207,38.207,38.207,0,0,1,38.207,0Z" transform="translate(289.293 2927.293)" fill="#f0c52c"/>
      </g>
    </g>
    <g id="Linear" transform="translate(1243.565 2049)">
      <path id="Trazado_887062" data-name="Trazado 887062" d="M7.8,22H51.057a1.8,1.8,0,0,1,1.8,1.8V54.441H6V23.8A1.8,1.8,0,0,1,7.8,22Z" transform="translate(-0.494 -2.076)" fill="#8a86ac"/>
      <path id="Trazado_887063" data-name="Trazado 887063" d="M0,0H23.429V39.65H0Z" transform="translate(48.76 23.528) rotate(90)" fill="#f1f2f2"/>
      <path id="Trazado_887064" data-name="Trazado 887064" d="M30,27h3.6V38.715H30Z" transform="translate(-2.867 -2.571)" fill="#d1d3d4"/>
      <path id="Trazado_887065" data-name="Trazado 887065" d="M38,27h3.6V38.715H38Z" transform="translate(-3.658 -2.571)" fill="#d1d3d4"/>
      <path id="Trazado_887066" data-name="Trazado 887066" d="M22,27h3.6V38.715H22Z" transform="translate(-2.076 -2.571)" fill="#d1d3d4"/>
      <path id="Trazado_887067" data-name="Trazado 887067" d="M30.715,19,19,24.536V27.11H42.429V24.536Z" transform="translate(-1.78 -1.78)" fill="#bcbec0"/>
      <path id="Trazado_887068" data-name="Trazado 887068" d="M21,39H40.825v3.6H21Z" transform="translate(-1.977 -3.757)" fill="#bcbec0"/>
      <path id="Trazado_887069" data-name="Trazado 887069" d="M19,42H42.429v2.7H19Z" transform="translate(-1.78 -4.054)" fill="#d1d3d4"/>
      <circle id="Elipse_11789" data-name="Elipse 11789" cx="2" cy="2" r="2" transform="translate(27 20)" fill="#d1d3d4"/>
      <path id="Trazado_887070" data-name="Trazado 887070" d="M2,56H56.068v3.6a1.8,1.8,0,0,1-1.8,1.8H3.8A1.8,1.8,0,0,1,2,59.6Z" transform="translate(-0.099 -5.438)" fill="#a6a1ce"/>
      <path id="Trazado_887071" data-name="Trazado 887071" d="M27,56h9.011v.9a1.8,1.8,0,0,1-1.8,1.8H28.8A1.8,1.8,0,0,1,27,56.9Z" transform="translate(-2.571 -5.438)" fill="#f1f2f2"/>
      <g id="Grupo_1103847" data-name="Grupo 1103847" transform="translate(1 1)">
        <path id="Trazado_887072" data-name="Trazado 887072" d="M52.76,53.441H5.9a.9.9,0,0,1-.9-.9V23.7A2.7,2.7,0,0,1,7.7,21h15.9a.9.9,0,1,1,0,1.8H7.7a.9.9,0,0,0-.9.9V51.638H51.859V23.7a.9.9,0,0,0-.9-.9h-15.9a.9.9,0,1,1,0-1.8h15.9a2.7,2.7,0,0,1,2.7,2.7V52.54A.9.9,0,0,1,52.76,53.441Z" transform="translate(-1.395 -2.977)" fill="#231f20"/>
        <path id="Trazado_887073" data-name="Trazado 887073" d="M49.551,50.232H9.9a.9.9,0,0,1-.9-.9V25.9a.9.9,0,0,1,.9-.9h8.11a.9.9,0,1,1,0,1.8H10.8V48.429H48.65V26.8H41.441a.9.9,0,0,1,0-1.8h8.11a.9.9,0,0,1,.9.9V49.331A.9.9,0,0,1,49.551,50.232Z" transform="translate(-1.791 -3.373)" fill="#231f20"/>
        <path id="Trazado_887074" data-name="Trazado 887074" d="M54.167,62.209H3.7a2.7,2.7,0,0,1-2.7-2.7V55.9a.9.9,0,0,1,.9-.9H55.969a.9.9,0,0,1,.9.9v3.6A2.7,2.7,0,0,1,54.167,62.209ZM2.8,56.8v2.7a.9.9,0,0,0,.9.9H54.167a.9.9,0,0,0,.9-.9V56.8Z" transform="translate(-1 -6.339)" fill="#231f20"/>
        <path id="Trazado_887075" data-name="Trazado 887075" d="M34.11,59.506H28.7A2.7,2.7,0,0,1,26,56.8v-.9a.9.9,0,0,1,.9-.9h9.011a.9.9,0,0,1,.9.9v.9A2.7,2.7,0,0,1,34.11,59.506ZM27.8,56.8a.9.9,0,0,0,.9.9H34.11a.9.9,0,0,0,.9-.9Z" transform="translate(-3.472 -6.339)" fill="#231f20"/>
        <path id="Trazado_887076" data-name="Trazado 887076" d="M42.331,27.913H18.9a.9.9,0,0,1-.9-.9V24.437a.9.9,0,0,1,.516-.811l11.715-5.536a.9.9,0,0,1,.77,0l11.715,5.536a.9.9,0,0,1,.516.811v2.575A.9.9,0,0,1,42.331,27.913ZM19.8,26.111H41.429v-1.1L30.616,19.9,19.8,25.008Z" transform="translate(-2.681 -2.681)" fill="#231f20"/>
        <path id="Trazado_887077" data-name="Trazado 887077" d="M33.506,38.715H29.9a.9.9,0,0,1-.9-.9V27.9a.9.9,0,0,1,.9-.9h3.6a.9.9,0,0,1,.9.9v9.912A.9.9,0,0,1,33.506,38.715Zm-2.7-1.8h1.8V28.8H30.8Z" transform="translate(-3.768 -3.571)" fill="#231f20"/>
        <path id="Trazado_887078" data-name="Trazado 887078" d="M41.506,38.715H37.9a.9.9,0,0,1-.9-.9V27.9a.9.9,0,0,1,.9-.9h3.6a.9.9,0,0,1,.9.9v9.912A.9.9,0,0,1,41.506,38.715Zm-2.7-1.8h1.8V28.8H38.8Z" transform="translate(-4.559 -3.571)" fill="#231f20"/>
        <path id="Trazado_887079" data-name="Trazado 887079" d="M25.506,38.715H21.9a.9.9,0,0,1-.9-.9V27.9a.9.9,0,0,1,.9-.9h3.6a.9.9,0,0,1,.9.9v9.912A.9.9,0,0,1,25.506,38.715Zm-2.7-1.8h1.8V28.8H22.8Z" transform="translate(-2.977 -3.571)" fill="#231f20"/>
        <path id="Trazado_887080" data-name="Trazado 887080" d="M40.726,42.506H20.9a.9.9,0,0,1-.9-.9V38.9a.9.9,0,0,1,.9-.9H40.726a.9.9,0,0,1,.9.9v2.7A.9.9,0,0,1,40.726,42.506ZM21.8,40.7H39.825v-.9H21.8Z" transform="translate(-2.879 -4.658)" fill="#231f20"/>
        <path id="Trazado_887081" data-name="Trazado 887081" d="M42.331,45.506H18.9a.9.9,0,0,1-.9-.9V41.9a.9.9,0,0,1,.9-.9H42.331a.9.9,0,0,1,.9.9v2.7A.9.9,0,0,1,42.331,45.506ZM19.8,43.7H41.429v-.9H19.8Z" transform="translate(-2.681 -4.955)" fill="#231f20"/>
        <path id="Trazado_887082" data-name="Trazado 887082" d="M31.7,26.407a2.7,2.7,0,1,1,2.7-2.7A2.7,2.7,0,0,1,31.7,26.407Zm0-3.6a.9.9,0,1,0,.9.9A.9.9,0,0,0,31.7,22.8Z" transform="translate(-3.768 -2.977)" fill="#231f20"/>
        <path id="Trazado_887083" data-name="Trazado 887083" d="M44.287,20.825a.891.891,0,0,1-.226-.029.9.9,0,0,1-.648-1.1,13.51,13.51,0,0,0,.424-3.379,13.262,13.262,0,0,0-.987-5.064,13.517,13.517,0,0,0-25.057,0,13.257,13.257,0,0,0-.99,5.067,13.511,13.511,0,0,0,.423,3.379.9.9,0,0,1-1.745.451A15.351,15.351,0,0,1,15,16.32a15.056,15.056,0,0,1,1.122-5.749,15.319,15.319,0,0,1,28.4,0,15.061,15.061,0,0,1,1.12,5.747,15.351,15.351,0,0,1-.479,3.83A.9.9,0,0,1,44.287,20.825Z" transform="translate(-2.384 -1)" fill="#231f20"/>
        <path id="Trazado_887084" data-name="Trazado 887084" d="M37.32,20.825a.938.938,0,0,1-.1-.005.9.9,0,0,1-.8-.991,32.53,32.53,0,0,0,.193-3.509,29.971,29.971,0,0,0-.445-5.248C35.308,6.2,33.267,2.8,31.209,2.8s-4.1,3.4-4.962,8.267a30,30,0,0,0-.445,5.25A32.53,32.53,0,0,0,26,19.826a.9.9,0,1,1-1.792.2,34.341,34.341,0,0,1-.2-3.7,31.8,31.8,0,0,1,.473-5.565C25.539,4.738,28.12,1,31.209,1s5.67,3.738,6.736,9.756a31.77,31.77,0,0,1,.473,5.564,34.339,34.339,0,0,1-.2,3.7.9.9,0,0,1-.895.8Z" transform="translate(-3.274 -1)" fill="#231f20"/>
        <path id="Trazado_887085" data-name="Trazado 887085" d="M43.8,12.8H17.071a.9.9,0,1,1,0-1.8H43.8a.9.9,0,1,1,0,1.8Z" transform="translate(-2.5 -1.989)" fill="#231f20"/>
      </g>
    </g>
  </g>
</svg>
