<svg xmlns="http://www.w3.org/2000/svg" width="76.414" height="76.414" viewBox="0 0 76.414 76.414">
  <g id="Grupo_1103850" data-name="Grupo 1103850" transform="translate(6634.207 9656.707)">
    <g id="Grupo_1101761" data-name="Grupo 1101761" transform="translate(-6923.5 -12584)">
      <g id="Grupo_1101752" data-name="Grupo 1101752">
        <path id="Trazado_878240" data-name="Trazado 878240" d="M38.207,0A38.207,38.207,0,1,1,0,38.207,38.207,38.207,0,0,1,38.207,0Z" transform="translate(289.293 2927.293)" fill="#f0c52c"/>
      </g>
    </g>
    <g id="_16-mobile_payment" data-name="16-mobile payment" transform="translate(-6624.501 -9646)">
      <path id="Trazado_887086" data-name="Trazado 887086" d="M51.685,25.89,43,27.338v-5.47l7.8-1.3c1.645-.273,3.141.388,3.141,2.212S52.986,25.673,51.685,25.89Z" transform="translate(-3.094 -1.813)" fill="#ffc19e"/>
      <path id="Trazado_887087" data-name="Trazado 887087" d="M29.967,61.585,32.7,58.851s6.381-1.823,7.293-8.2L16.293,47,12.646,57.027,9,61.585Z" transform="translate(-0.088 -4.155)" fill="#ffc19e"/>
      <rect id="Rectángulo_404234" data-name="Rectángulo 404234" width="30.994" height="49.226" rx="4" transform="translate(13.47 0.912)" fill="#32addb"/>
      <path id="Trazado_887088" data-name="Trazado 887088" d="M34.781,6.47H25.451a3.646,3.646,0,0,1-3.46-2.493L21,1H39.232L38.24,3.976A3.646,3.646,0,0,1,34.78,6.47Z" transform="translate(-1.149 -0.088)" fill="#634653"/>
      <g id="Grupo_1103849" data-name="Grupo 1103849" transform="translate(9.544 23.701)">
        <path id="Trazado_887089" data-name="Trazado 887089" d="M20,54.259c4.558-10.027-3.646-15.5-3.646-15.5V29.646C16.354,26,10.885,26,10.885,26V40.585S7.238,49.7,12.708,55.171Z" transform="translate(-9.694 -26)" fill="#ffc19e"/>
        <path id="Trazado_887090" data-name="Trazado 887090" d="M49.524,29.236l-5.75,1.914a2.6,2.6,0,0,0,1.641,4.924l5.75-1.914a2.6,2.6,0,0,0-1.641-4.924Z" transform="translate(-12.55 -26.274)" fill="#ffc19e"/>
        <path id="Trazado_887091" data-name="Trazado 887091" d="M49.524,35.236l-5.75,1.914a2.6,2.6,0,0,0,1.641,4.924l5.75-1.914a2.6,2.6,0,0,0-1.641-4.924Z" transform="translate(-12.55 -26.805)" fill="#ffc19e"/>
        <path id="Trazado_887092" data-name="Trazado 887092" d="M49.524,41.236l-5.75,1.914a2.6,2.6,0,0,0,1.641,4.924l5.75-1.914a2.6,2.6,0,0,0-1.641-4.924Z" transform="translate(-12.55 -27.335)" fill="#ffc19e"/>
      </g>
      <path id="Trazado_887093" data-name="Trazado 887093" d="M23,39H37.585v5.47H23Z" transform="translate(-1.326 -3.448)" fill="#e6294f"/>
      <circle id="Elipse_11790" data-name="Elipse 11790" cx="8.204" cy="8.204" r="8.204" transform="translate(20.762 15.497)" fill="#fac437"/>
      <path id="Trazado_887094" data-name="Trazado 887094" d="M24.735,43.47a.912.912,0,1,0,0,1.823H37.5a.912.912,0,0,0,.912-.912v-5.47A.912.912,0,0,0,37.5,38H22.912a.912.912,0,0,0-.912.912v3.646a.912.912,0,1,0,1.823,0V39.823H36.585V43.47Z" transform="translate(-1.238 -3.36)"/>
      <path id="Trazado_887095" data-name="Trazado 887095" d="M30.116,34.232A9.116,9.116,0,1,0,21,25.116a9.116,9.116,0,0,0,9.116,9.116Zm0-16.409a7.293,7.293,0,1,1-7.293,7.293,7.293,7.293,0,0,1,7.293-7.293Z" transform="translate(-1.149 -1.415)"/>
      <path id="Trazado_887096" data-name="Trazado 887096" d="M27.912,28.116a.912.912,0,1,0,0,1.823h1.823v.912a.912.912,0,0,0,1.823,0v-.912a2.735,2.735,0,1,0,0-5.47V22.646h1.823a.912.912,0,1,0,0-1.823H31.558v-.912a.912.912,0,0,0-1.823,0v.912a2.735,2.735,0,0,0,0,5.47v1.823Zm.912-4.558a.974.974,0,0,1,.912-.912V24.47a.974.974,0,0,1-.912-.912Zm2.735,2.735a.912.912,0,1,1,0,1.823Z" transform="translate(-1.68 -1.68)"/>
      <path id="Trazado_887097" data-name="Trazado 887097" d="M25.735,13.823a.912.912,0,0,0,0-1.823H23.912a.912.912,0,1,0,0,1.823Z" transform="translate(-1.326 -1.061)"/>
      <path id="Trazado_887098" data-name="Trazado 887098" d="M37.2,13.823A.912.912,0,1,0,37.2,12H29.912a.912.912,0,1,0,0,1.823Z" transform="translate(-1.857 -1.061)"/>
      <path id="Trazado_887099" data-name="Trazado 887099" d="M25.912,4.823h5.47a.912.912,0,0,0,0-1.823h-5.47a.912.912,0,1,0,0,1.823Z" transform="translate(-1.503 -0.265)"/>
      <path id="Trazado_887100" data-name="Trazado 887100" d="M35,3h1.823V4.823H35Z" transform="translate(-2.387 -0.265)"/>
      <path id="Trazado_887101" data-name="Trazado 887101" d="M35.693,54.221a11,11,0,0,1-3.33,1.808.912.912,0,0,0-.395.232L29.5,58.729H10.813l2.461-3.077a.912.912,0,0,0-.067-1.214c-4.972-4.973-1.655-13.517-1.621-13.6a.906.906,0,0,0,.06-.337v-13.6c1.331.169,3.646.738,3.646,2.665v9.116a.912.912,0,0,0,.4.758c.308.208,7.5,5.187,3.325,14.362a.912.912,0,1,0,1.659.755c4.21-9.262-1.887-14.982-3.564-16.33v-8.66c0-3.605-4.174-4.558-6.381-4.558a.912.912,0,0,0-.912.912V40.328c-.485,1.307-3.177,9.321,1.532,14.8L8.2,59.071a.912.912,0,0,0,.712,1.481H29.878a.911.911,0,0,0,.644-.267L33.1,57.706a13,13,0,0,0,3.724-2.056.912.912,0,0,0-1.132-1.429Z" transform="translate(0 -2.21)"/>
      <path id="Trazado_887102" data-name="Trazado 887102" d="M51.287,29.124A3.507,3.507,0,0,0,46.672,25.8l-.855.284v-.547l3.365-.562c1.861-.307,3.016-1.844,3.016-4.007a3.018,3.018,0,0,0-1.035-2.412,3.829,3.829,0,0,0-3.167-.7l-2.18.365V4.558A4.563,4.563,0,0,0,41.259,0h-23.7A4.563,4.563,0,0,0,13,4.558V20.967a.912.912,0,1,0,1.823,0V4.558a2.735,2.735,0,0,1,2.735-2.735h2.078l.784,2.354a4.552,4.552,0,0,0,4.324,3.116h9.329A4.558,4.558,0,0,0,38.4,4.176l.784-2.352h2.078a2.735,2.735,0,0,1,2.735,2.735V26.69l-3.072,1.022a3.5,3.5,0,0,0-2.4,3.329,3.457,3.457,0,0,0,1.33,2.728,3.5,3.5,0,0,0-1.33,2.741,3.457,3.457,0,0,0,1.33,2.728,3.5,3.5,0,0,0,3.282,6.066l.858-.284v1.47a2.735,2.735,0,0,1-2.735,2.735H23.939a.912.912,0,0,0,0,1.823h17.32a4.563,4.563,0,0,0,4.558-4.558V44.413l3.071-1.021a3.5,3.5,0,0,0,2.4-3.329,3.457,3.457,0,0,0-1.33-2.728,3.5,3.5,0,0,0,1.33-2.741,3.457,3.457,0,0,0-1.33-2.728,3.494,3.494,0,0,0,1.33-2.74ZM36.669,3.6a2.735,2.735,0,0,1-2.6,1.87H24.744a2.735,2.735,0,0,1-2.6-1.87l-.591-1.777h15.7ZM48.3,19.655a2.117,2.117,0,0,1,1.689.29,1.256,1.256,0,0,1,.39,1.022c0,1.247-.547,2.053-1.492,2.212l-3.066.51V20.068Zm.016,16.535L42.563,38.1A1.683,1.683,0,1,1,41.5,34.914L47.248,33a1.721,1.721,0,0,1,.538-.091,1.684,1.684,0,0,1,.526,3.282ZM41.5,29.444l5.749-1.914a1.683,1.683,0,1,1,1.064,3.191l-5.749,1.914A1.683,1.683,0,1,1,41.5,29.444ZM48.312,41.66l-5.749,1.914A1.683,1.683,0,1,1,41.5,40.383l5.749-1.914a1.721,1.721,0,0,1,.538-.091,1.684,1.684,0,0,1,.526,3.282Z" transform="translate(-0.442)"/>
    </g>
  </g>
</svg>
