<svg xmlns="http://www.w3.org/2000/svg" width="76.414" height="76.414" viewBox="0 0 76.414 76.414">
  <g id="Grupo_1103851" data-name="Grupo 1103851" transform="translate(6319.707 9656.707)">
    <g id="Grupo_1101762" data-name="Grupo 1101762" transform="translate(-6609 -12584)">
      <g id="Grupo_1101752" data-name="Grupo 1101752">
        <path id="Trazado_878240" data-name="Trazado 878240" d="M38.207,0A38.207,38.207,0,1,1,0,38.207,38.207,38.207,0,0,1,38.207,0Z" transform="translate(289.293 2927.293)" fill="#f0c52c"/>
      </g>
    </g>
    <g id="Layer_32" data-name="Layer 32" transform="translate(-6307.245 -9641)">
      <path id="Trazado_887103" data-name="Trazado 887103" d="M35.614,57.033,34.856,54h-9.1L25,57.033Z" transform="translate(-5.32 -12.817)" fill="#565656"/>
      <path id="Trazado_887104" data-name="Trazado 887104" d="M7.033,14A3.033,3.033,0,0,0,4,17.033V41.294a3.033,3.033,0,0,0,3.033,3.033H43.425a3.033,3.033,0,0,0,3.033-3.033V17.033A3.033,3.033,0,0,0,43.425,14Z" transform="translate(-0.242 -3.144)" fill="#565656"/>
      <path id="Trazado_887105" data-name="Trazado 887105" d="M44.151,14H7.758a3.079,3.079,0,0,0-.357.036A3,3,0,0,0,7,15.516V39.778a3.033,3.033,0,0,0,3.033,3.033H46.425a3.078,3.078,0,0,0,.357-.036,3,3,0,0,0,.4-1.481V17.033A3.033,3.033,0,0,0,44.151,14Z" transform="translate(-0.967 -3.144)" fill="#636363"/>
      <path id="Trazado_887106" data-name="Trazado 887106" d="M8,39.229V18H44.392V39.229" transform="translate(-1.209 -4.111)" fill="#66c3e9"/>
      <path id="Trazado_887107" data-name="Trazado 887107" d="M11,18H45.118V39.229H11Z" transform="translate(-1.935 -4.111)" fill="#8adef9"/>
      <path id="Trazado_887108" data-name="Trazado 887108" d="M4,49.033a3.033,3.033,0,0,0,3.033,3.033H43.425a3.033,3.033,0,0,0,3.033-3.033V46H4Z" transform="translate(-0.242 -10.882)" fill="#3693cf"/>
      <path id="Trazado_887109" data-name="Trazado 887109" d="M7,47.516a3.033,3.033,0,0,0,3.033,3.033H46.425a3.078,3.078,0,0,0,.357-.036,3,3,0,0,0,.4-1.481V46H7Z" transform="translate(-0.967 -10.882)" fill="#43b6e5"/>
      <path id="Trazado_887110" data-name="Trazado 887110" d="M34.889,58H24.275A2.275,2.275,0,0,0,22,60.275v.758H37.163v-.758A2.275,2.275,0,0,0,34.889,58Z" transform="translate(-4.595 -13.784)" fill="#3693cf"/>
      <path id="Trazado_887111" data-name="Trazado 887111" d="M31,49h1.516v1.516H31Z" transform="translate(-6.771 -11.608)" fill="#fff"/>
      <path id="Trazado_887112" data-name="Trazado 887112" d="M35.373,58h-9.1A2.275,2.275,0,0,0,24,60.275v.758H37.647v-.758A2.275,2.275,0,0,0,35.373,58Z" transform="translate(-5.078 -13.784)" fill="#43b6e5"/>
      <path id="Trazado_887113" data-name="Trazado 887113" d="M8,35.36V5.033A3.033,3.033,0,0,1,11.033,2H41.36a3.033,3.033,0,0,1,3.033,3.033V35.36" transform="translate(-1.209 -0.242)" fill="#ccc"/>
      <path id="Trazado_887114" data-name="Trazado 887114" d="M45.118,5.033A3.033,3.033,0,0,0,42.085,2H11.758a3.013,3.013,0,0,0-.676.082A3.013,3.013,0,0,0,11,2.758V14.543A18.542,18.542,0,0,0,29.542,33.085H45.118Z" transform="translate(-1.935 -0.242)" fill="#f2f2f2"/>
      <path id="Trazado_887115" data-name="Trazado 887115" d="M44.392,5.033A3.033,3.033,0,0,0,41.36,2H11.033A3.033,3.033,0,0,0,8,5.033V6.549H44.392Z" transform="translate(-1.209 -0.242)" fill="#3693cf"/>
      <path id="Trazado_887116" data-name="Trazado 887116" d="M45.118,6.549V5.033A3.033,3.033,0,0,0,42.085,2H11.758a3.013,3.013,0,0,0-.676.082A3.013,3.013,0,0,0,11,2.758V6.549Z" transform="translate(-1.935 -0.242)" fill="#43b6e5"/>
      <ellipse id="Elipse_11791" data-name="Elipse 11791" cx="11" cy="11.5" rx="11" ry="11.5" transform="translate(14 9)" fill="#565656"/>
      <path id="Trazado_887117" data-name="Trazado 887117" d="M28.857,12a11.326,11.326,0,0,0-7.247,2.609A11.373,11.373,0,0,0,37.621,30.62,11.373,11.373,0,0,0,28.857,12Z" transform="translate(-3.87 -2.66)" fill="#636363"/>
      <path id="Trazado_887118" data-name="Trazado 887118" d="M39.809,38.6l2.419,2.419,3.791-3.791L43.6,34.809" transform="translate(-8.901 -8.176)" fill="#565656"/>
      <path id="Trazado_887119" data-name="Trazado 887119" d="M0,0H3.217V3.217H0Z" transform="translate(34.078 32.086) rotate(-45)" fill="#3693cf"/>
      <path id="Trazado_887120" data-name="Trazado 887120" d="M46,44.791,49.791,41l7.554,7.554a2.681,2.681,0,1,1-3.791,3.791Z" transform="translate(-10.398 -9.673)" fill="#565656"/>
      <path id="Trazado_887121" data-name="Trazado 887121" d="M50.033,41,47,44.033l6.8,6.8a2.67,2.67,0,0,0,4.454-1.137,2.672,2.672,0,0,0-.663-1.137Z" transform="translate(-10.64 -9.673)" fill="#636363"/>
      <ellipse id="Elipse_11792" data-name="Elipse 11792" cx="8" cy="8.5" rx="8" ry="8.5" transform="translate(17 12)" fill="#66c3e9"/>
      <path id="Trazado_887122" data-name="Trazado 887122" d="M27.824,18a8.294,8.294,0,0,0-5.084,1.739A8.33,8.33,0,0,0,34.424,31.424,8.33,8.33,0,0,0,27.824,18Z" transform="translate(-4.353 -4.111)" fill="#8adef9"/>
      <path id="Trazado_887123" data-name="Trazado 887123" d="M30,26h3.033v6.065H30Z" transform="translate(-6.529 -6.046)" fill="#fff"/>
      <ellipse id="Elipse_11793" data-name="Elipse 11793" cx="2" cy="1.5" rx="2" ry="1.5" transform="translate(23 15)" fill="#fff"/>
      <path id="Trazado_887124" data-name="Trazado 887124" d="M31,49h1.516v1.516H31Z" transform="translate(-6.771 -11.608)"/>
      <path id="Trazado_887125" data-name="Trazado 887125" d="M47.484,38.346l-.509-.509V13.889a3.8,3.8,0,0,0-3.033-3.715V4.791A3.8,3.8,0,0,0,40.151,1H9.824A3.8,3.8,0,0,0,6.033,4.791v5.383A3.8,3.8,0,0,0,3,13.889V38.151a3.8,3.8,0,0,0,3.791,3.791H19.468l-.394,1.578a3.037,3.037,0,0,0-2.426,2.971v.758a.758.758,0,0,0,.758.758H32.569a.758.758,0,0,0,.758-.758V46.49A3.037,3.037,0,0,0,30.9,43.519l-.394-1.578H41.353l1.268,1.268a3.439,3.439,0,1,0,4.863-4.863Zm-2.47-2.47h.444v.444ZM36.36,33.288l-1.2-1.2,1.2-1.2,1.2,1.2ZM24.987,31.327A10.614,10.614,0,1,1,35.6,20.713,10.614,10.614,0,0,1,24.987,31.327ZM34.8,27.811l1.242,1.242-2.719,2.719-1.242-1.242A12.235,12.235,0,0,0,34.8,27.811Zm4.052,2.98-.222.222-1.2-1.2.222-.222a.758.758,0,0,0,0-1.072L35.642,26.5a12.138,12.138,0,1,0-4.863,4.863l2.011,2.011a.758.758,0,0,0,1.072,0l.222-.222,1.2,1.2H7.549V7.065H42.425V33.288l-2.5-2.5A.758.758,0,0,0,38.856,30.791Zm6.6-16.9V34.36H43.941V11.754a2.275,2.275,0,0,1,1.516,2.135ZM9.824,2.516H40.151a2.275,2.275,0,0,1,2.275,2.275v.758H7.549V4.791A2.275,2.275,0,0,1,9.824,2.516ZM6.033,11.754V34.36H4.516V13.889a2.275,2.275,0,0,1,1.516-2.135ZM31.811,46.49H18.163a1.516,1.516,0,0,1,1.516-1.516H30.294A1.516,1.516,0,0,1,31.811,46.49Zm-2.487-3.033H20.65l.379-1.516h7.915ZM6.791,40.425a2.275,2.275,0,0,1-2.275-2.275V35.876H35.288l4.549,4.549ZM45.052,42.7a1.91,1.91,0,0,1-1.359-.563l-7.019-7.019L39.392,32.4l7.019,7.019A1.923,1.923,0,0,1,45.052,42.7Z" transform="translate(0)"/>
      <path id="Trazado_887126" data-name="Trazado 887126" d="M29.1,15a9.1,9.1,0,1,0,9.1,9.1A9.1,9.1,0,0,0,29.1,15Zm0,16.68A7.582,7.582,0,1,1,36.68,24.1,7.582,7.582,0,0,1,29.1,31.68Z" transform="translate(-4.111 -3.386)"/>
      <path id="Trazado_887127" data-name="Trazado 887127" d="M29,25.758v6.065a.758.758,0,0,0,.758.758h3.033a.758.758,0,0,0,.758-.758V25.758A.758.758,0,0,0,32.791,25H29.758A.758.758,0,0,0,29,25.758Zm1.516.758h1.516v4.549H30.516Z" transform="translate(-6.287 -5.804)"/>
      <path id="Trazado_887128" data-name="Trazado 887128" d="M33.549,21.275a2.275,2.275,0,1,0-2.275,2.275A2.275,2.275,0,0,0,33.549,21.275Zm-2.275.758a.758.758,0,1,1,.758-.758A.758.758,0,0,1,31.275,22.033Z" transform="translate(-6.287 -4.353)"/>
    </g>
  </g>
</svg>
