<svg xmlns="http://www.w3.org/2000/svg" xmlns:xlink="http://www.w3.org/1999/xlink" width="400" height="348" viewBox="0 0 400 348">
  <defs>
    <clipPath id="clip-path">
      <rect id="Rectángulo_404227" data-name="Rectángulo 404227" width="400" height="348" rx="15" transform="translate(597 1884)" fill="#fff"/>
    </clipPath>
  </defs>
  <g id="Enmascarar_grupo_1098763" data-name="Enmascarar grupo 1098763" transform="translate(-597 -1884)" clip-path="url(#clip-path)">
    <g id="Grupo_1103822" data-name="Grupo 1103822" transform="translate(593.7 1884)">
      <rect id="Rectángulo_404202" data-name="Rectángulo 404202" width="400" height="348" transform="translate(3.3 0)" fill="#321862" opacity="0.78"/>
      <g id="Grupo_1103821" data-name="Grupo 1103821" transform="translate(31.721 43.997)">
        <path id="Trazado_886833" data-name="Trazado 886833" d="M751.541,498.04s-17.076,36.078-34.421,60.982c-6.9,9.912-13.846,18.052-19.773,21.447-5.8,3.322-10.713,8.484-14.777,14.2-10.526,14.81-15.383,33.352-15.383,33.352l-44.354-70.869s1.513-69.275,6.839-80.862c7.762-16.887,11.511-51.006,14.493-57.8,2.212-5.039,8.529-31.068,9.135-32.981.263-.824,2.365-2.088,5.095-2.086,2.191,0,5.91,2.236,6.848,6.831,4.743,23.226-.966,38.546-.9,39.227,1.673,17.85-3.357,31.1.17,34.609.132.13.375.068.72-.164,6.115-4.147,44.065-62.58,48.739-63.842C718.907,398.76,751.541,498.04,751.541,498.04Z" transform="translate(-545.945 -359.043)" fill="#ffb27d"/>
        <path id="Trazado_886834" data-name="Trazado 886834" d="M420.163,1467.24s-.6,29.819-2.333,69.98H305.951c25.573-54.535,47.806-100.434,47.806-100.434S417.46,1438.732,420.163,1467.24Z" transform="translate(-282.974 -1233.538)" fill="#f99746"/>
        <path id="Trazado_886835" data-name="Trazado 886835" d="M1358.344,269.323l-13.735,20.136-13.478,19.76a3.085,3.085,0,0,1-2.8,1.237c-3.234-.307-7.236-4.972-10.354-7.555l-.317-.26a9.73,9.73,0,0,1-1.291-13.66l20.6-24.9v0l6.11-7.385a9.729,9.729,0,0,1,13.66-1.291l.316.26A9.732,9.732,0,0,1,1358.344,269.323Z" transform="translate(-1116.16 -252.028)" fill="#ffb27d"/>
        <path id="Trazado_886836" data-name="Trazado 886836" d="M1409.928,339.65l-13.478,19.76a3.085,3.085,0,0,1-2.8,1.237l8.638-46.376C1402.305,314.531,1403.774,335.339,1409.928,339.65Z" transform="translate(-1181.342 -302.219)" fill="#efa26f"/>
        <path id="Trazado_886837" data-name="Trazado 886837" d="M899.688,1296.648c-6.9,9.385-13.846,17.093-19.773,20.308-5.8,3.146-10.713,8.033-14.777,13.449-4.675-2.179-10-4.736-15.212-7.267a8.675,8.675,0,0,1-.374-15.426c.061-.032.12-.066.178-.1,5.821-3.331,11.786-15.092,11.786-15.092Z" transform="translate(-728.807 -1112.111)" fill="#efa26f"/>
        <path id="Trazado_886838" data-name="Trazado 886838" d="M775.374,400.224l-3.594,14.509s3.142,1.285,5.159.287S780.6,401.005,775.374,400.224Z" transform="translate(-667.938 -372.843)" fill="#ffc197"/>
        <g id="Grupo_1103797" data-name="Grupo 1103797" transform="translate(118.308)">
          <rect id="Rectángulo_404203" data-name="Rectángulo 404203" width="104.918" height="197.501" rx="52.459" fill="#2b478b"/>
          <g id="Grupo_1103796" data-name="Grupo 1103796" transform="translate(5.201 4.895)">
            <path id="Trazado_886839" data-name="Trazado 886839" d="M984.306,284.377V450.3a10.226,10.226,0,0,1-10.159,10.233h-74.2A10.225,10.225,0,0,1,889.789,450.3V284.377a10.225,10.225,0,0,1,10.157-10.233h74.2A10.226,10.226,0,0,1,984.306,284.377Z" transform="translate(-889.789 -274.144)" fill="#c0d8fb"/>
            <path id="Trazado_886840" data-name="Trazado 886840" d="M974.148,274.144l-73.284,186.39h-.918A10.225,10.225,0,0,1,889.789,450.3V284.377a10.225,10.225,0,0,1,10.157-10.233Z" transform="translate(-889.789 -274.144)" fill="#cbe1fd"/>
          </g>
          <path id="Rectángulo_404204" data-name="Rectángulo 404204" d="M4.954,0h30.29A4.954,4.954,0,0,1,40.2,4.954v0a4.954,4.954,0,0,1-4.954,4.954H4.954A4.954,4.954,0,0,1,0,4.954v0A4.954,4.954,0,0,1,4.954,0Z" transform="translate(32.36 1.157)" fill="#2b478b"/>
        </g>
        <g id="Grupo_1103798" data-name="Grupo 1103798" transform="translate(206.598 72.32)">
          <path id="Trazado_886841" data-name="Trazado 886841" d="M1391.238,683.984l-2.048.779L1375.417,690a8.771,8.771,0,0,1-.976.309,9.408,9.408,0,0,1-11.124-5.746l-.2-.529a9.409,9.409,0,0,1,5.437-12.1l12.841-4.879.933-.355,2.048-.778a9.406,9.406,0,0,1,12.1,5.437l.2.529A9.409,9.409,0,0,1,1391.238,683.984Z" transform="translate(-1362.506 -665.307)" fill="#ffb27d"/>
          <path id="Trazado_886842" data-name="Trazado 886842" d="M1397.262,719.642a54.941,54.941,0,0,1-8.686,2.737,3.667,3.667,0,0,1-2.873-1.438,8.49,8.49,0,0,1-1.732-3.124,9.936,9.936,0,0,1-.471-1.994,8.429,8.429,0,0,1,.076-2.372,2.368,2.368,0,0,1,1.314-1.692s.008,0,.01-.005a54.3,54.3,0,0,1,8.354-3.275,3.629,3.629,0,0,1,4.5,2.012l.289.79,1.478,4.048A3.468,3.468,0,0,1,1397.262,719.642Z" transform="translate(-1379.715 -700.65)" fill="#ffd3b6"/>
          <path id="Trazado_886843" data-name="Trazado 886843" d="M1403.758,730.079a54.948,54.948,0,0,1-8.686,2.737,3.668,3.668,0,0,1-2.873-1.438c-.116-.269-.221-.554-.323-.859a9.936,9.936,0,0,1-.471-1.994,8.42,8.42,0,0,1,.075-2.372,2.368,2.368,0,0,1,1.314-1.692s.008,0,.01-.005a54.314,54.314,0,0,1,8.354-3.275,3.96,3.96,0,0,1,3.381.536l1.478,4.048A3.468,3.468,0,0,1,1403.758,730.079Z" transform="translate(-1386.211 -711.086)" fill="#ffc197"/>
        </g>
        <g id="Grupo_1103799" data-name="Grupo 1103799" transform="translate(210.544 96.525)">
          <path id="Trazado_886844" data-name="Trazado 886844" d="M1402.748,818.017l-10.621,2.892a6.1,6.1,0,0,1-7.466-4.27l-.327-1.2a6.1,6.1,0,0,1,4.271-7.466l10.621-2.892a6.1,6.1,0,0,1,7.466,4.27l.327,1.2A6.1,6.1,0,0,1,1402.748,818.017Z" transform="translate(-1384.12 -804.866)" fill="#ffb27d"/>
          <path id="Trazado_886845" data-name="Trazado 886845" d="M1405.657,834.728a47.891,47.891,0,0,1-7.326,1.541c-.672.038-2.019-.531-2.9-2.3a8.031,8.031,0,0,1-.78-3.059,6.081,6.081,0,0,1,.237-1.818,1.882,1.882,0,0,1,1.2-1.213c.005,0,.008,0,.01-.005a47.445,47.445,0,0,1,7.095-1.979,3.006,3.006,0,0,1,3.545,1.835l.274.957.818,2.873A2.694,2.694,0,0,1,1405.657,834.728Z" transform="translate(-1392.773 -822.098)" fill="#ffd3b6"/>
          <path id="Trazado_886846" data-name="Trazado 886846" d="M1408.267,842.08a47.909,47.909,0,0,1-7.327,1.541c-.672.038-2.019-.531-2.9-2.3a6.781,6.781,0,0,1-.214-1.465,6.1,6.1,0,0,1,.237-1.818,1.888,1.888,0,0,1,1.2-1.214c.005,0,.008,0,.01-.005a47.15,47.15,0,0,1,7.095-1.976,3.207,3.207,0,0,1,3.253,1.2l.818,2.873A2.694,2.694,0,0,1,1408.267,842.08Z" transform="translate(-1395.383 -829.449)" fill="#ffc197"/>
        </g>
        <path id="Trazado_886847" data-name="Trazado 886847" d="M512.935,1425.635s21.863,20.939,36.6,29.024l11.159-7.915v11.676s21.945,3.881,28.868,0v-31.84l-61.639-30.9Z" transform="translate(-454.621 -1199.764)" fill="#ed7d2b"/>
        <path id="Trazado_886848" data-name="Trazado 886848" d="M556.984,1371.12c-8.491,1.741-26.792-4.929-26.792-4.929l2.952-28.51-20.68,23.684c-10.524-3.916-26.984-14.136-36.763-20.5-4.869-3.168-8.083-5.377-8.083-5.377,13.8-22.207,27.682-42.977,27.682-42.977,4.074,8.151,13.718,15.229,24.172,20.89,17.372,9.41,36.981,14.907,36.981,14.907C556.447,1345.255,556.984,1371.12,556.984,1371.12Z" transform="translate(-417.242 -1115.539)" fill="#dceaff"/>
        <g id="Grupo_1103800" data-name="Grupo 1103800" transform="translate(205.549 47.986)">
          <path id="Trazado_886849" data-name="Trazado 886849" d="M1386.124,547.954c-.075.028-.151.053-.229.078l-13.925,3.575c-6.123,1.574-12.455-1.74-14.071-7.362l-.828-2.88c-1.553-5.4,1.785-11.042,7.475-12.873l4.6-1.181,9.328-2.394c6.123-1.574,12.455,1.74,14.071,7.362l.828,2.88C1394.9,540.484,1391.673,546.046,1386.124,547.954Z" transform="translate(-1356.69 -524.526)" fill="#ffb27d"/>
          <path id="Trazado_886850" data-name="Trazado 886850" d="M1425.765,569.055,1419,572.1l-.043.01a7.269,7.269,0,0,1-.818.169c-.113.018-.229.03-.342.043a.915.915,0,0,1-.143,0,1.076,1.076,0,0,1-.934-1.521,6.729,6.729,0,0,0,.383-4.587l-.161-.589a.048.048,0,0,0-.005-.018l-.524-1.921a7.2,7.2,0,0,0-2.452-3.739c-.138-.113-.282-.219-.428-.32a1.944,1.944,0,0,1,.569-3.459l.043-.013,7.425-1.123a3.534,3.534,0,0,1,4.1,2.749l.6,2.188,1.269,4.665C1428.036,566.479,1427.6,568.557,1425.765,569.055Z" transform="translate(-1402.712 -549.514)" fill="#ffd3b6"/>
          <path id="Trazado_886851" data-name="Trazado 886851" d="M1431.563,582.973l-6.765,3.049-.043.01c-.158.03-.655.113-1.3.214a1.076,1.076,0,0,1-.934-1.521,6.728,6.728,0,0,0,.383-4.587l-.161-.589a.047.047,0,0,0-.005-.018l-.523-1.921a7.2,7.2,0,0,0-2.452-3.739,1.887,1.887,0,0,1,1.065-.758c.013,0,.028-.007.043-.013l7.424-1.123a3.376,3.376,0,0,1,3.776,1.916l1.269,4.665C1433.834,580.4,1433.4,582.475,1431.563,582.973Z" transform="translate(-1408.51 -563.432)" fill="#ffc197"/>
        </g>
        <path id="Trazado_886852" data-name="Trazado 886852" d="M818.839,705.368S815.8,678.849,813,673.679s-5.174-15.528-.862-23.223,5.8-22.5,5.8-22.5c1.673,16.9-3.357,29.447.17,32.769.132.123.375.065.72-.155Z" transform="translate(-699.308 -562.559)" fill="#efa26f"/>
        <rect id="Rectángulo_404205" data-name="Rectángulo 404205" width="118.765" height="55.517" rx="27.758" transform="translate(75.191 47.08)" fill="#699dee"/>
        <g id="Grupo_1103801" data-name="Grupo 1103801" transform="translate(140.184 20.744)">
          <rect id="Rectángulo_404206" data-name="Rectángulo 404206" width="52.389" height="18.927" rx="9.463" fill="#9abff6"/>
        </g>
        <g id="Grupo_1103802" data-name="Grupo 1103802" transform="translate(131.088 150.262)">
          <path id="Rectángulo_404207" data-name="Rectángulo 404207" d="M11.675,0H49.219A11.675,11.675,0,0,1,60.894,11.675v0A11.675,11.675,0,0,1,49.219,23.349H11.675A11.675,11.675,0,0,1,0,11.675v0A11.675,11.675,0,0,1,11.675,0Z" fill="#9abff6"/>
        </g>
        <g id="Grupo_1103803" data-name="Grupo 1103803" transform="translate(150.415 108.287)">
          <path id="Rectángulo_404208" data-name="Rectángulo 404208" d="M16.758,0H44.136A16.758,16.758,0,0,1,60.894,16.758v0A16.758,16.758,0,0,1,44.136,33.516H16.758A16.758,16.758,0,0,1,0,16.758v0A16.758,16.758,0,0,1,16.758,0Z" fill="#f99746"/>
        </g>
        <path id="Trazado_886853" data-name="Trazado 886853" d="M1430.923,1103.606h-82.05c-3.934-2.638-24.367-16.575-32.823-26.966-1.791-2.2-8.345-21.178-13.381-36.586-3.144-9.623-5.7-17.859-6.13-19.748a24.573,24.573,0,0,1-.311-3.727v-.018c-.214-6.3.078-18.452.38-28.1l0-.045.005-.127c.014-.424.027-.842.041-1.256v-.014c0-.041,0-.084,0-.125.056-1.676.109-3.257.159-4.694.127-3.592.234-6.294.279-7.351l.018-.492,0,0c.13-.073,4.077-2.179,9.352,1.621,1.274.918,2.45,3.137,3.524,6.032.687,1.848,1.331,3.97,1.93,6.206,2.3,8.6,3.958,18.885,4.84,21.639,1.423,4.45,18.2,24.018,19.247,25.234.016.021.034.041.05.061v-30.9L1323.4,970.357l-5.2-13.911-2.613-6.991a126.077,126.077,0,0,1-7.369-14.494,68.414,68.414,0,0,1-3.654-10.717c-.2-.842-.369-1.675-.5-2.49v0a18.073,18.073,0,0,1,.159-8.015c1.225-4.018,3.986-4.774,6.107-4.692.219.007.432.027.636.05a4.327,4.327,0,0,1,.61.118,4.25,4.25,0,0,1,1.054.439s0,0,.005,0a4.274,4.274,0,0,1,1.377,1.288s1.791,2.338,4.193,5.481c1.58,2.069,3.426,4.485,5.2,6.815,3.157,4.15,6.089,8.022,6.895,9.156,4.357,6.133,16.089,26.12,16.089,26.12l13.733.576a9.109,9.109,0,0,1,5.837,2.443c4.883,4.56,15.411,14.428,16.7,15.9,0,.481,8.182,4.415,14.5,7.919,4.521,1.91,13.109,8.68,13.109,8.68a15.141,15.141,0,0,1,3.822,4.63c2.945,6.408,10.931,62.139,14.749,89.69C1430.064,1097.2,1430.861,1103.147,1430.923,1103.606Z" transform="translate(-1103.581 -799.912)" fill="#ffb27d"/>
        <path id="Trazado_886854" data-name="Trazado 886854" d="M1577.781,1186.445s12.722,20.767,14.406,21.7,8.232,2.245,8.98,0S1577.781,1186.445,1577.781,1186.445Z" transform="translate(-1333.46 -1024.051)" fill="#efa26f"/>
        <path id="Trazado_886855" data-name="Trazado 886855" d="M1809.57,1310.023l-.064-.057s-8.588-6.77-13.108-8.68c-5.8-3.217-13.173-6.8-14.341-7.733,1.347,1.54,10.821,12.262,14.467,13.066C1799.725,1307.324,1807,1309.313,1809.57,1310.023Z" transform="translate(-1502.823 -1112.523)" fill="#efa26f"/>
        <path id="Trazado_886856" data-name="Trazado 886856" d="M1519.918,1473.758v-30.9s7.341,12.281,7.9,19.016S1524.771,1479.507,1519.918,1473.758Z" transform="translate(-1285.448 -1236.378)" fill="#efa26f"/>
        <path id="Trazado_886857" data-name="Trazado 886857" d="M1353.254,921.312a55.519,55.519,0,0,1-3.656-7.045,3.523,3.523,0,0,1,.485-2.709,6.116,6.116,0,0,1,1.926-2,6.39,6.39,0,0,1,1.352-.729,5.252,5.252,0,0,1,1.73-.319,1.836,1.836,0,0,1,1.478.859s0,.006.005.008a53.814,53.814,0,0,1,3.982,6.671c.759,1.58.52,3.405-.586,4.207l-.516.378-2.644,1.93C1355.712,923.363,1354.128,922.817,1353.254,921.312Z" transform="translate(-1144.83 -794.04)" fill="#ffd3b6"/>
        <path id="Trazado_886858" data-name="Trazado 886858" d="M1353.254,928.6a55.527,55.527,0,0,1-3.656-7.045,3.524,3.524,0,0,1,.485-2.709c.172-.144.358-.281.559-.417a6.387,6.387,0,0,1,1.352-.729,5.249,5.249,0,0,1,1.731-.319,1.835,1.835,0,0,1,1.478.859s0,.006.006.008a53.815,53.815,0,0,1,3.982,6.671,4.061,4.061,0,0,1,.265,3l-2.644,1.93C1355.712,930.654,1354.128,930.109,1353.254,928.6Z" transform="translate(-1144.812 -801.36)" fill="#ffc197"/>
        <g id="Grupo_1103805" data-name="Grupo 1103805" transform="translate(252.072 21.006)">
          <path id="Rectángulo_404209" data-name="Rectángulo 404209" d="M15.31,0h3.032A15.311,15.311,0,0,1,33.653,15.311v0a15.31,15.31,0,0,1-15.31,15.31H15.31A15.31,15.31,0,0,1,0,15.311v0A15.31,15.31,0,0,1,15.31,0Z" fill="#dfebfd"/>
          <g id="Grupo_1103804" data-name="Grupo 1103804" transform="translate(7.553 8.45)">
            <path id="Trazado_886859" data-name="Trazado 886859" d="M1672.437,418.465c.935,2.464,8.948,8.934,8.948,8.934s2.612-2.122,5.031-4.407c1.81-1.691,3.5-3.473,3.9-4.526a4.751,4.751,0,0,0-3.562-6.544c-3.487-.594-5.372,3.057-5.372,3.057s-1.885-3.651-5.387-3.057a4.764,4.764,0,0,0-1.6.564A4.891,4.891,0,0,0,1672.437,418.465Z" transform="translate(-1672.106 -411.856)" fill="#f99746"/>
          </g>
        </g>
        <g id="Grupo_1103806" data-name="Grupo 1103806" transform="translate(0 126.919)">
          <path id="Trazado_886860" data-name="Trazado 886860" d="M185.023,983.336H236.55a7.49,7.49,0,0,1,7.468,7.468v22.606a6.88,6.88,0,0,1-6.86,6.859h-1.324l2.483,10.485-15.586-10.485H184.579a7.484,7.484,0,0,1-7.462-7.462V991.242A7.93,7.93,0,0,1,185.023,983.336Z" transform="translate(-177.117 -983.336)" fill="#dfebfd"/>
          <path id="Trazado_886861" data-name="Trazado 886861" d="M207.566,1063.081h53.727a1.334,1.334,0,0,0,1.33-1.331h0a1.334,1.334,0,0,0-1.33-1.331H207.566a1.334,1.334,0,0,0-1.33,1.331h0A1.335,1.335,0,0,0,207.566,1063.081Z" transform="translate(-201.043 -1046.672)" fill="#cbe1fd"/>
          <path id="Trazado_886862" data-name="Trazado 886862" d="M207.566,1096.475h53.727a1.334,1.334,0,0,0,1.33-1.331h0a1.334,1.334,0,0,0-1.33-1.33H207.566a1.334,1.334,0,0,0-1.33,1.33h0A1.335,1.335,0,0,0,207.566,1096.475Z" transform="translate(-201.043 -1074.111)" fill="#cbe1fd"/>
          <path id="Trazado_886863" data-name="Trazado 886863" d="M207.566,1129.868h53.727a1.334,1.334,0,0,0,1.33-1.331h0a1.334,1.334,0,0,0-1.33-1.33H207.566a1.334,1.334,0,0,0-1.33,1.33h0A1.334,1.334,0,0,0,207.566,1129.868Z" transform="translate(-201.043 -1101.548)" fill="#cbe1fd"/>
          <path id="Trazado_886864" data-name="Trazado 886864" d="M370.523,1008.881h22.808a1.589,1.589,0,0,0,1.584-1.584h0a1.588,1.588,0,0,0-1.584-1.584H370.523a1.589,1.589,0,0,0-1.584,1.584h0A1.589,1.589,0,0,0,370.523,1008.881Z" transform="translate(-334.728 -1001.722)" fill="#cbe1fd"/>
          <path id="Rectángulo_404210" data-name="Rectángulo 404210" d="M1.584,0h13.06a1.584,1.584,0,0,1,1.584,1.584v0a1.584,1.584,0,0,1-1.584,1.584H1.584A1.584,1.584,0,0,1,0,1.584v0A1.584,1.584,0,0,1,1.584,0Z" transform="translate(31.17 7.159) rotate(180)" fill="#cbe1fd"/>
        </g>
        <g id="Grupo_1103807" data-name="Grupo 1103807" transform="translate(240.192 122.938)">
          <path id="Trazado_886865" data-name="Trazado 886865" d="M1673.144,1009.267l32.408,10.6-19.413-18.921-1.971,4.623-8.342.041Z" transform="translate(-1653.526 -993.355)" fill="#9ec3f6"/>
          <path id="Trazado_886866" data-name="Trazado 886866" d="M1615.173,990.6l-25.152-19.134-26.873-6.138Z" transform="translate(-1563.147 -964.095)" fill="#fff"/>
          <path id="Trazado_886867" data-name="Trazado 886867" d="M1746.01,965.991l19.413,18.921-12.94-26.507Z" transform="translate(-1713.397 -958.405)" fill="#fff"/>
        </g>
        <g id="Grupo_1103808" data-name="Grupo 1103808" transform="translate(45.412 5.015)">
          <path id="Trazado_886868" data-name="Trazado 886868" d="M462.039,327.437l-30.292,4.321,20.1-13.7,1.022,4.392,7.367,1.334Z" transform="translate(-431.747 -310.344)" fill="#9ec3f6"/>
          <path id="Trazado_886869" data-name="Trazado 886869" d="M431.747,329.28l25.208-13,24.707-1.243Z" transform="translate(-431.747 -307.866)" fill="#fff"/>
          <path id="Trazado_886870" data-name="Trazado 886870" d="M451.849,282.525l-20.1,13.7,15.562-21.414Z" transform="translate(-431.747 -274.813)" fill="#fff"/>
        </g>
        <path id="Trazado_886871" data-name="Trazado 886871" d="M709.707,573.171A17.209,17.209,0,1,1,692.5,555.962,17.122,17.122,0,0,1,709.707,573.171Z" transform="translate(-588.462 -502.59)" fill="#fff"/>
        <path id="Trazado_886872" data-name="Trazado 886872" d="M738.826,615.165q-.07-.078-.134-.144a2.4,2.4,0,0,0-1.191-.383c-.4-.068-.967-.148-1.764-.251,0,0-.171-.02-.262-.027l-.2-.018c-.228-.12-.287-1.067-.285-2.065,0-.075,0-.15,0-.225,0-.378.016-.751.03-1.086,0-.021,0-.041,0-.062.492.041.819.037.819.037.917-.073,1.489-2.531,1.694-4.518a6.7,6.7,0,0,0,.453-2.268,2.931,2.931,0,0,0-.588-1.9,2.528,2.528,0,0,0-.644-.578c-.057-.057-.116-.109-.173-.159-.853-.947-4.32-4.5-6.6-2.443-.059-.205-.8-2.509-4.387-1.755.223-.023,1.814-.173,2.274.471a2.943,2.943,0,0,0-2.327-.105,2.118,2.118,0,0,0-.8,1.3s0,.007,0,.011,0,.005,0,.009v0a.051.051,0,0,0,0,.016c-.016.073-.034.146-.05.219,0,.011-.005.021-.007.034s0,.005,0,.009v0a3.736,3.736,0,0,0-.043,1.359c.134.562,1.124,2.235,1.78,2.235a1.96,1.96,0,0,0,.749-.184,8.316,8.316,0,0,0-.268.974c-.7,3.28,1.482,5.771,2.611,5.154.724-.394,1.272.872,1.272.872l0-.005c-.107,2.4-.765,3.965-1.254,4.355-.175.02-.553.066-1.026.141v0a11.9,11.9,0,0,0-2.93.733l-.03.012a3.018,3.018,0,0,0-.719.4s0,.005-.005.005v0a1.05,1.05,0,0,0-.232.241.6.6,0,0,0-.075.109,19.661,19.661,0,0,0-1.257,3.437,14.595,14.595,0,0,0,18.15-.569A9.128,9.128,0,0,0,738.826,615.165Z" transform="translate(-627.959 -536.621)" fill="#2b478b"/>
        <rect id="Rectángulo_404211" data-name="Rectángulo 404211" width="22.013" height="3.052" rx="1.526" transform="translate(130.893 58.881)" fill="#fff"/>
        <g id="Grupo_1103809" data-name="Grupo 1103809" transform="translate(130.573 70.507)">
          <path id="Trazado_886873" data-name="Trazado 886873" d="M948.453,656.2H928.43a1,1,0,0,1-.995-.995h0a1,1,0,0,1,.995-.995h20.023a1,1,0,0,1,.995.995h0A1,1,0,0,1,948.453,656.2Z" transform="translate(-927.435 -654.208)" fill="#fff"/>
          <path id="Rectángulo_404212" data-name="Rectángulo 404212" d="M1,0H11.921a.995.995,0,0,1,.995.995V1a.995.995,0,0,1-.995.995H.995A.995.995,0,0,1,0,1V1A1,1,0,0,1,1,0Z" transform="translate(0 4.71)" fill="#fff"/>
          <rect id="Rectángulo_404213" data-name="Rectángulo 404213" width="20.32" height="1.99" rx="0.995" transform="translate(16.007 4.71)" fill="#fff"/>
          <path id="Trazado_886874" data-name="Trazado 886874" d="M1096.659,656.2h-26.254a1,1,0,0,1-.995-.995h0a1,1,0,0,1,.995-.995h26.254a1,1,0,0,1,.995.995h0A1,1,0,0,1,1096.659,656.2Z" transform="translate(-1044.089 -654.208)" fill="#fff"/>
          <path id="Trazado_886875" data-name="Trazado 886875" d="M948.453,709.012H928.43a1,1,0,0,1-.995-.995h0a1,1,0,0,1,.995-.995h20.023a1,1,0,0,1,.995.995h0A1,1,0,0,1,948.453,709.012Z" transform="translate(-927.435 -697.603)" fill="#fff"/>
          <path id="Trazado_886876" data-name="Trazado 886876" d="M1096.659,709.012h-26.254a1,1,0,0,1-.995-.995h0a1,1,0,0,1,.995-.995h26.254a1,1,0,0,1,.995.995h0A1,1,0,0,1,1096.659,709.012Z" transform="translate(-1044.089 -697.603)" fill="#fff"/>
        </g>
        <path id="Rectángulo_404214" data-name="Rectángulo 404214" d="M1.526,0h13.1a1.526,1.526,0,0,1,1.526,1.526v0a1.526,1.526,0,0,1-1.526,1.526H1.526A1.526,1.526,0,0,1,0,1.526v0A1.526,1.526,0,0,1,1.526,0Z" transform="translate(155.154 58.881)" fill="#fff"/>
        <g id="Grupo_1103811" data-name="Grupo 1103811" transform="translate(137.928 154.735)">
          <path id="Rectángulo_404215" data-name="Rectángulo 404215" d="M1.085,0h13.48A1.085,1.085,0,0,1,15.65,1.085v0A1.085,1.085,0,0,1,14.565,2.17H1.085A1.085,1.085,0,0,1,0,1.085v0A1.085,1.085,0,0,1,1.085,0Z" transform="translate(0)" fill="#699dee"/>
          <g id="Grupo_1103810" data-name="Grupo 1103810" transform="translate(0 6.311)">
            <path id="Trazado_886877" data-name="Trazado 886877" d="M983.64,1178.107H969.4a.71.71,0,0,1-.708-.708h0a.709.709,0,0,1,.708-.707H983.64a.709.709,0,0,1,.707.707h0A.709.709,0,0,1,983.64,1178.107Z" transform="translate(-968.697 -1176.692)" fill="#699dee"/>
            <path id="Rectángulo_404216" data-name="Rectángulo 404216" d="M.707,0H8.475a.707.707,0,0,1,.707.707v0a.707.707,0,0,1-.707.707H.707A.707.707,0,0,1,0,.707v0A.707.707,0,0,1,.707,0Z" transform="translate(0 3.348)" fill="#699dee"/>
            <path id="Rectángulo_404217" data-name="Rectángulo 404217" d="M.707,0H13.739a.707.707,0,0,1,.707.707v0a.707.707,0,0,1-.707.707H.707A.707.707,0,0,1,0,.707v0A.707.707,0,0,1,.707,0Z" transform="translate(11.38 3.348)" fill="#699dee"/>
            <path id="Trazado_886878" data-name="Trazado 886878" d="M1089.009,1178.107h-18.665a.71.71,0,0,1-.708-.708h0a.709.709,0,0,1,.708-.707h18.665a.709.709,0,0,1,.707.707h0A.71.71,0,0,1,1089.009,1178.107Z" transform="translate(-1051.634 -1176.692)" fill="#699dee"/>
            <path id="Trazado_886879" data-name="Trazado 886879" d="M983.64,1215.655H969.4a.709.709,0,0,1-.708-.707h0a.71.71,0,0,1,.708-.708H983.64a.709.709,0,0,1,.707.708h0A.709.709,0,0,1,983.64,1215.655Z" transform="translate(-968.697 -1207.543)" fill="#699dee"/>
            <path id="Trazado_886880" data-name="Trazado 886880" d="M1089.009,1215.655h-18.665a.709.709,0,0,1-.708-.707h0a.71.71,0,0,1,.708-.708h18.665a.71.71,0,0,1,.707.708h0A.709.709,0,0,1,1089.009,1215.655Z" transform="translate(-1051.634 -1207.543)" fill="#699dee"/>
          </g>
          <path id="Rectángulo_404218" data-name="Rectángulo 404218" d="M1.085,0H10.4a1.085,1.085,0,0,1,1.085,1.085v0A1.085,1.085,0,0,1,10.4,2.17H1.085A1.085,1.085,0,0,1,0,1.085v0A1.085,1.085,0,0,1,1.085,0Z" transform="translate(17.589)" fill="#699dee"/>
        </g>
        <g id="Grupo_1103813" data-name="Grupo 1103813" transform="translate(146.935 24.394)">
          <path id="Rectángulo_404219" data-name="Rectángulo 404219" d="M1.085,0h13.48A1.085,1.085,0,0,1,15.65,1.085v0A1.085,1.085,0,0,1,14.565,2.17H1.085A1.085,1.085,0,0,1,0,1.085v0A1.085,1.085,0,0,1,1.085,0Z" transform="translate(0)" fill="#699dee"/>
          <g id="Grupo_1103812" data-name="Grupo 1103812" transform="translate(0 6.311)">
            <path id="Trazado_886881" data-name="Trazado 886881" d="M1035.336,420.28H1021.1a.709.709,0,0,1-.707-.707h0a.709.709,0,0,1,.707-.708h14.236a.709.709,0,0,1,.707.708h0A.709.709,0,0,1,1035.336,420.28Z" transform="translate(-1020.393 -418.865)" fill="#699dee"/>
            <rect id="Rectángulo_404220" data-name="Rectángulo 404220" width="9.183" height="1.415" rx="0.707" transform="translate(0 3.348)" fill="#699dee"/>
            <rect id="Rectángulo_404221" data-name="Rectángulo 404221" width="14.446" height="1.415" rx="0.707" transform="translate(11.38 3.348)" fill="#699dee"/>
            <path id="Trazado_886882" data-name="Trazado 886882" d="M1140.7,420.28h-18.665a.71.71,0,0,1-.708-.707h0a.71.71,0,0,1,.708-.708H1140.7a.71.71,0,0,1,.707.708h0A.71.71,0,0,1,1140.7,420.28Z" transform="translate(-1103.329 -418.865)" fill="#699dee"/>
          </g>
          <path id="Rectángulo_404222" data-name="Rectángulo 404222" d="M1.085,0H10.4a1.085,1.085,0,0,1,1.085,1.085v0A1.085,1.085,0,0,1,10.4,2.17H1.085A1.085,1.085,0,0,1,0,1.085v0A1.085,1.085,0,0,1,1.085,0Z" transform="translate(17.589)" fill="#699dee"/>
        </g>
        <g id="Grupo_1103816" data-name="Grupo 1103816" transform="translate(157.524 114.412)">
          <rect id="Rectángulo_404223" data-name="Rectángulo 404223" width="17.134" height="2.376" rx="1.188" transform="translate(0)" fill="#ed7d2b"/>
          <g id="Grupo_1103814" data-name="Grupo 1103814" transform="translate(0 6.91)">
            <path id="Trazado_886883" data-name="Trazado 886883" d="M1097.779,948.83h-15.585a.777.777,0,0,1-.775-.774h0a.777.777,0,0,1,.775-.774h15.585a.777.777,0,0,1,.774.774h0A.777.777,0,0,1,1097.779,948.83Z" transform="translate(-1081.42 -947.281)" fill="#ed7d2b"/>
            <path id="Rectángulo_404224" data-name="Rectángulo 404224" d="M.774,0h8.5a.774.774,0,0,1,.774.774v0a.775.775,0,0,1-.775.775H.775A.775.775,0,0,1,0,.774v0A.774.774,0,0,1,.774,0Z" transform="translate(0 3.666)" fill="#ed7d2b"/>
            <path id="Rectángulo_404225" data-name="Rectángulo 404225" d="M.774,0H15.042a.775.775,0,0,1,.775.775v0a.774.774,0,0,1-.774.774H.774A.774.774,0,0,1,0,.775v0A.774.774,0,0,1,.774,0Z" transform="translate(12.459 3.666)" fill="#ed7d2b"/>
            <path id="Trazado_886884" data-name="Trazado 886884" d="M1213.137,948.83H1192.7a.777.777,0,0,1-.775-.774h0a.777.777,0,0,1,.775-.774h20.435a.777.777,0,0,1,.774.774h0A.777.777,0,0,1,1213.137,948.83Z" transform="translate(-1172.219 -947.281)" fill="#ed7d2b"/>
            <path id="Trazado_886885" data-name="Trazado 886885" d="M1097.779,989.938h-15.585a.777.777,0,0,1-.775-.774h0a.777.777,0,0,1,.775-.775h15.585a.777.777,0,0,1,.774.775h0A.777.777,0,0,1,1097.779,989.938Z" transform="translate(-1081.42 -981.057)" fill="#ed7d2b"/>
            <path id="Trazado_886886" data-name="Trazado 886886" d="M1213.137,989.938H1192.7a.777.777,0,0,1-.775-.774h0a.777.777,0,0,1,.775-.775h20.435a.777.777,0,0,1,.774.775h0A.777.777,0,0,1,1213.137,989.938Z" transform="translate(-1172.219 -981.057)" fill="#ed7d2b"/>
          </g>
          <g id="Grupo_1103815" data-name="Grupo 1103815" transform="translate(0 18.057)">
            <path id="Trazado_886887" data-name="Trazado 886887" d="M1097.779,1011.334h-15.585a.777.777,0,0,1-.775-.774h0a.777.777,0,0,1,.775-.775h15.585a.777.777,0,0,1,.774.775h0A.777.777,0,0,1,1097.779,1011.334Z" transform="translate(-1081.42 -1009.785)" fill="#ed7d2b"/>
            <path id="Trazado_886888" data-name="Trazado 886888" d="M1213.137,1011.334H1192.7a.777.777,0,0,1-.775-.774h0a.777.777,0,0,1,.775-.775h20.435a.777.777,0,0,1,.774.775h0A.777.777,0,0,1,1213.137,1011.334Z" transform="translate(-1172.219 -1009.785)" fill="#ed7d2b"/>
          </g>
          <path id="Rectángulo_404226" data-name="Rectángulo 404226" d="M1.188,0h10.2a1.188,1.188,0,0,1,1.188,1.188v0a1.188,1.188,0,0,1-1.188,1.188H1.188A1.188,1.188,0,0,1,0,1.188v0A1.188,1.188,0,0,1,1.188,0Z" transform="translate(19.256)" fill="#ed7d2b"/>
        </g>
        <g id="Grupo_1103820" data-name="Grupo 1103820" transform="translate(132.061 9.368)">
          <path id="Trazado_886889" data-name="Trazado 886889" d="M960.251,329.842l-1.057.759-1.063-.751a1.3,1.3,0,0,1,2.12-.008Z" transform="translate(-953.75 -323.935)" fill="#fff"/>
          <g id="Grupo_1103817" data-name="Grupo 1103817" transform="translate(2.871 3.515)">
            <path id="Trazado_886890" data-name="Trazado 886890" d="M952.24,318.93a3.141,3.141,0,0,0-2.572,1.338l.671.471a2.325,2.325,0,0,1,3.792-.014l.669-.48A3.146,3.146,0,0,0,952.24,318.93Z" transform="translate(-949.668 -318.93)" fill="#fff"/>
          </g>
          <g id="Grupo_1103818" data-name="Grupo 1103818">
            <path id="Trazado_886891" data-name="Trazado 886891" d="M939.011,299.22a6.649,6.649,0,0,0-5.443,2.829l.672.471a5.834,5.834,0,0,1,9.518-.036l.665-.48A6.646,6.646,0,0,0,939.011,299.22Z" transform="translate(-933.568 -299.22)" fill="#fff"/>
          </g>
          <g id="Grupo_1103819" data-name="Grupo 1103819" transform="translate(1.562 1.924)">
            <path id="Trazado_886892" data-name="Trazado 886892" d="M946.209,310.01a4.757,4.757,0,0,0-3.881,2l.671.471a3.945,3.945,0,0,1,6.4-.025l.665-.476A4.753,4.753,0,0,0,946.209,310.01Z" transform="translate(-942.328 -310.01)" fill="#fff"/>
          </g>
        </g>
        <path id="Trazado_886893" data-name="Trazado 886893" d="M930.8,929.247a6.758,6.758,0,0,0,10.632,5.539c.056-.038.11-.078.164-.118a6.759,6.759,0,1,0-10.8-5.421Z" transform="translate(-799.246 -805.59)" fill="#fff"/>
        <path id="Trazado_886894" data-name="Trazado 886894" d="M952.6,943.255l-.622-.551c-.052.011-.1.02-.155.029a4.254,4.254,0,0,0-.364-.227c.041-.251.075-.485.1-.692a11.148,11.148,0,0,0,.105-1.229c.33-.016.553-.052.553-.052.624-.144.655-2.276.51-3.387a.8.8,0,0,0,.348-.066c.473-.209.5-.924.5-.924a.836.836,0,0,1-.339.337s.79-1.083-.127-1.823-1.846-.257-2.377-.225c-1.166.071-1.921.141-2.3.908a4.255,4.255,0,0,0,.492,3.6c.012.071.025.141.034.212a1.427,1.427,0,0,0,.285.68,4.767,4.767,0,0,1-.863,2.008,3.121,3.121,0,0,0-.621.669l-.013.009.005,0a6.765,6.765,0,0,0-.872,1.914s0,.007,0,.011a6.413,6.413,0,0,0,1.232.678l.086.036.019.007c.046.02.095.037.141.055.114.045.228.086.344.123s.244.075.367.107c.057.014.114.029.171.041s.1.023.152.032l.021.005.1.02c.078.014.159.029.239.041l.056.007c.045.007.087.013.132.018l.187.021c.07.007.141.013.212.016s.134.009.2.011.141,0,.212,0,.152,0,.228,0a.073.073,0,0,0,.02,0c.018,0,.037,0,.056,0q.056,0,.112-.005a.04.04,0,0,1,.014,0c.071,0,.141-.009.212-.016a6.714,6.714,0,0,0,2.547-.77A7.1,7.1,0,0,0,952.6,943.255Z" transform="translate(-812.46 -815.3)" fill="#699dee"/>
        <path id="Trazado_886895" data-name="Trazado 886895" d="M1302.885,1149.309a6.8,6.8,0,1,0,6.8-6.8A6.77,6.77,0,0,0,1302.885,1149.309Z" transform="translate(-1106.384 -987.548)" fill="#fff"/>
        <path id="Trazado_886896" data-name="Trazado 886896" d="M1324.254,1162.508a.232.232,0,0,0-.034-.052.539.539,0,0,0-.109-.112l0,0a1.364,1.364,0,0,0-.335-.187l-.014-.005a5.485,5.485,0,0,0-1.366-.342c-.221-.034-.4-.055-.478-.064a3.246,3.246,0,0,1-.585-2.031l0,0s.255-.592.592-.407c.526.287,1.542-.876,1.218-2.4a4.2,4.2,0,0,0-.125-.453.944.944,0,0,0,.35.086c.305,0,.767-.781.829-1.043s-.005-1.123-.424-1.379a1.378,1.378,0,0,0-1.084.048c.209-.292.922-.234,1.052-.219-1.666-.346-2.01.722-2.038.819-1.06-.958-2.677.7-3.075,1.14-.027.023-.053.048-.08.075a1.147,1.147,0,0,0-.3.268,1.367,1.367,0,0,0-.275.885,3.134,3.134,0,0,0,.21,1.058c.1.926.364,2.072.792,2.106,0,0,.151,0,.38-.018,0,.011,0,.02,0,.03.007.155.012.33.014.5v.105c0,.465-.027.908-.132.963l-.093.009c-.043,0-.123.013-.123.013-.371.048-.635.086-.822.118a1.085,1.085,0,0,0-.555.178.77.77,0,0,0-.064.068,4.241,4.241,0,0,0-1.2,1.58,6.806,6.806,0,0,0,8.463.266A9.106,9.106,0,0,0,1324.254,1162.508Z" transform="translate(-1117.455 -996.919)" fill="#f99746"/>
        <path id="Trazado_886897" data-name="Trazado 886897" d="M1302.885,382.443a6.8,6.8,0,1,0,6.8-6.8A6.771,6.771,0,0,0,1302.885,382.443Z" transform="translate(-1106.384 -352.642)" fill="#fff"/>
        <path id="Trazado_886898" data-name="Trazado 886898" d="M1324.254,395.638a.282.282,0,0,0-.034-.052.538.538,0,0,0-.109-.112l0,0a1.5,1.5,0,0,0-.335-.187l-.014-.005a5.574,5.574,0,0,0-1.366-.342v0c-.221-.036-.4-.057-.478-.066a.763.763,0,0,1-.173-.223v0a4.241,4.241,0,0,1-.412-1.807l0,0s.255-.59.592-.407c.526.287,1.542-.874,1.218-2.4a4.133,4.133,0,0,0-.125-.455.941.941,0,0,0,.35.086c.305,0,.767-.781.829-1.042s-.005-1.125-.424-1.38a1.375,1.375,0,0,0-1.084.05c.209-.293.924-.234,1.052-.221-1.666-.346-2.01.724-2.038.819-1.06-.956-2.677.7-3.075,1.14-.027.023-.053.048-.08.075a1.16,1.16,0,0,0-.3.269,1.36,1.36,0,0,0-.275.883,3.121,3.121,0,0,0,.21,1.058c.1.927.364,2.072.792,2.106,0,0,.151,0,.38-.016,0,.009,0,.018,0,.029.007.155.012.33.014.507v.105c0,.465-.027.906-.132.963l-.093.007-.123.012c-.371.048-.635.086-.822.118a1.1,1.1,0,0,0-.555.178c-.021.021-.043.045-.064.068a4.252,4.252,0,0,0-1.2,1.582q.1.083.2.16l.034.027c.05.039.1.077.152.112.036.029.071.055.109.08s.075.052.112.075c.053.039.109.075.166.109.037.025.075.048.114.071s.094.057.143.084.107.061.16.089l.014.007.009.005h0l.023.012c.043.023.085.045.128.066a.018.018,0,0,1,.009,0l.039.02c.023.012.048.025.073.036l.071.034c.053.025.111.05.166.073l.168.068.077.03c.025.009.05.02.077.029.052.02.105.037.157.055s.109.036.164.054l.139.043.014,0c.029.009.059.018.089.025.162.045.328.084.5.116.073.014.146.029.219.039.02,0,.038.007.057.009l.012,0a.011.011,0,0,1,.007,0c.048.007.093.012.143.018a.178.178,0,0,0,.03,0l.021,0c.045.007.089.011.132.014l.023,0,.041.005c.08.007.159.012.239.016h.012c.025,0,.048,0,.075,0l.047,0c.078,0,.157.005.235.005a6.765,6.765,0,0,0,4.064-1.348A9.157,9.157,0,0,0,1324.254,395.638Z" transform="translate(-1117.455 -361.982)" fill="#f99746"/>
        <path id="Trazado_886899" data-name="Trazado 886899" d="M1419.709,1694.489l-24.51,12.689h-16.317c-3.934-2.638-24.367-16.575-32.823-26.966-1.791-2.2-8.345-21.178-13.381-36.586v-.007c.669,2.045,14.724,31.981,18.726,35.384s25.015,23.213,30.818,23.012c5.622-.193,35.548-7.08,37.4-7.507C1419.654,1694.5,1419.681,1694.5,1419.709,1694.489Z" transform="translate(-1133.59 -1403.485)" fill="#efa26f"/>
        <path id="Trazado_886900" data-name="Trazado 886900" d="M1690.092,1921.433h-88.363a355.1,355.1,0,0,1,38.963-12.67c.029-.005.055-.012.084-.02,15.1-3.818,30.635-6.133,39.074-2.661l.061.091Z" transform="translate(-1354.656 -1617.739)" fill="#d2e3fc"/>
        <path id="Trazado_886901" data-name="Trazado 886901" d="M1297,1343.467a.007.007,0,0,0,.006,0c1.489-.546,3.58-.906,4.6.793,1.583,2.643-4.3,25.963-5.033,28.9Z" transform="translate(-1101.066 -1153.716)" fill="#efa26f"/>
        <path id="Trazado_886902" data-name="Trazado 886902" d="M1299.212,1275.254l-.505,14.105s2.966.483,4.652-.776S1304.152,1275.089,1299.212,1275.254Z" transform="translate(-1102.831 -1097.345)" fill="#ffc197"/>
        <path id="Trazado_886903" data-name="Trazado 886903" d="M594.222,1467.363c-8.491,1.741-26.792-4.929-26.792-4.929l2.952-28.51-20.68,23.684c-10.524-3.916-26.984-14.136-36.763-20.5,25.06-2.732,43.771-27.464,43.771-27.464,17.372,9.41,36.981,14.907,36.981,14.907C593.686,1441.5,594.222,1467.363,594.222,1467.363Z" transform="translate(-454.652 -1211.725)" fill="#cbe1fd"/>
        <path id="Trazado_886904" data-name="Trazado 886904" d="M641.985,1572.35a3.442,3.442,0,1,1,3.41,3.474A3.442,3.442,0,0,1,641.985,1572.35Z" transform="translate(-560.808 -1340.063)" fill="#f99746"/>
      </g>
    </g>
  </g>
</svg>
