<svg xmlns="http://www.w3.org/2000/svg" width="93.474" height="84.739" viewBox="0 0 93.474 84.739">
  <g id="Grupo_1103824" data-name="Grupo 1103824" transform="translate(-180 -642)">
    <rect id="Rect치ngulo_400902" data-name="Rect치ngulo 400902" width="93.474" height="18.123" rx="9.062" transform="translate(180 697.349)" fill="#f0c518"/>
    <rect id="Rect치ngulo_400903" data-name="Rect치ngulo 400903" width="70.843" height="80.33" rx="11" transform="translate(191.315 642)" fill="#00ffdf" opacity="0.69"/>
    <g id="programador_10_" data-name="programador (10)" transform="translate(187.126 648.305)">
      <g id="Grupo_1099574" data-name="Grupo 1099574" transform="translate(14.611 1.149)">
        <g id="Grupo_1099573" data-name="Grupo 1099573">
          <g id="Grupo_1099571" data-name="Grupo 1099571" transform="translate(6.687)">
            <path id="Trazado_875215" data-name="Trazado 875215" d="M179.782,24.186v5.135H147.074V24.186A16.724,16.724,0,0,1,163.834,7.5c4.628,0,7.8,2.186,10.836,5.2A16.056,16.056,0,0,1,179.782,24.186Z" transform="translate(-145.744 -7.5)" fill="#3a1d71"/>
            <path id="Trazado_875216" data-name="Trazado 875216" d="M272.76,24.186v4.722l-1.725.349-1.911-3.295V24.874C269.123,11.323,256,7.5,256,7.5a16.722,16.722,0,0,1,16.76,16.686Z" transform="translate(-237.91 -7.5)" fill="#1f0a48"/>
            <path id="Trazado_875217" data-name="Trazado 875217" d="M223.85,267.147V255.782H209.559v11.365Z" transform="translate(-198.615 -217.748)" fill="#ffbf9d"/>
            <path id="Trazado_875218" data-name="Trazado 875218" d="M171.62,128.017h-30.2a2.983,2.983,0,0,0-2.99,2.977,7.5,7.5,0,0,0,7.515,7.482h21.149a7.5,7.5,0,0,0,7.515-7.482A2.983,2.983,0,0,0,171.62,128.017Z" transform="translate(-138.43 -109.555)" fill="#ffbf9d"/>
            <path id="Trazado_875219" data-name="Trazado 875219" d="M194.126,107.972l-5.149,4.485a5.542,5.542,0,0,1-3.64,1.362h-3a5.542,5.542,0,0,1-3.64-1.362l-5.149-4.485a8.239,8.239,0,0,1-2.832-6.212V89.191a2.393,2.393,0,0,0,2.259-1.594l1.317-3.737a2.543,2.543,0,0,1,3.393-1.489l.005,0a15.738,15.738,0,0,0,12.3,0,2.543,2.543,0,0,1,3.394,1.489L194.7,87.6a2.393,2.393,0,0,0,2.259,1.594V101.76A8.238,8.238,0,0,1,194.126,107.972Z" transform="translate(-165.746 -70.729)" fill="#ffbf9d"/>
          </g>
          <g id="Grupo_1099572" data-name="Grupo 1099572" transform="translate(0 47.084)">
            <path id="Trazado_875220" data-name="Trazado 875220" d="M150.551,342.367l.2-24.356a2.726,2.726,0,0,0-2.732-2.72l-3.6-.438H107.37a2.726,2.726,0,0,0-2.732,2.72v24.794h45.913Z" transform="translate(-103.15 -314.853)" fill="#bed9fd"/>
            <path id="Trazado_875221" data-name="Trazado 875221" d="M142.9,478.583l-4.48-.324H96.1a1.132,1.132,0,0,0-1.134,1.129h0a2.9,2.9,0,0,0,2.9,2.891H137.73l3.555-.476c1.6,0,2.748-.494,2.748-2.09A1.132,1.132,0,0,0,142.9,478.583Z" transform="translate(-94.967 -453.227)" fill="#bed9fd"/>
            <path id="Trazado_875222" data-name="Trazado 875222" d="M364.237,314.854h-4.614a2.726,2.726,0,0,1,2.732,2.72v24.794h4.614V317.574A2.726,2.726,0,0,0,364.237,314.854Z" transform="translate(-318.902 -314.854)" fill="#97c3fc"/>
            <path id="Trazado_875223" data-name="Trazado 875223" d="M376.69,478.259h-4.967v3a1.026,1.026,0,0,1-1.028,1.024h4.227a2.9,2.9,0,0,0,2.9-2.891h0A1.132,1.132,0,0,0,376.69,478.259Z" transform="translate(-328.271 -453.227)" fill="#97c3fc"/>
          </g>
        </g>
      </g>
      <g id="Grupo_1099575" data-name="Grupo 1099575" transform="translate(0 0)">
        <path id="Trazado_875230" data-name="Trazado 875230" d="M189.423,363.345a1.158,1.158,0,0,0-1.632,0l-3.9,3.883a1.145,1.145,0,0,0,0,1.625l3.9,3.883a1.152,1.152,0,1,0,1.632-1.625l-3.084-3.07,3.084-3.07A1.146,1.146,0,0,0,189.423,363.345Z" transform="translate(-155.312 -307.399)"/>
        <path id="Trazado_875231" data-name="Trazado 875231" d="M288.437,372.736a1.158,1.158,0,0,0,1.632,0l3.9-3.883a1.145,1.145,0,0,0,0-1.625l-3.9-3.883a1.158,1.158,0,0,0-1.632,0,1.145,1.145,0,0,0,0,1.625l3.084,3.07-3.084,3.07A1.146,1.146,0,0,0,288.437,372.736Z" transform="translate(-243.773 -307.399)"/>
        <path id="Trazado_875232" data-name="Trazado 875232" d="M238.255,368.756A1.154,1.154,0,0,0,239.34,368l3.507-9.672a1.153,1.153,0,0,0-2.171-.78l-3.507,9.672a1.152,1.152,0,0,0,1.085,1.539Z" transform="translate(-200.621 -302.129)"/>
        <path id="Trazado_875233" data-name="Trazado 875233" d="M137.772,72.258V50.937a3.883,3.883,0,0,0-3.887-3.871H121.619V41.677l1.365-1.19a1.145,1.145,0,0,0,.108-1.621,1.157,1.157,0,0,0-1.628-.108L117.7,42.038a4.388,4.388,0,0,1-2.882,1.078h-3.006a4.387,4.387,0,0,1-2.882-1.078l-5.151-4.488a7.1,7.1,0,0,1-2.44-5.352V20.58a3.563,3.563,0,0,0,.9-.46,3.505,3.505,0,0,0,1.3-1.714l1.319-3.739a1.37,1.37,0,0,1,.75-.807,1.391,1.391,0,0,1,1.145.011,16.986,16.986,0,0,0,13.176-.016,1.388,1.388,0,0,1,1.856.813l1.317,3.738a3.549,3.549,0,0,0,2.2,2.172V32.2a7.022,7.022,0,0,1-.61,2.874,1.153,1.153,0,0,0,2.11.931A9.3,9.3,0,0,0,127.6,32.2V30.411a8.579,8.579,0,0,0,4.97-7.81,4.108,4.108,0,0,0-1.331-3.026V17.845A17.939,17.939,0,0,0,103.165,3.138a1.151,1.151,0,1,0,1.309,1.893,15.61,15.61,0,0,1,24.457,12.815V18.5a4.192,4.192,0,0,0-.507-.032h-1.982a1.243,1.243,0,0,1-1.168-.827l-1.318-3.739a3.7,3.7,0,0,0-4.937-2.165,14.655,14.655,0,0,1-11.4,0,3.7,3.7,0,0,0-4.942,2.165l-1.319,3.74a1.221,1.221,0,0,1-.452.6,1.242,1.242,0,0,1-.715.228H98.207a4.193,4.193,0,0,0-.507.032v-.659a15.362,15.362,0,0,1,3.144-9.357,1.146,1.146,0,0,0-.226-1.609A1.158,1.158,0,0,0,99,7.1a17.636,17.636,0,0,0-3.61,10.742v1.728A4.108,4.108,0,0,0,94.062,22.6a8.578,8.578,0,0,0,4.97,7.81V32.2a9.393,9.393,0,0,0,3.228,7.081l2.753,2.4v5.389h-3.688a1.149,1.149,0,1,0,0,2.3h32.562a1.578,1.578,0,0,1,1.579,1.573V72.113h-8.472a1.149,1.149,0,1,0,0,2.3l9.961,0a1.749,1.749,0,0,1-1.751,1.728H91.429a1.745,1.745,0,0,1-1.239-.512,1.722,1.722,0,0,1-.512-1.213h31.929a1.149,1.149,0,1,0,0-2.3H91.167V50.937a1.578,1.578,0,0,1,1.579-1.573h3.193a1.149,1.149,0,1,0,0-2.3H92.746a3.883,3.883,0,0,0-3.887,3.871V72.26a2.282,2.282,0,0,0-1.489,2.133,4,4,0,0,0,1.189,2.857,4.042,4.042,0,0,0,2.87,1.184H135.2a4.055,4.055,0,0,0,4.059-4.041,2.275,2.275,0,0,0-1.489-2.134ZM130.262,22.6a6.289,6.289,0,0,1-2.662,5.159V20.771h.824a1.836,1.836,0,0,1,1.838,1.83Zm-33.893,0a1.835,1.835,0,0,1,1.837-1.829h.824v6.989A6.29,6.29,0,0,1,96.37,22.6ZM107.32,43.688l.091.079a6.7,6.7,0,0,0,4.4,1.646h3.006a6.7,6.7,0,0,0,4.4-1.646l.09-.079v3.378H107.32V43.688Z" transform="translate(-73.928 0)"/>
        <path id="Trazado_875234" data-name="Trazado 875234" d="M436.157,236.06v-2.921a3.639,3.639,0,0,0-7.278,0v2.921a3.639,3.639,0,0,0,7.278,0Zm-2.308,0a1.331,1.331,0,0,1-2.662,0v-2.921a1.331,1.331,0,0,1,2.662,0Z" transform="translate(-362.892 -194.355)" fill="#97c3fc"/>
        <path id="Trazado_875235" data-name="Trazado 875235" d="M394.214,239.683a1.151,1.151,0,0,0,1.154-1.149v-7.87a1.154,1.154,0,0,0-2.308,0v7.87A1.151,1.151,0,0,0,394.214,239.683Z" transform="translate(-332.584 -194.355)" fill="#97c3fc"/>
        <path id="Trazado_875236" data-name="Trazado 875236" d="M468.337,311.416a3.635,3.635,0,0,0-3.639,3.623v2.921a3.639,3.639,0,0,0,7.278,0v-2.921A3.635,3.635,0,0,0,468.337,311.416Zm1.331,6.545a1.331,1.331,0,0,1-2.662,0v-2.921a1.331,1.331,0,0,1,2.662,0Z" transform="translate(-393.199 -263.71)" fill="#97c3fc"/>
        <path id="Trazado_875237" data-name="Trazado 875237" d="M430.032,311.416a1.151,1.151,0,0,0-1.154,1.149v7.87a1.154,1.154,0,0,0,2.308,0v-7.87A1.151,1.151,0,0,0,430.032,311.416Z" transform="translate(-362.891 -263.71)" fill="#97c3fc"/>
        <path id="Trazado_875238" data-name="Trazado 875238" d="M498.154,229.515A1.151,1.151,0,0,0,497,230.664v7.87a1.154,1.154,0,0,0,2.308,0v-7.87A1.151,1.151,0,0,0,498.154,229.515Z" transform="translate(-420.531 -194.355)" fill="#97c3fc"/>
        <path id="Trazado_875239" data-name="Trazado 875239" d="M39.458,229.515a3.635,3.635,0,0,0-3.639,3.623v2.921a3.639,3.639,0,0,0,7.278,0v-2.921A3.635,3.635,0,0,0,39.458,229.515Zm1.331,6.545a1.331,1.331,0,0,1-2.662,0v-2.921a1.331,1.331,0,0,1,2.662,0Z" transform="translate(-30.308 -194.355)" fill="#97c3fc"/>
        <path id="Trazado_875240" data-name="Trazado 875240" d="M105.094,239.683a1.151,1.151,0,0,0,1.154-1.149v-7.87a1.154,1.154,0,0,0-2.308,0v7.87A1.152,1.152,0,0,0,105.094,239.683Z" transform="translate(-87.948 -194.355)" fill="#97c3fc"/>
        <path id="Trazado_875241" data-name="Trazado 875241" d="M3.639,311.416A3.635,3.635,0,0,0,0,315.039v2.921a3.639,3.639,0,0,0,7.278,0v-2.921A3.635,3.635,0,0,0,3.639,311.416Zm1.331,6.545a1.331,1.331,0,0,1-2.662,0v-2.921a1.331,1.331,0,0,1,2.662,0v2.921Z" transform="translate(0 -263.71)" fill="#97c3fc"/>
        <path id="Trazado_875242" data-name="Trazado 875242" d="M69.276,311.416a1.151,1.151,0,0,0-1.154,1.149v7.87a1.154,1.154,0,0,0,2.308,0v-7.87A1.151,1.151,0,0,0,69.276,311.416Z" transform="translate(-57.641 -263.71)" fill="#97c3fc"/>
        <path id="Trazado_875243" data-name="Trazado 875243" d="M1.154,239.683a1.151,1.151,0,0,0,1.154-1.149v-7.87a1.154,1.154,0,0,0-2.308,0v7.87A1.151,1.151,0,0,0,1.154,239.683Z" transform="translate(0 -194.355)" fill="#97c3fc"/>
      </g>
    </g>
  </g>
</svg>
