<svg xmlns="http://www.w3.org/2000/svg" width="596" height="373.057" viewBox="0 0 596 373.057">
  <g id="Grupo_1104031" data-name="Grupo 1104031" transform="translate(-502 -432)">
    <path id="Trazado_887491" data-name="Trazado 887491" d="M2,0H175a2,2,0,0,1,2,2V57a2,2,0,0,1-2,2H2a2,2,0,0,1-2-2V2A2,2,0,0,1,2,0Z" transform="translate(502 432)" fill="#3a1d71"/>
    <path id="Agency_provides_a_fu" data-name="Agency provides a fu" d="M5.2,9.75A4.681,4.681,0,0,1,5,11.328a3.921,3.921,0,0,1-.977,1.148,16.391,16.391,0,0,0-1.105,1.414,2.082,2.082,0,0,0-.324,1.172,1.741,1.741,0,0,0,.438,1.273,1.7,1.7,0,0,0,1.266.445A1.924,1.924,0,0,0,5.5,16.395a1.345,1.345,0,0,0,.5-1.137H7.477L7.5,15.3a2.448,2.448,0,0,1-.895,2.016,3.486,3.486,0,0,1-2.309.758A3.393,3.393,0,0,1,1.9,17.293,2.839,2.839,0,0,1,1.055,15.1,3.254,3.254,0,0,1,1.6,13.277a10.524,10.524,0,0,1,1.461-1.723,1.847,1.847,0,0,0,.508-.75A4.285,4.285,0,0,0,3.664,9.75ZM3.609,6.539H5.219V8.172H3.609Zm14.484,3.789a5.436,5.436,0,0,1-.262,1.7,4.781,4.781,0,0,1-.746,1.434l1.7,1.648-1.055,1.008-1.734-1.664a4.36,4.36,0,0,1-1.187.531,5.012,5.012,0,0,1-1.359.18,4.167,4.167,0,0,1-3.238-1.375,4.959,4.959,0,0,1-1.246-3.461V8.3a4.977,4.977,0,0,1,1.246-3.461,4.156,4.156,0,0,1,3.238-1.383A4.39,4.39,0,0,1,16.8,4.84,4.867,4.867,0,0,1,18.094,8.3ZM16.555,8.289a3.837,3.837,0,0,0-.844-2.562,2.813,2.813,0,0,0-2.266-1,2.606,2.606,0,0,0-2.145,1,3.972,3.972,0,0,0-.8,2.563v2.039a4,4,0,0,0,.8,2.578,2.606,2.606,0,0,0,2.145,1,2.815,2.815,0,0,0,2.27-1,3.869,3.869,0,0,0,.84-2.582Zm9.156,5.461A2.863,2.863,0,0,1,24.688,14.8a2.8,2.8,0,0,1-1.445.367,2.716,2.716,0,0,1-2.156-.883,4.1,4.1,0,0,1-.773-2.75V6.547h1.539v5a3.147,3.147,0,0,0,.4,1.859,1.481,1.481,0,0,0,1.242.508,2.531,2.531,0,0,0,1.355-.332,2.077,2.077,0,0,0,.809-.941V6.547H27.2V15H25.813Zm7.227,1.414A3.576,3.576,0,0,1,30.1,14a4.48,4.48,0,0,1-1.02-3.062v-.344a4.386,4.386,0,0,1,1.051-3.012A3.3,3.3,0,0,1,32.7,6.391a3.067,3.067,0,0,1,2.543,1.055,4.345,4.345,0,0,1,.848,2.8v.813H30.68l-.023.039a3.494,3.494,0,0,0,.563,2.066,1.965,1.965,0,0,0,1.719.793,3.872,3.872,0,0,0,1.371-.223,3.061,3.061,0,0,0,1.012-.613l.6,1a3.7,3.7,0,0,1-1.2.738A4.762,4.762,0,0,1,32.938,15.164ZM32.7,7.6a1.673,1.673,0,0,0-1.332.621,2.938,2.938,0,0,0-.645,1.59l.016.039h3.813V9.727A2.462,2.462,0,0,0,34.094,8.2,1.638,1.638,0,0,0,32.7,7.6ZM46.7,12.727a1.026,1.026,0,0,0-.387-.828,3.732,3.732,0,0,0-1.465-.562,6.146,6.146,0,0,1-2.293-.9,1.814,1.814,0,0,1-.8-1.547,2.229,2.229,0,0,1,.879-1.766,3.879,3.879,0,0,1,4.605.047,2.239,2.239,0,0,1,.852,1.82l-.016.047H46.609a1.331,1.331,0,0,0-.48-.992A1.717,1.717,0,0,0,44.914,7.6a1.751,1.751,0,0,0-1.215.367,1.146,1.146,0,0,0-.4.875.927.927,0,0,0,.348.773,3.848,3.848,0,0,0,1.434.5,6.058,6.058,0,0,1,2.359.93,1.872,1.872,0,0,1,.8,1.57,2.226,2.226,0,0,1-.91,1.836,3.754,3.754,0,0,1-2.379.711,3.715,3.715,0,0,1-2.547-.82,2.341,2.341,0,0,1-.883-1.914l.016-.047h1.469a1.424,1.424,0,0,0,.609,1.2,2.358,2.358,0,0,0,1.336.379,2.1,2.1,0,0,0,1.285-.348A1.063,1.063,0,0,0,46.7,12.727ZM49.8,10.7a4.654,4.654,0,0,1,1.016-3.09,3.764,3.764,0,0,1,5.535,0,4.639,4.639,0,0,1,1.02,3.094v.172a4.631,4.631,0,0,1-1.016,3.094,3.781,3.781,0,0,1-5.535,0,4.623,4.623,0,0,1-1.02-3.09Zm1.539.172a4.009,4.009,0,0,0,.566,2.219,2.046,2.046,0,0,0,3.355,0,3.988,3.988,0,0,0,.57-2.219V10.7a3.976,3.976,0,0,0-.574-2.211A1.882,1.882,0,0,0,53.57,7.6a1.856,1.856,0,0,0-1.668.883,4.018,4.018,0,0,0-.566,2.211Zm9.289-4.32L60.734,7.8a3.069,3.069,0,0,1,1.059-1.043,2.824,2.824,0,0,1,1.449-.371,2.759,2.759,0,0,1,2.117.8,3.515,3.515,0,0,1,.75,2.473V15H64.57V9.7a2.287,2.287,0,0,0-.441-1.586,1.768,1.768,0,0,0-1.348-.469,2.386,2.386,0,0,0-1.207.285,2.072,2.072,0,0,0-.785.8V15H59.25V6.547ZM70,11.8a4.565,4.565,0,0,1,.2-1.57A3.967,3.967,0,0,1,71.18,9.07a17.15,17.15,0,0,0,1.1-1.406,2.092,2.092,0,0,0,.328-1.187A1.732,1.732,0,0,0,72.168,5.2a1.7,1.7,0,0,0-1.262-.445,1.92,1.92,0,0,0-1.211.387,1.349,1.349,0,0,0-.5,1.137H67.727L67.7,6.234a2.427,2.427,0,0,1,.887-2.016,3.5,3.5,0,0,1,2.316-.758,3.4,3.4,0,0,1,2.391.785,2.832,2.832,0,0,1,.852,2.191A3.281,3.281,0,0,1,73.6,8.281a10.29,10.29,0,0,1-1.457,1.711,1.834,1.834,0,0,0-.512.758,4.419,4.419,0,0,0-.09,1.047ZM71.594,15H69.984V13.375h1.609Z" transform="translate(548 451)" fill="#fff"/>
    <path id="Trazado_885231" data-name="Trazado 885231" d="M-12296.766-9629.972v237.764" transform="translate(13095.266 10129.039)" fill="none" stroke="#3a1d71" stroke-width="1.5"/>
    <path id="Trazado_885232" data-name="Trazado 885232" d="M5.749,1.64,0,0,5.735,8.894l.014-.018.014.018L11.5,0Z" transform="translate(792.751 733.106)" fill="#3a1d71"/>
    <path id="Trazado_887492" data-name="Trazado 887492" d="M2,0H175a2,2,0,0,1,2,2V57a2,2,0,0,1-2,2H2a2,2,0,0,1-2-2V2A2,2,0,0,1,2,0Z" transform="translate(711 432)" fill="#3a1d71"/>
    <path id="Agency_provides_a_fu-2" data-name="Agency provides a fu" d="M9.719,9.75a4.681,4.681,0,0,1-.2,1.578,3.921,3.921,0,0,1-.977,1.148,16.391,16.391,0,0,0-1.105,1.414,2.082,2.082,0,0,0-.324,1.172,1.741,1.741,0,0,0,.438,1.273,1.7,1.7,0,0,0,1.266.445,1.924,1.924,0,0,0,1.207-.387,1.345,1.345,0,0,0,.5-1.137h1.469l.023.047a2.448,2.448,0,0,1-.895,2.016,3.486,3.486,0,0,1-2.309.758,3.393,3.393,0,0,1-2.395-.785A2.839,2.839,0,0,1,5.57,15.1a3.254,3.254,0,0,1,.547-1.824,10.524,10.524,0,0,1,1.461-1.723,1.847,1.847,0,0,0,.508-.75A4.285,4.285,0,0,0,8.18,9.75ZM8.125,6.539H9.734V8.172H8.125ZM19.8,12.07H15.516L14.5,15H12.93l4.1-11.375h1.32L22.367,15H20.8Zm-3.836-1.289h3.4L17.7,5.9h-.047Zm11.492.148a5.641,5.641,0,0,1,.871-3.289,2.807,2.807,0,0,1,2.441-1.25,2.984,2.984,0,0,1,1.352.293,2.8,2.8,0,0,1,1,.848l.219-.984h1.18v11.7H32.977V14.2a2.637,2.637,0,0,1-.961.719,3.135,3.135,0,0,1-1.266.242,2.9,2.9,0,0,1-2.422-1.121,4.659,4.659,0,0,1-.875-2.949Zm1.539.164a3.684,3.684,0,0,0,.527,2.074,1.811,1.811,0,0,0,1.621.793,2,2,0,0,0,1.082-.281,2.312,2.312,0,0,0,.754-.789V8.625a2.329,2.329,0,0,0-.754-.75A2.011,2.011,0,0,0,31.156,7.6a1.754,1.754,0,0,0-1.633.934,4.8,4.8,0,0,0-.531,2.395ZM42.266,13.75A2.863,2.863,0,0,1,41.242,14.8a2.8,2.8,0,0,1-1.445.367,2.716,2.716,0,0,1-2.156-.883,4.1,4.1,0,0,1-.773-2.75V6.547h1.539v5a3.147,3.147,0,0,0,.4,1.859,1.481,1.481,0,0,0,1.242.508,2.531,2.531,0,0,0,1.355-.332,2.077,2.077,0,0,0,.809-.941V6.547H43.75V15H42.367Zm7.227,1.414A3.576,3.576,0,0,1,46.652,14a4.48,4.48,0,0,1-1.02-3.062v-.344a4.386,4.386,0,0,1,1.051-3.012A3.3,3.3,0,0,1,49.25,6.391a3.067,3.067,0,0,1,2.543,1.055,4.345,4.345,0,0,1,.848,2.8v.813H47.234l-.023.039a3.494,3.494,0,0,0,.563,2.066,1.965,1.965,0,0,0,1.719.793,3.872,3.872,0,0,0,1.371-.223,3.061,3.061,0,0,0,1.012-.613l.6,1a3.7,3.7,0,0,1-1.2.738A4.762,4.762,0,0,1,49.492,15.164ZM49.25,7.6a1.673,1.673,0,0,0-1.332.621,2.938,2.938,0,0,0-.645,1.59l.016.039H51.1V9.727A2.462,2.462,0,0,0,50.648,8.2,1.638,1.638,0,0,0,49.25,7.6Zm.578-4.648h1.8L51.641,3l-2.1,2.031H48.383ZM61.7,13.961a1.81,1.81,0,0,0,1.242-.473,1.494,1.494,0,0,0,.531-1.16h1.391l.023.047a2.428,2.428,0,0,1-.937,1.941,3.582,3.582,0,0,1-5-.363,4.674,4.674,0,0,1-.969-3.016v-.328a4.654,4.654,0,0,1,.973-3A3.317,3.317,0,0,1,61.7,6.391a3.189,3.189,0,0,1,2.316.875,2.775,2.775,0,0,1,.871,2.148l-.016.047h-1.4a1.865,1.865,0,0,0-.5-1.316A1.658,1.658,0,0,0,61.7,7.6a1.777,1.777,0,0,0-1.652.879,4.114,4.114,0,0,0-.52,2.129v.328a4.192,4.192,0,0,0,.512,2.148A1.776,1.776,0,0,0,61.7,13.961ZM66.359,10.7a4.654,4.654,0,0,1,1.016-3.09,3.764,3.764,0,0,1,5.535,0A4.639,4.639,0,0,1,73.93,10.7v.172a4.631,4.631,0,0,1-1.016,3.094,3.781,3.781,0,0,1-5.535,0,4.623,4.623,0,0,1-1.02-3.09Zm1.539.172a4.009,4.009,0,0,0,.566,2.219,2.046,2.046,0,0,0,3.355,0,3.988,3.988,0,0,0,.57-2.219V10.7a3.976,3.976,0,0,0-.574-2.211A1.882,1.882,0,0,0,70.133,7.6a1.856,1.856,0,0,0-1.668.883A4.018,4.018,0,0,0,67.9,10.7Zm9.289-4.32L77.3,7.8a3.069,3.069,0,0,1,1.059-1.043A2.824,2.824,0,0,1,79.8,6.391a2.759,2.759,0,0,1,2.117.8,3.515,3.515,0,0,1,.75,2.473V15H81.133V9.7a2.287,2.287,0,0,0-.441-1.586,1.768,1.768,0,0,0-1.348-.469,2.386,2.386,0,0,0-1.207.285,2.072,2.072,0,0,0-.785.8V15H75.813V6.547Zm9.859-2.039V6.547h1.6V7.688h-1.6V12.82a1.149,1.149,0,0,0,.246.836.89.89,0,0,0,.652.242,1.43,1.43,0,0,0,.3-.035,2.2,2.2,0,0,0,.273-.074l.211,1.055a1.36,1.36,0,0,1-.508.23,2.562,2.562,0,0,1-.664.09,1.993,1.993,0,0,1-1.492-.566,2.46,2.46,0,0,1-.555-1.777V7.688H84.164V6.547h1.344V4.508Zm7.25,3.4-.789-.047a1.762,1.762,0,0,0-1.027.289,1.854,1.854,0,0,0-.645.813V15H90.3V6.547h1.375l.148,1.234a2.934,2.934,0,0,1,.887-1.023,2.073,2.073,0,0,1,1.215-.367,1.9,1.9,0,0,1,.328.027,2.175,2.175,0,0,1,.258.059ZM97.563,15H96.023V6.547h1.539Zm0-10.617H96.023V2.813h1.539Zm9.586,6.711a4.645,4.645,0,0,1-.879,2.949,2.9,2.9,0,0,1-2.418,1.121,3.064,3.064,0,0,1-1.465-.332,2.719,2.719,0,0,1-1.027-.98L101.109,15H99.93V2.813h1.539V7.547a2.671,2.671,0,0,1,.988-.859,3.03,3.03,0,0,1,1.379-.3,2.809,2.809,0,0,1,2.438,1.25,5.622,5.622,0,0,1,.875,3.289Zm-1.539-.164a4.666,4.666,0,0,0-.535-2.371,1.762,1.762,0,0,0-1.629-.918,2.014,2.014,0,0,0-1.2.348,2.452,2.452,0,0,0-.777.934v3.664a2.517,2.517,0,0,0,.777.977,2,2,0,0,0,1.215.352,1.829,1.829,0,0,0,1.617-.773,3.552,3.552,0,0,0,.531-2.047Zm8.781,2.82a2.863,2.863,0,0,1-1.023,1.047,2.8,2.8,0,0,1-1.445.367,2.716,2.716,0,0,1-2.156-.883,4.1,4.1,0,0,1-.773-2.75V6.547h1.539v5a3.147,3.147,0,0,0,.4,1.859,1.481,1.481,0,0,0,1.242.508,2.531,2.531,0,0,0,1.355-.332,2.077,2.077,0,0,0,.809-.941V6.547h1.539V15h-1.383Zm6.313-1.883.273,1.063h.047L123.1,6.547h1.711l-3.555,9.75a4.383,4.383,0,0,1-.918,1.484,2.113,2.113,0,0,1-1.613.633,3.363,3.363,0,0,1-.477-.043q-.289-.043-.445-.082l.156-1.211a2.062,2.062,0,0,1,.277.016q.324.023.41.023a.95.95,0,0,0,.8-.437,4.542,4.542,0,0,0,.523-.969l.367-.883L117.2,6.547h1.719Zm8.859,3.3A3.576,3.576,0,0,1,126.723,14a4.48,4.48,0,0,1-1.02-3.062v-.344a4.386,4.386,0,0,1,1.051-3.012,3.3,3.3,0,0,1,2.566-1.191,3.067,3.067,0,0,1,2.543,1.055,4.345,4.345,0,0,1,.848,2.8v.813H127.3l-.023.039a3.494,3.494,0,0,0,.563,2.066,1.965,1.965,0,0,0,1.719.793,3.872,3.872,0,0,0,1.371-.223,3.061,3.061,0,0,0,1.012-.613l.6,1a3.7,3.7,0,0,1-1.2.738A4.762,4.762,0,0,1,129.563,15.164ZM129.32,7.6a1.673,1.673,0,0,0-1.332.621,2.938,2.938,0,0,0-.645,1.59l.016.039h3.813V9.727a2.462,2.462,0,0,0-.453-1.523A1.638,1.638,0,0,0,129.32,7.6ZM47.23,32.727a1.026,1.026,0,0,0-.387-.828,3.732,3.732,0,0,0-1.465-.562,6.146,6.146,0,0,1-2.293-.9,1.814,1.814,0,0,1-.8-1.547,2.229,2.229,0,0,1,.879-1.766,3.879,3.879,0,0,1,4.605.047,2.239,2.239,0,0,1,.852,1.82l-.016.047H47.137a1.331,1.331,0,0,0-.48-.992,1.717,1.717,0,0,0-1.215-.445,1.751,1.751,0,0,0-1.215.367,1.146,1.146,0,0,0-.4.875.927.927,0,0,0,.348.773,3.848,3.848,0,0,0,1.434.5,6.058,6.058,0,0,1,2.359.93,1.872,1.872,0,0,1,.8,1.57,2.226,2.226,0,0,1-.91,1.836,3.754,3.754,0,0,1-2.379.711,3.715,3.715,0,0,1-2.547-.82,2.341,2.341,0,0,1-.883-1.914l.016-.047h1.469a1.424,1.424,0,0,0,.609,1.2,2.358,2.358,0,0,0,1.336.379,2.1,2.1,0,0,0,1.285-.348A1.063,1.063,0,0,0,47.23,32.727Zm8.82,1.023A2.863,2.863,0,0,1,55.027,34.8a2.8,2.8,0,0,1-1.445.367,2.716,2.716,0,0,1-2.156-.883,4.1,4.1,0,0,1-.773-2.75V26.547h1.539v5a3.147,3.147,0,0,0,.4,1.859,1.481,1.481,0,0,0,1.242.508,2.531,2.531,0,0,0,1.355-.332A2.077,2.077,0,0,0,56,32.641V26.547h1.539V35H56.152Zm13.07,0A2.863,2.863,0,0,1,68.1,34.8a2.8,2.8,0,0,1-1.445.367,2.716,2.716,0,0,1-2.156-.883,4.1,4.1,0,0,1-.773-2.75V26.547h1.539v5a3.147,3.147,0,0,0,.4,1.859,1.481,1.481,0,0,0,1.242.508,2.531,2.531,0,0,0,1.355-.332,2.077,2.077,0,0,0,.809-.941V26.547h1.539V35H69.223Zm8.641-1.023a1.026,1.026,0,0,0-.387-.828,3.732,3.732,0,0,0-1.465-.562,6.146,6.146,0,0,1-2.293-.9,1.814,1.814,0,0,1-.8-1.547,2.229,2.229,0,0,1,.879-1.766,3.879,3.879,0,0,1,4.605.047,2.239,2.239,0,0,1,.852,1.82l-.016.047H77.668a1.331,1.331,0,0,0-.48-.992,1.717,1.717,0,0,0-1.215-.445,1.751,1.751,0,0,0-1.215.367,1.146,1.146,0,0,0-.4.875.927.927,0,0,0,.348.773,3.848,3.848,0,0,0,1.434.5,6.058,6.058,0,0,1,2.359.93,1.872,1.872,0,0,1,.8,1.57,2.226,2.226,0,0,1-.91,1.836,3.754,3.754,0,0,1-2.379.711,3.715,3.715,0,0,1-2.547-.82,2.341,2.341,0,0,1-.883-1.914l.016-.047h1.469a1.424,1.424,0,0,0,.609,1.2,2.358,2.358,0,0,0,1.336.379,2.1,2.1,0,0,0,1.285-.348A1.063,1.063,0,0,0,77.762,32.727ZM80.855,30.7a4.654,4.654,0,0,1,1.016-3.09,3.764,3.764,0,0,1,5.535,0,4.639,4.639,0,0,1,1.02,3.094v.172a4.631,4.631,0,0,1-1.016,3.094,3.781,3.781,0,0,1-5.535,0,4.623,4.623,0,0,1-1.02-3.09Zm1.539.172a4.009,4.009,0,0,0,.566,2.219,2.046,2.046,0,0,0,3.355,0,3.988,3.988,0,0,0,.57-2.219V30.7a3.976,3.976,0,0,0-.574-2.211,1.882,1.882,0,0,0-1.684-.883,1.856,1.856,0,0,0-1.668.883,4.018,4.018,0,0,0-.566,2.211Zm9.57.93a4.565,4.565,0,0,1,.2-1.57,3.967,3.967,0,0,1,.984-1.156,17.151,17.151,0,0,0,1.1-1.406,2.092,2.092,0,0,0,.328-1.187,1.732,1.732,0,0,0-.441-1.273,1.7,1.7,0,0,0-1.262-.445,1.92,1.92,0,0,0-1.211.387,1.349,1.349,0,0,0-.5,1.137H89.691l-.023-.047a2.427,2.427,0,0,1,.887-2.016,3.5,3.5,0,0,1,2.316-.758,3.4,3.4,0,0,1,2.391.785,2.832,2.832,0,0,1,.852,2.191,3.281,3.281,0,0,1-.551,1.844,10.29,10.29,0,0,1-1.457,1.711,1.834,1.834,0,0,0-.512.758A4.419,4.419,0,0,0,93.5,31.8ZM93.559,35H91.949V33.375h1.609Z" transform="translate(731.001 441)" fill="#fff"/>
    <path id="Trazado_887493" data-name="Trazado 887493" d="M2,0H175a2,2,0,0,1,2,2V57a2,2,0,0,1-2,2H2a2,2,0,0,1-2-2V2A2,2,0,0,1,2,0Z" transform="translate(921 432)" fill="#3a1d71"/>
    <path id="Agency_provides_a_fu-3" data-name="Agency provides a fu" d="M31.871,13.8h5.547V15H30.332V3.625h1.539ZM44.113,15q-.078-.383-.121-.676a4.96,4.96,0,0,1-.051-.59,3.589,3.589,0,0,1-1.121,1.02,2.867,2.867,0,0,1-1.488.41,2.763,2.763,0,0,1-2.012-.676,2.486,2.486,0,0,1-.691-1.863,2.183,2.183,0,0,1,.98-1.895,4.579,4.579,0,0,1,2.66-.684h1.672V9.211a1.551,1.551,0,0,0-.453-1.176A1.779,1.779,0,0,0,42.207,7.6,1.859,1.859,0,0,0,41,7.977a1.125,1.125,0,0,0-.461.9l-1.461.016-.016-.047a2.023,2.023,0,0,1,.863-1.687,3.578,3.578,0,0,1,2.371-.766,3.49,3.49,0,0,1,2.313.73,2.588,2.588,0,0,1,.875,2.105V13.3a7.923,7.923,0,0,0,.047.875A4.5,4.5,0,0,0,45.7,15Zm-2.555-1.125a2.739,2.739,0,0,0,1.508-.43,2.042,2.042,0,0,0,.875-.984V11.086H42.215a2.24,2.24,0,0,0-1.488.469,1.4,1.4,0,0,0-.559,1.1,1.159,1.159,0,0,0,.352.891A1.472,1.472,0,0,0,41.559,13.875Zm11.07-1.148a1.026,1.026,0,0,0-.387-.828,3.732,3.732,0,0,0-1.465-.562,6.146,6.146,0,0,1-2.293-.9,1.814,1.814,0,0,1-.8-1.547,2.229,2.229,0,0,1,.879-1.766,3.879,3.879,0,0,1,4.605.047,2.239,2.239,0,0,1,.852,1.82L54,9.039H52.535a1.331,1.331,0,0,0-.48-.992A1.717,1.717,0,0,0,50.84,7.6a1.751,1.751,0,0,0-1.215.367,1.146,1.146,0,0,0-.4.875.927.927,0,0,0,.348.773,3.848,3.848,0,0,0,1.434.5,6.058,6.058,0,0,1,2.359.93,1.872,1.872,0,0,1,.8,1.57,2.226,2.226,0,0,1-.91,1.836,3.754,3.754,0,0,1-2.379.711,3.715,3.715,0,0,1-2.547-.82,2.341,2.341,0,0,1-.883-1.914l.016-.047h1.469a1.424,1.424,0,0,0,.609,1.2,2.358,2.358,0,0,0,1.336.379,2.1,2.1,0,0,0,1.285-.348A1.063,1.063,0,0,0,52.629,12.727ZM68.223,4.836h-3.75V15H62.934V4.836h-3.7V3.625h8.992ZM71.543,15H70V3.625h1.547ZM82.48,11.359l.016.047a3.417,3.417,0,0,1-1.125,2.68,4.3,4.3,0,0,1-3.055,1.078A4.012,4.012,0,0,1,75.172,13.8a5.028,5.028,0,0,1-1.215-3.469V8.3a5.043,5.043,0,0,1,1.215-3.473,4.006,4.006,0,0,1,3.145-1.371,4.416,4.416,0,0,1,3.07,1.027A3.4,3.4,0,0,1,82.5,7.211l-.016.047H81a2.539,2.539,0,0,0-.7-1.891,2.7,2.7,0,0,0-1.984-.7,2.424,2.424,0,0,0-2.055,1.039A4.227,4.227,0,0,0,75.5,8.289v2.039a4.254,4.254,0,0,0,.766,2.594,2.424,2.424,0,0,0,2.055,1.039A2.71,2.71,0,0,0,80.3,13.27a2.557,2.557,0,0,0,.7-1.91Zm9.281,3.8A3.576,3.576,0,0,1,88.922,14a4.48,4.48,0,0,1-1.02-3.062v-.344a4.386,4.386,0,0,1,1.051-3.012A3.3,3.3,0,0,1,91.52,6.391a3.067,3.067,0,0,1,2.543,1.055,4.345,4.345,0,0,1,.848,2.8v.813H89.5l-.023.039a3.494,3.494,0,0,0,.563,2.066,1.965,1.965,0,0,0,1.719.793,3.872,3.872,0,0,0,1.371-.223,3.061,3.061,0,0,0,1.012-.613l.6,1a3.7,3.7,0,0,1-1.2.738A4.762,4.762,0,0,1,91.762,15.164ZM91.52,7.6a1.673,1.673,0,0,0-1.332.621,2.938,2.938,0,0,0-.645,1.59l.016.039h3.813V9.727A2.462,2.462,0,0,0,92.918,8.2,1.638,1.638,0,0,0,91.52,7.6Zm6.492-1.055L98.121,7.8A3.069,3.069,0,0,1,99.18,6.762a2.824,2.824,0,0,1,1.449-.371,2.759,2.759,0,0,1,2.117.8,3.515,3.515,0,0,1,.75,2.473V15h-1.539V9.7a2.287,2.287,0,0,0-.441-1.586,1.768,1.768,0,0,0-1.348-.469,2.386,2.386,0,0,0-1.207.285,2.072,2.072,0,0,0-.785.8V15H96.637V6.547Zm15.2,8.617A3.576,3.576,0,0,1,110.367,14a4.48,4.48,0,0,1-1.02-3.062v-.344A4.386,4.386,0,0,1,110.4,7.582a3.3,3.3,0,0,1,2.566-1.191,3.067,3.067,0,0,1,2.543,1.055,4.345,4.345,0,0,1,.848,2.8v.813h-5.406l-.023.039a3.494,3.494,0,0,0,.563,2.066,1.965,1.965,0,0,0,1.719.793,3.872,3.872,0,0,0,1.371-.223,3.061,3.061,0,0,0,1.012-.613l.6,1a3.7,3.7,0,0,1-1.2.738A4.762,4.762,0,0,1,113.207,15.164ZM112.965,7.6a1.673,1.673,0,0,0-1.332.621,2.938,2.938,0,0,0-.645,1.59l.016.039h3.813V9.727a2.462,2.462,0,0,0-.453-1.523A1.638,1.638,0,0,0,112.965,7.6Zm6.781,7.4h-1.539V2.813h1.539ZM6.73,35.164A3.576,3.576,0,0,1,3.891,34a4.48,4.48,0,0,1-1.02-3.062v-.344a4.386,4.386,0,0,1,1.051-3.012,3.3,3.3,0,0,1,2.566-1.191,3.067,3.067,0,0,1,2.543,1.055,4.345,4.345,0,0,1,.848,2.8v.813H4.473l-.023.039a3.494,3.494,0,0,0,.563,2.066,1.965,1.965,0,0,0,1.719.793A3.872,3.872,0,0,0,8.1,33.738a3.061,3.061,0,0,0,1.012-.613l.6,1a3.7,3.7,0,0,1-1.2.738A4.762,4.762,0,0,1,6.73,35.164ZM6.488,27.6a1.673,1.673,0,0,0-1.332.621,2.938,2.938,0,0,0-.645,1.59l.016.039H8.34v-.125A2.462,2.462,0,0,0,7.887,28.2,1.638,1.638,0,0,0,6.488,27.6Zm6.492-1.055L13.09,27.8a3.069,3.069,0,0,1,1.059-1.043,2.824,2.824,0,0,1,1.449-.371,2.759,2.759,0,0,1,2.117.8,3.515,3.515,0,0,1,.75,2.473V35H16.926V29.7a2.287,2.287,0,0,0-.441-1.586,1.768,1.768,0,0,0-1.348-.469,2.386,2.386,0,0,0-1.207.285,2.072,2.072,0,0,0-.785.8V35H11.605V26.547Zm9.859-2.039v2.039h1.6v1.141h-1.6V32.82a1.149,1.149,0,0,0,.246.836.89.89,0,0,0,.652.242,1.429,1.429,0,0,0,.3-.035,2.2,2.2,0,0,0,.273-.074l.211,1.055a1.36,1.36,0,0,1-.508.23,2.562,2.562,0,0,1-.664.09,1.993,1.993,0,0,1-1.492-.566A2.46,2.46,0,0,1,21.3,32.82V27.688H19.957V26.547H21.3V24.508ZM25.73,30.7a4.654,4.654,0,0,1,1.016-3.09A3.406,3.406,0,0,1,29.5,26.391,3.439,3.439,0,0,1,32.281,27.6,4.639,4.639,0,0,1,33.3,30.7v.172a4.631,4.631,0,0,1-1.016,3.094,3.429,3.429,0,0,1-2.766,1.2,3.436,3.436,0,0,1-2.77-1.207,4.623,4.623,0,0,1-1.02-3.09Zm1.539.172a4.009,4.009,0,0,0,.566,2.219,2.046,2.046,0,0,0,3.355,0,3.988,3.988,0,0,0,.57-2.219V30.7a3.976,3.976,0,0,0-.574-2.211A1.882,1.882,0,0,0,29.5,27.6a1.856,1.856,0,0,0-1.668.883A4.018,4.018,0,0,0,27.27,30.7Zm11.914-2.961-.789-.047a1.762,1.762,0,0,0-1.027.289,1.855,1.855,0,0,0-.645.813V35H35.184V26.547h1.375l.148,1.234a2.934,2.934,0,0,1,.887-1.023,2.073,2.073,0,0,1,1.215-.367,1.9,1.9,0,0,1,.328.027,2.174,2.174,0,0,1,.258.059Zm2.977-1.359L42.27,27.8a3.069,3.069,0,0,1,1.059-1.043,2.824,2.824,0,0,1,1.449-.371,2.759,2.759,0,0,1,2.117.8,3.515,3.515,0,0,1,.75,2.473V35H46.105V29.7a2.287,2.287,0,0,0-.441-1.586,1.768,1.768,0,0,0-1.348-.469,2.386,2.386,0,0,0-1.207.285,2.072,2.072,0,0,0-.785.8V35H40.785V26.547ZM49.52,30.7a4.654,4.654,0,0,1,1.016-3.09,3.764,3.764,0,0,1,5.535,0A4.639,4.639,0,0,1,57.09,30.7v.172a4.631,4.631,0,0,1-1.016,3.094,3.781,3.781,0,0,1-5.535,0,4.623,4.623,0,0,1-1.02-3.09Zm1.539.172a4.009,4.009,0,0,0,.566,2.219,2.046,2.046,0,0,0,3.355,0,3.988,3.988,0,0,0,.57-2.219V30.7a3.976,3.976,0,0,0-.574-2.211,1.882,1.882,0,0,0-1.684-.883,1.856,1.856,0,0,0-1.668.883,4.018,4.018,0,0,0-.566,2.211ZM62.6,30.93a5.641,5.641,0,0,1,.871-3.289,2.807,2.807,0,0,1,2.441-1.25,3.027,3.027,0,0,1,1.316.273,2.7,2.7,0,0,1,.98.8V22.813h1.539V35h-1.18l-.234-1.07a2.743,2.743,0,0,1-1.023.922,3.058,3.058,0,0,1-1.414.313,2.9,2.9,0,0,1-2.422-1.121,4.659,4.659,0,0,1-.875-2.949Zm1.539.164a3.588,3.588,0,0,0,.523,2.051,1.828,1.828,0,0,0,1.625.77,2.039,2.039,0,0,0,1.156-.312,2.334,2.334,0,0,0,.766-.875V28.781a2.37,2.37,0,0,0-.77-.832,2.033,2.033,0,0,0-1.137-.309,1.759,1.759,0,0,0-1.637.914,4.718,4.718,0,0,0-.527,2.375Zm11.406,4.07A3.576,3.576,0,0,1,72.7,34a4.48,4.48,0,0,1-1.02-3.062v-.344a4.386,4.386,0,0,1,1.051-3.012A3.3,3.3,0,0,1,75.3,26.391a3.067,3.067,0,0,1,2.543,1.055,4.345,4.345,0,0,1,.848,2.8v.813H73.285l-.023.039a3.494,3.494,0,0,0,.563,2.066,1.965,1.965,0,0,0,1.719.793,3.872,3.872,0,0,0,1.371-.223,3.061,3.061,0,0,0,1.012-.613l.6,1a3.7,3.7,0,0,1-1.2.738A4.762,4.762,0,0,1,75.543,35.164ZM75.3,27.6a1.673,1.673,0,0,0-1.332.621,2.938,2.938,0,0,0-.645,1.59l.016.039h3.813v-.125A2.462,2.462,0,0,0,76.7,28.2,1.638,1.638,0,0,0,75.3,27.6ZM82.082,35H80.543V22.813h1.539Zm5.992-4.07a5.641,5.641,0,0,1,.871-3.289,2.807,2.807,0,0,1,2.441-1.25,3.027,3.027,0,0,1,1.316.273,2.7,2.7,0,0,1,.98.8V22.813h1.539V35h-1.18l-.234-1.07a2.743,2.743,0,0,1-1.023.922,3.058,3.058,0,0,1-1.414.313,2.9,2.9,0,0,1-2.422-1.121,4.659,4.659,0,0,1-.875-2.949Zm1.539.164a3.588,3.588,0,0,0,.523,2.051,1.828,1.828,0,0,0,1.625.77,2.039,2.039,0,0,0,1.156-.312,2.334,2.334,0,0,0,.766-.875V28.781a2.37,2.37,0,0,0-.77-.832,2.033,2.033,0,0,0-1.137-.309,1.759,1.759,0,0,0-1.637.914,4.718,4.718,0,0,0-.527,2.375ZM99.137,35H97.6V26.547h1.539Zm-.023-11.875h1.8l.016.047-2.1,2.031H97.668ZM106.738,35q-.078-.383-.121-.676a4.96,4.96,0,0,1-.051-.59,3.589,3.589,0,0,1-1.121,1.02,2.867,2.867,0,0,1-1.488.41,2.763,2.763,0,0,1-2.012-.676,2.486,2.486,0,0,1-.691-1.863,2.183,2.183,0,0,1,.98-1.895,4.579,4.579,0,0,1,2.66-.684h1.672v-.836a1.551,1.551,0,0,0-.453-1.176,1.779,1.779,0,0,0-1.281-.434,1.859,1.859,0,0,0-1.211.375,1.125,1.125,0,0,0-.461.9l-1.461.016-.016-.047a2.023,2.023,0,0,1,.863-1.687,3.578,3.578,0,0,1,2.371-.766,3.49,3.49,0,0,1,2.313.73,2.588,2.588,0,0,1,.875,2.105V33.3a7.923,7.923,0,0,0,.047.875,4.5,4.5,0,0,0,.172.828Zm-2.555-1.125a2.739,2.739,0,0,0,1.508-.43,2.042,2.042,0,0,0,.875-.984V31.086H104.84a2.24,2.24,0,0,0-1.488.469,1.4,1.4,0,0,0-.559,1.1,1.159,1.159,0,0,0,.352.891A1.472,1.472,0,0,0,104.184,33.875ZM119.512,35q-.078-.383-.121-.676a4.96,4.96,0,0,1-.051-.59,3.589,3.589,0,0,1-1.121,1.02,2.867,2.867,0,0,1-1.488.41,2.763,2.763,0,0,1-2.012-.676,2.486,2.486,0,0,1-.691-1.863,2.183,2.183,0,0,1,.98-1.895,4.579,4.579,0,0,1,2.66-.684h1.672v-.836a1.551,1.551,0,0,0-.453-1.176,1.779,1.779,0,0,0-1.281-.434,1.859,1.859,0,0,0-1.211.375,1.125,1.125,0,0,0-.461.9l-1.461.016-.016-.047a2.023,2.023,0,0,1,.863-1.687,3.578,3.578,0,0,1,2.371-.766,3.49,3.49,0,0,1,2.313.73,2.588,2.588,0,0,1,.875,2.105V33.3a7.923,7.923,0,0,0,.047.875A4.5,4.5,0,0,0,121.1,35Zm-2.555-1.125a2.739,2.739,0,0,0,1.508-.43,2.042,2.042,0,0,0,.875-.984V31.086h-1.727a2.24,2.24,0,0,0-1.488.469,1.4,1.4,0,0,0-.559,1.1,1.159,1.159,0,0,0,.352.891A1.472,1.472,0,0,0,116.957,33.875Zm9.781-2.945a5.641,5.641,0,0,1,.871-3.289,2.807,2.807,0,0,1,2.441-1.25,3.027,3.027,0,0,1,1.316.273,2.7,2.7,0,0,1,.98.8V22.813h1.539V35h-1.18l-.234-1.07a2.743,2.743,0,0,1-1.023.922,3.058,3.058,0,0,1-1.414.313,2.9,2.9,0,0,1-2.422-1.121,4.659,4.659,0,0,1-.875-2.949Zm1.539.164a3.588,3.588,0,0,0,.523,2.051,1.828,1.828,0,0,0,1.625.77,2.039,2.039,0,0,0,1.156-.312,2.334,2.334,0,0,0,.766-.875V28.781a2.37,2.37,0,0,0-.77-.832,2.033,2.033,0,0,0-1.137-.309,1.759,1.759,0,0,0-1.637.914,4.718,4.718,0,0,0-.527,2.375ZM137.8,35h-1.539V26.547H137.8Zm-.023-11.875h1.8l.016.047-2.1,2.031h-1.156ZM145.4,35q-.078-.383-.121-.676a4.96,4.96,0,0,1-.051-.59,3.588,3.588,0,0,1-1.121,1.02,2.867,2.867,0,0,1-1.488.41,2.763,2.763,0,0,1-2.012-.676,2.486,2.486,0,0,1-.691-1.863,2.183,2.183,0,0,1,.98-1.895,4.579,4.579,0,0,1,2.66-.684h1.672v-.836a1.551,1.551,0,0,0-.453-1.176A1.779,1.779,0,0,0,143.5,27.6a1.859,1.859,0,0,0-1.211.375,1.125,1.125,0,0,0-.461.9l-1.461.016-.016-.047a2.023,2.023,0,0,1,.863-1.687,3.578,3.578,0,0,1,2.371-.766,3.49,3.49,0,0,1,2.313.73,2.588,2.588,0,0,1,.875,2.105V33.3a7.923,7.923,0,0,0,.047.875,4.5,4.5,0,0,0,.172.828Zm-2.555-1.125a2.739,2.739,0,0,0,1.508-.43,2.042,2.042,0,0,0,.875-.984V31.086H143.5a2.24,2.24,0,0,0-1.488.469,1.4,1.4,0,0,0-.559,1.1,1.159,1.159,0,0,0,.352.891A1.472,1.472,0,0,0,142.848,33.875Z" transform="translate(937 441)" fill="#fff"/>
    <path id="Trazado_887130" data-name="Trazado 887130" d="M2,0H175a2,2,0,0,1,2,2V57a2,2,0,0,1-2,2H2a2,2,0,0,1-2-2V2A2,2,0,0,1,2,0Z" transform="translate(502 746)" fill="#3a1d71"/>
    <path id="Agency_provides_a_fu-4" data-name="Agency provides a fu" d="M29.371,13.8h5.547V15H27.832V3.625h1.539ZM41.613,15q-.078-.383-.121-.676a4.96,4.96,0,0,1-.051-.59,3.589,3.589,0,0,1-1.121,1.02,2.867,2.867,0,0,1-1.488.41,2.763,2.763,0,0,1-2.012-.676,2.486,2.486,0,0,1-.691-1.863,2.183,2.183,0,0,1,.98-1.895,4.579,4.579,0,0,1,2.66-.684h1.672V9.211a1.551,1.551,0,0,0-.453-1.176A1.779,1.779,0,0,0,39.707,7.6a1.859,1.859,0,0,0-1.211.375,1.125,1.125,0,0,0-.461.9l-1.461.016-.016-.047a2.023,2.023,0,0,1,.863-1.687,3.578,3.578,0,0,1,2.371-.766,3.49,3.49,0,0,1,2.313.73,2.588,2.588,0,0,1,.875,2.105V13.3a7.923,7.923,0,0,0,.047.875A4.5,4.5,0,0,0,43.2,15Zm-2.555-1.125a2.739,2.739,0,0,0,1.508-.43,2.042,2.042,0,0,0,.875-.984V11.086H39.715a2.24,2.24,0,0,0-1.488.469,1.4,1.4,0,0,0-.559,1.1,1.159,1.159,0,0,0,.352.891A1.472,1.472,0,0,0,39.059,13.875Zm11.07-1.148a1.026,1.026,0,0,0-.387-.828,3.732,3.732,0,0,0-1.465-.562,6.146,6.146,0,0,1-2.293-.9,1.814,1.814,0,0,1-.8-1.547,2.229,2.229,0,0,1,.879-1.766,3.879,3.879,0,0,1,4.605.047,2.239,2.239,0,0,1,.852,1.82l-.016.047H50.035a1.331,1.331,0,0,0-.48-.992A1.717,1.717,0,0,0,48.34,7.6a1.751,1.751,0,0,0-1.215.367,1.146,1.146,0,0,0-.4.875.927.927,0,0,0,.348.773,3.848,3.848,0,0,0,1.434.5,6.058,6.058,0,0,1,2.359.93,1.872,1.872,0,0,1,.8,1.57,2.226,2.226,0,0,1-.91,1.836,3.754,3.754,0,0,1-2.379.711,3.715,3.715,0,0,1-2.547-.82,2.341,2.341,0,0,1-.883-1.914l.016-.047h1.469a1.424,1.424,0,0,0,.609,1.2,2.358,2.358,0,0,0,1.336.379,2.1,2.1,0,0,0,1.285-.348A1.063,1.063,0,0,0,50.129,12.727ZM65.723,4.836h-3.75V15H60.434V4.836h-3.7V3.625h8.992ZM69.043,15H67.5V3.625h1.547ZM79.98,11.359l.016.047a3.417,3.417,0,0,1-1.125,2.68,4.3,4.3,0,0,1-3.055,1.078A4.012,4.012,0,0,1,72.672,13.8a5.028,5.028,0,0,1-1.215-3.469V8.3a5.043,5.043,0,0,1,1.215-3.473,4.006,4.006,0,0,1,3.145-1.371,4.416,4.416,0,0,1,3.07,1.027A3.4,3.4,0,0,1,80,7.211l-.016.047H78.5a2.539,2.539,0,0,0-.7-1.891,2.7,2.7,0,0,0-1.984-.7,2.424,2.424,0,0,0-2.055,1.039A4.227,4.227,0,0,0,73,8.289v2.039a4.254,4.254,0,0,0,.766,2.594,2.424,2.424,0,0,0,2.055,1.039A2.71,2.71,0,0,0,77.8,13.27a2.557,2.557,0,0,0,.7-1.91Zm9.281,3.8A3.576,3.576,0,0,1,86.422,14a4.48,4.48,0,0,1-1.02-3.062v-.344a4.386,4.386,0,0,1,1.051-3.012A3.3,3.3,0,0,1,89.02,6.391a3.067,3.067,0,0,1,2.543,1.055,4.345,4.345,0,0,1,.848,2.8v.813H87l-.023.039a3.494,3.494,0,0,0,.563,2.066,1.965,1.965,0,0,0,1.719.793,3.872,3.872,0,0,0,1.371-.223,3.061,3.061,0,0,0,1.012-.613l.6,1a3.7,3.7,0,0,1-1.2.738A4.762,4.762,0,0,1,89.262,15.164ZM89.02,7.6a1.673,1.673,0,0,0-1.332.621,2.938,2.938,0,0,0-.645,1.59l.016.039h3.813V9.727A2.462,2.462,0,0,0,90.418,8.2,1.638,1.638,0,0,0,89.02,7.6Zm6.492-1.055L95.621,7.8A3.069,3.069,0,0,1,96.68,6.762a2.824,2.824,0,0,1,1.449-.371,2.759,2.759,0,0,1,2.117.8A3.515,3.515,0,0,1,101,9.664V15H99.457V9.7a2.287,2.287,0,0,0-.441-1.586,1.768,1.768,0,0,0-1.348-.469,2.386,2.386,0,0,0-1.207.285,2.072,2.072,0,0,0-.785.8V15H94.137V6.547Zm15.2,8.617A3.576,3.576,0,0,1,107.867,14a4.48,4.48,0,0,1-1.02-3.062v-.344A4.386,4.386,0,0,1,107.9,7.582a3.3,3.3,0,0,1,2.566-1.191,3.067,3.067,0,0,1,2.543,1.055,4.345,4.345,0,0,1,.848,2.8v.813h-5.406l-.023.039a3.494,3.494,0,0,0,.563,2.066,1.965,1.965,0,0,0,1.719.793,3.872,3.872,0,0,0,1.371-.223,3.061,3.061,0,0,0,1.012-.613l.6,1a3.7,3.7,0,0,1-1.2.738A4.762,4.762,0,0,1,110.707,15.164ZM110.465,7.6a1.673,1.673,0,0,0-1.332.621,2.938,2.938,0,0,0-.645,1.59l.016.039h3.813V9.727a2.462,2.462,0,0,0-.453-1.523A1.638,1.638,0,0,0,110.465,7.6Zm6.781,7.4h-1.539V2.813h1.539ZM7.8,35.164A3.576,3.576,0,0,1,4.957,34a4.48,4.48,0,0,1-1.02-3.062v-.344a4.386,4.386,0,0,1,1.051-3.012,3.3,3.3,0,0,1,2.566-1.191A3.067,3.067,0,0,1,10.1,27.445a4.345,4.345,0,0,1,.848,2.8v.813H5.539l-.023.039a3.494,3.494,0,0,0,.563,2.066,1.965,1.965,0,0,0,1.719.793,3.872,3.872,0,0,0,1.371-.223,3.061,3.061,0,0,0,1.012-.613l.6,1a3.7,3.7,0,0,1-1.2.738A4.762,4.762,0,0,1,7.8,35.164ZM7.555,27.6a1.673,1.673,0,0,0-1.332.621,2.938,2.938,0,0,0-.645,1.59l.016.039H9.406v-.125A2.462,2.462,0,0,0,8.953,28.2,1.638,1.638,0,0,0,7.555,27.6Zm6.492-1.055.109,1.258a3.069,3.069,0,0,1,1.059-1.043,2.824,2.824,0,0,1,1.449-.371,2.759,2.759,0,0,1,2.117.8,3.515,3.515,0,0,1,.75,2.473V35H17.992V29.7a2.287,2.287,0,0,0-.441-1.586,1.768,1.768,0,0,0-1.348-.469A2.386,2.386,0,0,0,15,27.926a2.072,2.072,0,0,0-.785.8V35H12.672V26.547Zm9.859-2.039v2.039h1.6v1.141h-1.6V32.82a1.149,1.149,0,0,0,.246.836.89.89,0,0,0,.652.242,1.429,1.429,0,0,0,.3-.035,2.2,2.2,0,0,0,.273-.074l.211,1.055a1.36,1.36,0,0,1-.508.23,2.562,2.562,0,0,1-.664.09,1.993,1.993,0,0,1-1.492-.566,2.46,2.46,0,0,1-.555-1.777V27.688H21.023V26.547h1.344V24.508ZM26.8,30.7a4.654,4.654,0,0,1,1.016-3.09,3.764,3.764,0,0,1,5.535,0,4.639,4.639,0,0,1,1.02,3.094v.172a4.631,4.631,0,0,1-1.016,3.094,3.429,3.429,0,0,1-2.766,1.2,3.436,3.436,0,0,1-2.77-1.207,4.623,4.623,0,0,1-1.02-3.09Zm1.539.172a4.009,4.009,0,0,0,.566,2.219,2.046,2.046,0,0,0,3.355,0,3.988,3.988,0,0,0,.57-2.219V30.7a3.976,3.976,0,0,0-.574-2.211A1.882,1.882,0,0,0,30.57,27.6a1.856,1.856,0,0,0-1.668.883,4.018,4.018,0,0,0-.566,2.211ZM40.25,27.906l-.789-.047a1.762,1.762,0,0,0-1.027.289,1.855,1.855,0,0,0-.645.813V35H36.25V26.547h1.375l.148,1.234a2.934,2.934,0,0,1,.887-1.023,2.073,2.073,0,0,1,1.215-.367,1.9,1.9,0,0,1,.328.027,2.174,2.174,0,0,1,.258.059Zm2.977-1.359.109,1.258a3.069,3.069,0,0,1,1.059-1.043,2.824,2.824,0,0,1,1.449-.371,2.759,2.759,0,0,1,2.117.8,3.515,3.515,0,0,1,.75,2.473V35H47.172V29.7a2.287,2.287,0,0,0-.441-1.586,1.768,1.768,0,0,0-1.348-.469,2.386,2.386,0,0,0-1.207.285,2.072,2.072,0,0,0-.785.8V35H41.852V26.547ZM50.586,30.7a4.654,4.654,0,0,1,1.016-3.09,3.764,3.764,0,0,1,5.535,0,4.639,4.639,0,0,1,1.02,3.094v.172a4.631,4.631,0,0,1-1.016,3.094,3.781,3.781,0,0,1-5.535,0,4.623,4.623,0,0,1-1.02-3.09Zm1.539.172a4.009,4.009,0,0,0,.566,2.219,2.046,2.046,0,0,0,3.355,0,3.988,3.988,0,0,0,.57-2.219V30.7a3.976,3.976,0,0,0-.574-2.211,1.882,1.882,0,0,0-1.684-.883,1.856,1.856,0,0,0-1.668.883,4.018,4.018,0,0,0-.566,2.211ZM69.211,35q-.078-.383-.121-.676a4.96,4.96,0,0,1-.051-.59,3.589,3.589,0,0,1-1.121,1.02,2.867,2.867,0,0,1-1.488.41,2.763,2.763,0,0,1-2.012-.676,2.486,2.486,0,0,1-.691-1.863,2.183,2.183,0,0,1,.98-1.895,4.579,4.579,0,0,1,2.66-.684h1.672v-.836a1.551,1.551,0,0,0-.453-1.176A1.779,1.779,0,0,0,67.3,27.6a1.859,1.859,0,0,0-1.211.375,1.125,1.125,0,0,0-.461.9l-1.461.016-.016-.047a2.023,2.023,0,0,1,.863-1.687,3.578,3.578,0,0,1,2.371-.766,3.49,3.49,0,0,1,2.313.73,2.588,2.588,0,0,1,.875,2.105V33.3a7.923,7.923,0,0,0,.047.875A4.5,4.5,0,0,0,70.8,35Zm-2.555-1.125a2.739,2.739,0,0,0,1.508-.43,2.042,2.042,0,0,0,.875-.984V31.086H67.313a2.24,2.24,0,0,0-1.488.469,1.4,1.4,0,0,0-.559,1.1,1.159,1.159,0,0,0,.352.891A1.472,1.472,0,0,0,66.656,33.875Zm9.516.086a1.81,1.81,0,0,0,1.242-.473,1.494,1.494,0,0,0,.531-1.16h1.391l.023.047a2.428,2.428,0,0,1-.937,1.941,3.582,3.582,0,0,1-5-.363,4.674,4.674,0,0,1-.969-3.016v-.328a4.654,4.654,0,0,1,.973-3,3.317,3.317,0,0,1,2.746-1.215,3.189,3.189,0,0,1,2.316.875,2.775,2.775,0,0,1,.871,2.148l-.016.047h-1.4a1.865,1.865,0,0,0-.5-1.316,1.658,1.658,0,0,0-1.27-.543,1.777,1.777,0,0,0-1.652.879A4.114,4.114,0,0,0,74,30.609v.328a4.192,4.192,0,0,0,.512,2.148A1.776,1.776,0,0,0,76.172,33.961ZM86.383,35q-.078-.383-.121-.676a4.96,4.96,0,0,1-.051-.59,3.589,3.589,0,0,1-1.121,1.02,2.867,2.867,0,0,1-1.488.41,2.763,2.763,0,0,1-2.012-.676,2.486,2.486,0,0,1-.691-1.863,2.183,2.183,0,0,1,.98-1.895,4.579,4.579,0,0,1,2.66-.684h1.672v-.836a1.551,1.551,0,0,0-.453-1.176,1.779,1.779,0,0,0-1.281-.434,1.859,1.859,0,0,0-1.211.375,1.125,1.125,0,0,0-.461.9l-1.461.016-.016-.047a2.023,2.023,0,0,1,.863-1.687,3.578,3.578,0,0,1,2.371-.766,3.49,3.49,0,0,1,2.313.73,2.588,2.588,0,0,1,.875,2.105V33.3a7.923,7.923,0,0,0,.047.875,4.5,4.5,0,0,0,.172.828Zm-2.555-1.125a2.739,2.739,0,0,0,1.508-.43,2.042,2.042,0,0,0,.875-.984V31.086H84.484A2.24,2.24,0,0,0,83,31.555a1.4,1.4,0,0,0-.559,1.1,1.159,1.159,0,0,0,.352.891A1.472,1.472,0,0,0,83.828,33.875Zm5.8-2.945a5.641,5.641,0,0,1,.871-3.289,2.807,2.807,0,0,1,2.441-1.25,3.027,3.027,0,0,1,1.316.273,2.7,2.7,0,0,1,.98.8V22.813h1.539V35H95.6l-.234-1.07a2.743,2.743,0,0,1-1.023.922,3.058,3.058,0,0,1-1.414.313,2.9,2.9,0,0,1-2.422-1.121,4.659,4.659,0,0,1-.875-2.949Zm1.539.164a3.588,3.588,0,0,0,.523,2.051,1.828,1.828,0,0,0,1.625.77,2.039,2.039,0,0,0,1.156-.312,2.334,2.334,0,0,0,.766-.875V28.781a2.37,2.37,0,0,0-.77-.832,2.033,2.033,0,0,0-1.137-.309,1.759,1.759,0,0,0-1.637.914,4.718,4.718,0,0,0-.527,2.375Zm11.406,4.07A3.576,3.576,0,0,1,99.738,34a4.48,4.48,0,0,1-1.02-3.062v-.344a4.386,4.386,0,0,1,1.051-3.012,3.3,3.3,0,0,1,2.566-1.191,3.067,3.067,0,0,1,2.543,1.055,4.345,4.345,0,0,1,.848,2.8v.813H100.32l-.023.039a3.494,3.494,0,0,0,.563,2.066,1.965,1.965,0,0,0,1.719.793,3.872,3.872,0,0,0,1.371-.223,3.061,3.061,0,0,0,1.012-.613l.6,1a3.7,3.7,0,0,1-1.2.738A4.762,4.762,0,0,1,102.578,35.164Zm-.242-7.562a1.673,1.673,0,0,0-1.332.621,2.938,2.938,0,0,0-.645,1.59l.016.039h3.813v-.125a2.462,2.462,0,0,0-.453-1.523A1.638,1.638,0,0,0,102.336,27.6Zm.578-4.648h1.8l.016.047-2.1,2.031h-1.156Zm5.914,3.594.109,1.109a2.871,2.871,0,0,1,1.051-.934,3.158,3.158,0,0,1,1.48-.332,2.615,2.615,0,0,1,1.449.391,2.363,2.363,0,0,1,.91,1.172,3.162,3.162,0,0,1,1.059-1.145,2.769,2.769,0,0,1,1.527-.418,2.531,2.531,0,0,1,2.039.887,4.051,4.051,0,0,1,.75,2.668V35h-1.539V29.93a2.81,2.81,0,0,0-.43-1.77,1.567,1.567,0,0,0-1.281-.52,1.631,1.631,0,0,0-1.277.547,2.381,2.381,0,0,0-.574,1.383V35h-1.547V29.93a2.772,2.772,0,0,0-.441-1.738,1.532,1.532,0,0,0-1.27-.551,2.115,2.115,0,0,0-1.156.289,1.867,1.867,0,0,0-.7.813V35h-1.539V26.547ZM123.1,35h-1.539V26.547H123.1Zm0-10.617h-1.539v-1.57H123.1Zm5.727,9.578a1.81,1.81,0,0,0,1.242-.473,1.493,1.493,0,0,0,.531-1.16h1.391l.023.047a2.428,2.428,0,0,1-.937,1.941,3.582,3.582,0,0,1-5-.363,4.674,4.674,0,0,1-.969-3.016v-.328a4.654,4.654,0,0,1,.973-3,3.317,3.317,0,0,1,2.746-1.215,3.189,3.189,0,0,1,2.316.875,2.775,2.775,0,0,1,.871,2.148l-.016.047h-1.4a1.865,1.865,0,0,0-.5-1.316,1.658,1.658,0,0,0-1.27-.543,1.777,1.777,0,0,0-1.652.879,4.114,4.114,0,0,0-.52,2.129v.328a4.192,4.192,0,0,0,.512,2.148A1.776,1.776,0,0,0,128.828,33.961Zm4.656-3.266a4.654,4.654,0,0,1,1.016-3.09,3.764,3.764,0,0,1,5.535,0,4.639,4.639,0,0,1,1.02,3.094v.172a4.631,4.631,0,0,1-1.016,3.094,3.781,3.781,0,0,1-5.535,0,4.623,4.623,0,0,1-1.02-3.09Zm1.539.172a4.009,4.009,0,0,0,.566,2.219,2.046,2.046,0,0,0,3.355,0,3.988,3.988,0,0,0,.57-2.219V30.7a3.976,3.976,0,0,0-.574-2.211,1.882,1.882,0,0,0-1.684-.883,1.856,1.856,0,0,0-1.668.883,4.018,4.018,0,0,0-.566,2.211Z" transform="translate(518 754.528)" fill="#fff"/>
    <path id="Trazado_887131" data-name="Trazado 887131" d="M2,0H175a2,2,0,0,1,2,2V57a2,2,0,0,1-2,2H2a2,2,0,0,1-2-2V2A2,2,0,0,1,2,0Z" transform="translate(710 746.057)" fill="#3a1d71"/>
    <path id="Agency_provides_a_fu-5" data-name="Agency provides a fu" d="M15.871,13.8h5.547V15H14.332V3.625h1.539ZM28.113,15q-.078-.383-.121-.676a4.96,4.96,0,0,1-.051-.59,3.589,3.589,0,0,1-1.121,1.02,2.867,2.867,0,0,1-1.488.41,2.763,2.763,0,0,1-2.012-.676,2.486,2.486,0,0,1-.691-1.863,2.183,2.183,0,0,1,.98-1.895,4.579,4.579,0,0,1,2.66-.684h1.672V9.211a1.551,1.551,0,0,0-.453-1.176A1.779,1.779,0,0,0,26.207,7.6,1.859,1.859,0,0,0,25,7.977a1.125,1.125,0,0,0-.461.9l-1.461.016-.016-.047a2.023,2.023,0,0,1,.863-1.687,3.578,3.578,0,0,1,2.371-.766,3.49,3.49,0,0,1,2.313.73,2.588,2.588,0,0,1,.875,2.105V13.3a7.923,7.923,0,0,0,.047.875A4.5,4.5,0,0,0,29.7,15Zm-2.555-1.125a2.739,2.739,0,0,0,1.508-.43,2.042,2.042,0,0,0,.875-.984V11.086H26.215a2.24,2.24,0,0,0-1.488.469,1.4,1.4,0,0,0-.559,1.1,1.159,1.159,0,0,0,.352.891A1.472,1.472,0,0,0,25.559,13.875Zm11.07-1.148a1.026,1.026,0,0,0-.387-.828,3.732,3.732,0,0,0-1.465-.562,6.146,6.146,0,0,1-2.293-.9,1.814,1.814,0,0,1-.8-1.547,2.229,2.229,0,0,1,.879-1.766,3.879,3.879,0,0,1,4.605.047,2.239,2.239,0,0,1,.852,1.82L38,9.039H36.535a1.331,1.331,0,0,0-.48-.992A1.717,1.717,0,0,0,34.84,7.6a1.751,1.751,0,0,0-1.215.367,1.146,1.146,0,0,0-.4.875.927.927,0,0,0,.348.773,3.848,3.848,0,0,0,1.434.5,6.058,6.058,0,0,1,2.359.93,1.872,1.872,0,0,1,.8,1.57,2.226,2.226,0,0,1-.91,1.836,3.754,3.754,0,0,1-2.379.711,3.715,3.715,0,0,1-2.547-.82,2.341,2.341,0,0,1-.883-1.914l.016-.047h1.469a1.424,1.424,0,0,0,.609,1.2,2.358,2.358,0,0,0,1.336.379,2.1,2.1,0,0,0,1.285-.348A1.063,1.063,0,0,0,36.629,12.727ZM52.223,4.836h-3.75V15H46.934V4.836h-3.7V3.625h8.992ZM55.543,15H54V3.625h1.547ZM66.48,11.359l.016.047a3.417,3.417,0,0,1-1.125,2.68,4.3,4.3,0,0,1-3.055,1.078A4.012,4.012,0,0,1,59.172,13.8a5.028,5.028,0,0,1-1.215-3.469V8.3a5.043,5.043,0,0,1,1.215-3.473,4.006,4.006,0,0,1,3.145-1.371,4.416,4.416,0,0,1,3.07,1.027A3.4,3.4,0,0,1,66.5,7.211l-.016.047H65a2.539,2.539,0,0,0-.7-1.891,2.7,2.7,0,0,0-1.984-.7,2.424,2.424,0,0,0-2.055,1.039A4.227,4.227,0,0,0,59.5,8.289v2.039a4.254,4.254,0,0,0,.766,2.594,2.424,2.424,0,0,0,2.055,1.039A2.71,2.71,0,0,0,64.3,13.27a2.557,2.557,0,0,0,.7-1.91Zm9.281,3.8A3.576,3.576,0,0,1,72.922,14a4.48,4.48,0,0,1-1.02-3.062v-.344a4.386,4.386,0,0,1,1.051-3.012A3.3,3.3,0,0,1,75.52,6.391a3.067,3.067,0,0,1,2.543,1.055,4.345,4.345,0,0,1,.848,2.8v.813H73.5l-.023.039a3.494,3.494,0,0,0,.563,2.066,1.965,1.965,0,0,0,1.719.793,3.872,3.872,0,0,0,1.371-.223,3.061,3.061,0,0,0,1.012-.613l.6,1a3.7,3.7,0,0,1-1.2.738A4.762,4.762,0,0,1,75.762,15.164ZM75.52,7.6a1.673,1.673,0,0,0-1.332.621,2.938,2.938,0,0,0-.645,1.59l.016.039h3.813V9.727A2.462,2.462,0,0,0,76.918,8.2,1.638,1.638,0,0,0,75.52,7.6Zm6.492-1.055L82.121,7.8A3.069,3.069,0,0,1,83.18,6.762a2.824,2.824,0,0,1,1.449-.371,2.759,2.759,0,0,1,2.117.8,3.515,3.515,0,0,1,.75,2.473V15H85.957V9.7a2.287,2.287,0,0,0-.441-1.586,1.768,1.768,0,0,0-1.348-.469,2.386,2.386,0,0,0-1.207.285,2.072,2.072,0,0,0-.785.8V15H80.637V6.547Zm15.2,8.617A3.576,3.576,0,0,1,94.367,14a4.48,4.48,0,0,1-1.02-3.062v-.344A4.386,4.386,0,0,1,94.4,7.582a3.3,3.3,0,0,1,2.566-1.191,3.067,3.067,0,0,1,2.543,1.055,4.345,4.345,0,0,1,.848,2.8v.813H94.949l-.023.039a3.494,3.494,0,0,0,.563,2.066,1.965,1.965,0,0,0,1.719.793,3.872,3.872,0,0,0,1.371-.223,3.061,3.061,0,0,0,1.012-.613l.6,1a3.7,3.7,0,0,1-1.2.738A4.762,4.762,0,0,1,97.207,15.164ZM96.965,7.6a1.673,1.673,0,0,0-1.332.621,2.938,2.938,0,0,0-.645,1.59L95,9.852h3.813V9.727A2.462,2.462,0,0,0,98.363,8.2,1.638,1.638,0,0,0,96.965,7.6Zm6.781,7.4h-1.539V2.813h1.539ZM9.035,35.164A3.576,3.576,0,0,1,6.2,34a4.48,4.48,0,0,1-1.02-3.062v-.344a4.386,4.386,0,0,1,1.051-3.012,3.3,3.3,0,0,1,2.566-1.191,3.067,3.067,0,0,1,2.543,1.055,4.345,4.345,0,0,1,.848,2.8v.813H6.777l-.023.039a3.494,3.494,0,0,0,.563,2.066,1.965,1.965,0,0,0,1.719.793,3.872,3.872,0,0,0,1.371-.223,3.061,3.061,0,0,0,1.012-.613l.6,1a3.7,3.7,0,0,1-1.2.738A4.762,4.762,0,0,1,9.035,35.164ZM8.793,27.6a1.673,1.673,0,0,0-1.332.621,2.938,2.938,0,0,0-.645,1.59l.016.039h3.813v-.125a2.462,2.462,0,0,0-.453-1.523A1.638,1.638,0,0,0,8.793,27.6Zm6.492-1.055.109,1.258a3.069,3.069,0,0,1,1.059-1.043,2.824,2.824,0,0,1,1.449-.371,2.759,2.759,0,0,1,2.117.8,3.515,3.515,0,0,1,.75,2.473V35H19.23V29.7a2.287,2.287,0,0,0-.441-1.586,1.768,1.768,0,0,0-1.348-.469,2.386,2.386,0,0,0-1.207.285,2.072,2.072,0,0,0-.785.8V35H13.91V26.547Zm9.859-2.039v2.039h1.6v1.141h-1.6V32.82a1.149,1.149,0,0,0,.246.836.89.89,0,0,0,.652.242,1.429,1.429,0,0,0,.3-.035,2.2,2.2,0,0,0,.273-.074l.211,1.055a1.36,1.36,0,0,1-.508.23,2.562,2.562,0,0,1-.664.09A1.993,1.993,0,0,1,24.16,34.6a2.46,2.46,0,0,1-.555-1.777V27.688H22.262V26.547h1.344V24.508ZM28.035,30.7a4.654,4.654,0,0,1,1.016-3.09,3.764,3.764,0,0,1,5.535,0,4.639,4.639,0,0,1,1.02,3.094v.172a4.631,4.631,0,0,1-1.016,3.094,3.781,3.781,0,0,1-5.535,0,4.623,4.623,0,0,1-1.02-3.09Zm1.539.172a4.009,4.009,0,0,0,.566,2.219,2.046,2.046,0,0,0,3.355,0,3.988,3.988,0,0,0,.57-2.219V30.7a3.976,3.976,0,0,0-.574-2.211,1.882,1.882,0,0,0-1.684-.883,1.856,1.856,0,0,0-1.668.883,4.018,4.018,0,0,0-.566,2.211Zm11.914-2.961-.789-.047a1.762,1.762,0,0,0-1.027.289,1.855,1.855,0,0,0-.645.813V35H37.488V26.547h1.375l.148,1.234a2.934,2.934,0,0,1,.887-1.023,2.073,2.073,0,0,1,1.215-.367,1.9,1.9,0,0,1,.328.027,2.174,2.174,0,0,1,.258.059Zm2.977-1.359.109,1.258a3.069,3.069,0,0,1,1.059-1.043,2.824,2.824,0,0,1,1.449-.371,2.759,2.759,0,0,1,2.117.8,3.515,3.515,0,0,1,.75,2.473V35H48.41V29.7a2.287,2.287,0,0,0-.441-1.586,1.768,1.768,0,0,0-1.348-.469,2.386,2.386,0,0,0-1.207.285,2.072,2.072,0,0,0-.785.8V35H43.09V26.547ZM51.824,30.7a4.654,4.654,0,0,1,1.016-3.09,3.764,3.764,0,0,1,5.535,0,4.639,4.639,0,0,1,1.02,3.094v.172a4.631,4.631,0,0,1-1.016,3.094,3.781,3.781,0,0,1-5.535,0,4.623,4.623,0,0,1-1.02-3.09Zm1.539.172a4.009,4.009,0,0,0,.566,2.219,2.046,2.046,0,0,0,3.355,0,3.988,3.988,0,0,0,.57-2.219V30.7a3.976,3.976,0,0,0-.574-2.211A1.882,1.882,0,0,0,55.6,27.6a1.856,1.856,0,0,0-1.668.883,4.018,4.018,0,0,0-.566,2.211ZM66.918,35H65.379V22.813h1.539Zm7.563,0q-.078-.383-.121-.676a4.96,4.96,0,0,1-.051-.59,3.589,3.589,0,0,1-1.121,1.02,2.867,2.867,0,0,1-1.488.41,2.763,2.763,0,0,1-2.012-.676A2.486,2.486,0,0,1,69,32.625a2.183,2.183,0,0,1,.98-1.895,4.579,4.579,0,0,1,2.66-.684h1.672v-.836a1.551,1.551,0,0,0-.453-1.176,1.779,1.779,0,0,0-1.281-.434,1.859,1.859,0,0,0-1.211.375,1.125,1.125,0,0,0-.461.9l-1.461.016-.016-.047a2.023,2.023,0,0,1,.863-1.687,3.578,3.578,0,0,1,2.371-.766,3.49,3.49,0,0,1,2.313.73,2.588,2.588,0,0,1,.875,2.105V33.3a7.923,7.923,0,0,0,.047.875,4.5,4.5,0,0,0,.172.828Zm-2.555-1.125a2.739,2.739,0,0,0,1.508-.43,2.042,2.042,0,0,0,.875-.984V31.086H72.582a2.24,2.24,0,0,0-1.488.469,1.4,1.4,0,0,0-.559,1.1,1.159,1.159,0,0,0,.352.891A1.472,1.472,0,0,0,71.926,33.875ZM85.3,31.094a4.645,4.645,0,0,1-.879,2.949A2.9,2.9,0,0,1,82,35.164a3.064,3.064,0,0,1-1.465-.332,2.719,2.719,0,0,1-1.027-.98L79.262,35h-1.18V22.813h1.539v4.734a2.671,2.671,0,0,1,.988-.859,3.03,3.03,0,0,1,1.379-.3,2.809,2.809,0,0,1,2.438,1.25A5.622,5.622,0,0,1,85.3,30.93Zm-1.539-.164a4.666,4.666,0,0,0-.535-2.371,1.762,1.762,0,0,0-1.629-.918,2.014,2.014,0,0,0-1.2.348,2.452,2.452,0,0,0-.777.934v3.664a2.517,2.517,0,0,0,.777.977,2,2,0,0,0,1.215.352,1.829,1.829,0,0,0,1.617-.773,3.552,3.552,0,0,0,.531-2.047Zm3.055-.234a4.654,4.654,0,0,1,1.016-3.09,3.764,3.764,0,0,1,5.535,0,4.639,4.639,0,0,1,1.02,3.094v.172a4.631,4.631,0,0,1-1.016,3.094,3.781,3.781,0,0,1-5.535,0,4.623,4.623,0,0,1-1.02-3.09Zm1.539.172a4.009,4.009,0,0,0,.566,2.219,2.046,2.046,0,0,0,3.355,0,3.988,3.988,0,0,0,.57-2.219V30.7a3.976,3.976,0,0,0-.574-2.211A1.882,1.882,0,0,0,90.59,27.6a1.856,1.856,0,0,0-1.668.883,4.018,4.018,0,0,0-.566,2.211Zm11.914-2.961-.789-.047a1.762,1.762,0,0,0-1.027.289,1.854,1.854,0,0,0-.645.813V35H96.27V26.547h1.375l.148,1.234a2.934,2.934,0,0,1,.887-1.023,2.073,2.073,0,0,1,1.215-.367,1.9,1.9,0,0,1,.328.027,2.175,2.175,0,0,1,.258.059Zm6.8,7.094q-.078-.383-.121-.676a4.96,4.96,0,0,1-.051-.59,3.589,3.589,0,0,1-1.121,1.02,2.867,2.867,0,0,1-1.488.41,2.763,2.763,0,0,1-2.012-.676,2.486,2.486,0,0,1-.691-1.863,2.183,2.183,0,0,1,.98-1.895,4.579,4.579,0,0,1,2.66-.684h1.672v-.836a1.551,1.551,0,0,0-.453-1.176,1.779,1.779,0,0,0-1.281-.434,1.859,1.859,0,0,0-1.211.375,1.125,1.125,0,0,0-.461.9l-1.461.016-.016-.047a2.023,2.023,0,0,1,.863-1.687,3.578,3.578,0,0,1,2.371-.766,3.49,3.49,0,0,1,2.313.73,2.588,2.588,0,0,1,.875,2.105V33.3a7.923,7.923,0,0,0,.047.875,4.5,4.5,0,0,0,.172.828Zm-2.555-1.125a2.739,2.739,0,0,0,1.508-.43,2.042,2.042,0,0,0,.875-.984V31.086h-1.727a2.24,2.24,0,0,0-1.488.469,1.4,1.4,0,0,0-.559,1.1,1.159,1.159,0,0,0,.352.891A1.472,1.472,0,0,0,104.512,33.875ZM112.332,35h-1.539V22.813h1.539Z" transform="translate(737 754.528)" fill="#fff"/>
    <path id="Trazado_887132" data-name="Trazado 887132" d="M2,0H175a2,2,0,0,1,2,2V57a2,2,0,0,1-2,2H2a2,2,0,0,1-2-2V2A2,2,0,0,1,2,0Z" transform="translate(921 746.057)" fill="#3a1d71"/>
    <path id="Agency_provides_a_fu-6" data-name="Agency provides a fu" d="M37.48,4.836H33.73V15H32.191V4.836h-3.7V3.625H37.48ZM40.551,15H39.012V6.547h1.539Zm0-10.617H39.012V2.813h1.539Zm9.57,6.711a4.659,4.659,0,0,1-.875,2.949,2.893,2.893,0,0,1-2.414,1.121,3.354,3.354,0,0,1-1.371-.262,2.622,2.622,0,0,1-1-.785V18.25H42.918V6.547H44.1l.242,1.094a2.792,2.792,0,0,1,1.031-.93,3.078,3.078,0,0,1,1.438-.32A2.809,2.809,0,0,1,49.25,7.637a5.637,5.637,0,0,1,.871,3.293Zm-1.539-.164a4.467,4.467,0,0,0-.566-2.363,1.835,1.835,0,0,0-1.668-.926,2.054,2.054,0,0,0-1.133.3,2.25,2.25,0,0,0-.758.824v4.086a2.186,2.186,0,0,0,.758.816,2.126,2.126,0,0,0,1.148.293,1.894,1.894,0,0,0,1.656-.8,3.516,3.516,0,0,0,.563-2.066Zm3.07-.234a4.654,4.654,0,0,1,1.016-3.09,3.764,3.764,0,0,1,5.535,0,4.639,4.639,0,0,1,1.02,3.094v.172a4.631,4.631,0,0,1-1.016,3.094,3.781,3.781,0,0,1-5.535,0,4.623,4.623,0,0,1-1.02-3.09Zm1.539.172a4.009,4.009,0,0,0,.566,2.219,2.046,2.046,0,0,0,3.355,0,3.988,3.988,0,0,0,.57-2.219V10.7a3.976,3.976,0,0,0-.574-2.211A1.882,1.882,0,0,0,55.426,7.6a1.856,1.856,0,0,0-1.668.883,4.018,4.018,0,0,0-.566,2.211ZM66.02,12.727a1.026,1.026,0,0,0-.387-.828,3.732,3.732,0,0,0-1.465-.562,6.146,6.146,0,0,1-2.293-.9,1.814,1.814,0,0,1-.8-1.547,2.229,2.229,0,0,1,.879-1.766,3.879,3.879,0,0,1,4.605.047,2.239,2.239,0,0,1,.852,1.82l-.016.047H65.926a1.331,1.331,0,0,0-.48-.992A1.717,1.717,0,0,0,64.23,7.6a1.751,1.751,0,0,0-1.215.367,1.146,1.146,0,0,0-.4.875.927.927,0,0,0,.348.773,3.848,3.848,0,0,0,1.434.5,6.058,6.058,0,0,1,2.359.93,1.872,1.872,0,0,1,.8,1.57,2.226,2.226,0,0,1-.91,1.836,3.754,3.754,0,0,1-2.379.711,3.715,3.715,0,0,1-2.547-.82,2.341,2.341,0,0,1-.883-1.914l.016-.047h1.469a1.424,1.424,0,0,0,.609,1.2,2.358,2.358,0,0,0,1.336.379,2.1,2.1,0,0,0,1.285-.348A1.063,1.063,0,0,0,66.02,12.727Zm7.078-1.8a5.641,5.641,0,0,1,.871-3.289,2.807,2.807,0,0,1,2.441-1.25,3.027,3.027,0,0,1,1.316.273,2.7,2.7,0,0,1,.98.8V2.813h1.539V15h-1.18l-.234-1.07a2.743,2.743,0,0,1-1.023.922,3.058,3.058,0,0,1-1.414.313,2.9,2.9,0,0,1-2.422-1.121,4.659,4.659,0,0,1-.875-2.949Zm1.539.164a3.588,3.588,0,0,0,.523,2.051,1.828,1.828,0,0,0,1.625.77,2.039,2.039,0,0,0,1.156-.312,2.334,2.334,0,0,0,.766-.875V8.781a2.37,2.37,0,0,0-.77-.832A2.033,2.033,0,0,0,76.8,7.641a1.759,1.759,0,0,0-1.637.914,4.718,4.718,0,0,0-.527,2.375Zm11.406,4.07A3.576,3.576,0,0,1,83.2,14a4.48,4.48,0,0,1-1.02-3.062v-.344a4.386,4.386,0,0,1,1.051-3.012A3.3,3.3,0,0,1,85.8,6.391a3.067,3.067,0,0,1,2.543,1.055,4.345,4.345,0,0,1,.848,2.8v.813H83.785l-.023.039a3.494,3.494,0,0,0,.563,2.066,1.965,1.965,0,0,0,1.719.793,3.872,3.872,0,0,0,1.371-.223,3.061,3.061,0,0,0,1.012-.613l.6,1a3.7,3.7,0,0,1-1.2.738A4.762,4.762,0,0,1,86.043,15.164ZM85.8,7.6a1.673,1.673,0,0,0-1.332.621,2.938,2.938,0,0,0-.645,1.59l.016.039h3.813V9.727A2.462,2.462,0,0,0,87.2,8.2,1.638,1.638,0,0,0,85.8,7.6ZM16.32,30.93a5.641,5.641,0,0,1,.871-3.289,2.807,2.807,0,0,1,2.441-1.25,3.027,3.027,0,0,1,1.316.273,2.7,2.7,0,0,1,.98.8V22.813h1.539V35h-1.18l-.234-1.07a2.743,2.743,0,0,1-1.023.922,3.058,3.058,0,0,1-1.414.313A2.9,2.9,0,0,1,17.2,34.043a4.659,4.659,0,0,1-.875-2.949Zm1.539.164a3.588,3.588,0,0,0,.523,2.051,1.828,1.828,0,0,0,1.625.77,2.039,2.039,0,0,0,1.156-.312,2.334,2.334,0,0,0,.766-.875V28.781a2.37,2.37,0,0,0-.77-.832,2.033,2.033,0,0,0-1.137-.309,1.759,1.759,0,0,0-1.637.914,4.718,4.718,0,0,0-.527,2.375ZM27.43,35H25.891V26.547H27.43Zm0-10.617H25.891v-1.57H27.43Zm7.281,8.344a1.026,1.026,0,0,0-.387-.828,3.732,3.732,0,0,0-1.465-.562,6.146,6.146,0,0,1-2.293-.9,1.814,1.814,0,0,1-.8-1.547,2.229,2.229,0,0,1,.879-1.766,3.879,3.879,0,0,1,4.605.047,2.239,2.239,0,0,1,.852,1.82l-.016.047H34.617a1.331,1.331,0,0,0-.48-.992,1.717,1.717,0,0,0-1.215-.445,1.751,1.751,0,0,0-1.215.367,1.146,1.146,0,0,0-.4.875.927.927,0,0,0,.348.773,3.848,3.848,0,0,0,1.434.5,6.058,6.058,0,0,1,2.359.93,1.872,1.872,0,0,1,.8,1.57,2.226,2.226,0,0,1-.91,1.836,3.754,3.754,0,0,1-2.379.711,3.715,3.715,0,0,1-2.547-.82,2.341,2.341,0,0,1-.883-1.914l.016-.047h1.469a1.424,1.424,0,0,0,.609,1.2,2.358,2.358,0,0,0,1.336.379,2.1,2.1,0,0,0,1.285-.348A1.063,1.063,0,0,0,34.711,32.727Zm10.656-1.633a4.659,4.659,0,0,1-.875,2.949,2.893,2.893,0,0,1-2.414,1.121,3.354,3.354,0,0,1-1.371-.262,2.622,2.622,0,0,1-1-.785V38.25H38.164v-11.7h1.18l.242,1.094a2.792,2.792,0,0,1,1.031-.93,3.078,3.078,0,0,1,1.438-.32A2.809,2.809,0,0,1,44.5,27.637a5.637,5.637,0,0,1,.871,3.293Zm-1.539-.164a4.467,4.467,0,0,0-.566-2.363,1.835,1.835,0,0,0-1.668-.926,2.053,2.053,0,0,0-1.133.3,2.25,2.25,0,0,0-.758.824v4.086a2.186,2.186,0,0,0,.758.816,2.126,2.126,0,0,0,1.148.293,1.894,1.894,0,0,0,1.656-.8,3.516,3.516,0,0,0,.563-2.066ZM46.9,30.7a4.654,4.654,0,0,1,1.016-3.09,3.764,3.764,0,0,1,5.535,0,4.639,4.639,0,0,1,1.02,3.094v.172a4.631,4.631,0,0,1-1.016,3.094,3.781,3.781,0,0,1-5.535,0,4.623,4.623,0,0,1-1.02-3.09Zm1.539.172A4.009,4.009,0,0,0,49,33.086a2.046,2.046,0,0,0,3.355,0,3.988,3.988,0,0,0,.57-2.219V30.7a3.976,3.976,0,0,0-.574-2.211,1.882,1.882,0,0,0-1.684-.883A1.856,1.856,0,0,0,49,28.484a4.018,4.018,0,0,0-.566,2.211Zm12.828,1.859a1.026,1.026,0,0,0-.387-.828,3.732,3.732,0,0,0-1.465-.562,6.146,6.146,0,0,1-2.293-.9,1.814,1.814,0,0,1-.8-1.547,2.229,2.229,0,0,1,.879-1.766,3.879,3.879,0,0,1,4.605.047,2.239,2.239,0,0,1,.852,1.82l-.016.047H61.172a1.331,1.331,0,0,0-.48-.992,1.717,1.717,0,0,0-1.215-.445,1.751,1.751,0,0,0-1.215.367,1.146,1.146,0,0,0-.4.875.927.927,0,0,0,.348.773,3.848,3.848,0,0,0,1.434.5,6.058,6.058,0,0,1,2.359.93,1.872,1.872,0,0,1,.8,1.57,2.226,2.226,0,0,1-.91,1.836,3.754,3.754,0,0,1-2.379.711,3.715,3.715,0,0,1-2.547-.82,2.341,2.341,0,0,1-.883-1.914l.016-.047H57.57a1.424,1.424,0,0,0,.609,1.2,2.358,2.358,0,0,0,1.336.379,2.1,2.1,0,0,0,1.285-.348A1.063,1.063,0,0,0,61.266,32.727ZM66.383,35H64.844V26.547h1.539Zm0-10.617H64.844v-1.57h1.539Zm4.508.125v2.039h1.6v1.141h-1.6V32.82a1.149,1.149,0,0,0,.246.836.89.89,0,0,0,.652.242,1.43,1.43,0,0,0,.3-.035,2.2,2.2,0,0,0,.273-.074l.211,1.055a1.36,1.36,0,0,1-.508.23,2.562,2.562,0,0,1-.664.09,1.993,1.993,0,0,1-1.492-.566,2.46,2.46,0,0,1-.555-1.777V27.688H68.008V26.547h1.344V24.508ZM75.8,35H74.266V26.547H75.8Zm0-10.617H74.266v-1.57H75.8Zm5.188,8.125.133.594h.047l.148-.594,1.945-5.961h1.57L81.727,35H80.563l-3.148-8.453h1.578Zm4.75-1.812a4.654,4.654,0,0,1,1.016-3.09,3.764,3.764,0,0,1,5.535,0,4.639,4.639,0,0,1,1.02,3.094v.172A4.631,4.631,0,0,1,92.3,33.961a3.781,3.781,0,0,1-5.535,0,4.623,4.623,0,0,1-1.02-3.09Zm1.539.172a4.009,4.009,0,0,0,.566,2.219,2.046,2.046,0,0,0,3.355,0,3.988,3.988,0,0,0,.57-2.219V30.7a3.976,3.976,0,0,0-.574-2.211,1.882,1.882,0,0,0-1.684-.883,1.856,1.856,0,0,0-1.668.883,4.018,4.018,0,0,0-.566,2.211Zm12.828,1.859a1.026,1.026,0,0,0-.387-.828,3.732,3.732,0,0,0-1.465-.562,6.146,6.146,0,0,1-2.293-.9,1.814,1.814,0,0,1-.8-1.547,2.229,2.229,0,0,1,.879-1.766,3.879,3.879,0,0,1,4.605.047,2.239,2.239,0,0,1,.852,1.82l-.016.047h-1.469a1.331,1.331,0,0,0-.48-.992A1.717,1.717,0,0,0,98.32,27.6a1.751,1.751,0,0,0-1.215.367,1.146,1.146,0,0,0-.4.875.927.927,0,0,0,.348.773,3.848,3.848,0,0,0,1.434.5,6.058,6.058,0,0,1,2.359.93,1.872,1.872,0,0,1,.8,1.57,2.226,2.226,0,0,1-.91,1.836,3.754,3.754,0,0,1-2.379.711,3.715,3.715,0,0,1-2.547-.82,2.341,2.341,0,0,1-.883-1.914l.016-.047h1.469a1.424,1.424,0,0,0,.609,1.2,2.358,2.358,0,0,0,1.336.379,2.1,2.1,0,0,0,1.285-.348A1.063,1.063,0,0,0,100.109,32.727Z" transform="translate(948 754.528)" fill="#fff"/>
    <path id="Trazado_887133" data-name="Trazado 887133" d="M5.749,1.64,0,0,5.735,8.894l.014-.018.014.018L11.5,0Z" transform="translate(804.249 504) rotate(180)" fill="#3a1d71"/>
    <path id="Trazado_887129" data-name="Trazado 887129" d="M2,0H359a2,2,0,0,1,2,2V53a2,2,0,0,1-2,2H2a2,2,0,0,1-2-2V2A2,2,0,0,1,2,0Z" transform="translate(618 587)" fill="#f0c518"/>
    <path id="Agency_provides_a_fu-7" data-name="Agency provides a fu" d="M33.375,15V3.625h4.164A4.64,4.64,0,0,1,40.9,4.934,4.467,4.467,0,0,1,42.25,8.289v2.047A4.463,4.463,0,0,1,40.9,13.7,4.647,4.647,0,0,1,37.539,15Zm2.641-9.344v7.313h1.523a1.81,1.81,0,0,0,1.48-.734,2.964,2.964,0,0,0,.582-1.9V8.273a2.939,2.939,0,0,0-.582-1.883,1.81,1.81,0,0,0-1.48-.734ZM46.438,15H43.789V6.547h2.648Zm0-10.414H43.789V2.813h2.648Zm6.023,8.039a.689.689,0,0,0-.355-.559,3.834,3.834,0,0,0-1.293-.441,5.1,5.1,0,0,1-2.227-.895,2.026,2.026,0,0,1-.75-1.668,2.377,2.377,0,0,1,.938-1.895,3.856,3.856,0,0,1,2.539-.777A4.36,4.36,0,0,1,54,7.145a2.217,2.217,0,0,1,.953,1.949l-.016.047H52.375a1.047,1.047,0,0,0-.25-.758,1.106,1.106,0,0,0-.82-.258,1.073,1.073,0,0,0-.7.227.71.71,0,0,0-.281.578.688.688,0,0,0,.324.57,3.668,3.668,0,0,0,1.309.422,5.257,5.257,0,0,1,2.3.91A2.088,2.088,0,0,1,55,12.547a2.239,2.239,0,0,1-1.012,1.879,4.438,4.438,0,0,1-2.676.738,4.013,4.013,0,0,1-2.73-.875,2.41,2.41,0,0,1-.957-1.953l.016-.047h2.391a1.06,1.06,0,0,0,.363.867,1.6,1.6,0,0,0,.988.266,1.319,1.319,0,0,0,.8-.207A.7.7,0,0,0,52.461,12.625ZM64.07,10.953a5,5,0,0,1-.859,3.059,2.845,2.845,0,0,1-2.422,1.152,2.306,2.306,0,0,1-1.906-.914v4H56.242V6.547h2.492l.078.922a2.569,2.569,0,0,1,.84-.8,2.205,2.205,0,0,1,1.121-.281A2.815,2.815,0,0,1,63.207,7.6a5.375,5.375,0,0,1,.863,3.188Zm-2.633-.164a3.992,3.992,0,0,0-.312-1.719,1.043,1.043,0,0,0-1-.648,1.589,1.589,0,0,0-.754.164,1.21,1.21,0,0,0-.488.477v3.531a1.131,1.131,0,0,0,.5.406,1.929,1.929,0,0,0,.762.133,1.038,1.038,0,0,0,1-.574,3.51,3.51,0,0,0,.3-1.605Zm3.445-.094A4.468,4.468,0,0,1,65.961,7.59a4.381,4.381,0,0,1,6.023,0A4.468,4.468,0,0,1,73.063,10.7v.164a4.465,4.465,0,0,1-1.078,3.109,4.392,4.392,0,0,1-6.023,0,4.465,4.465,0,0,1-1.078-3.109Zm2.641.164a3.5,3.5,0,0,0,.332,1.668,1.181,1.181,0,0,0,1.129.605,1.168,1.168,0,0,0,1.109-.609,3.465,3.465,0,0,0,.336-1.664V10.7a3.478,3.478,0,0,0-.336-1.652,1.177,1.177,0,0,0-1.125-.621,1.16,1.16,0,0,0-1.113.625,3.517,3.517,0,0,0-.332,1.648Zm11.109,1.766a.689.689,0,0,0-.355-.559,3.834,3.834,0,0,0-1.293-.441,5.1,5.1,0,0,1-2.227-.895,2.026,2.026,0,0,1-.75-1.668,2.377,2.377,0,0,1,.938-1.895,3.856,3.856,0,0,1,2.539-.777,4.36,4.36,0,0,1,2.688.754,2.217,2.217,0,0,1,.953,1.949l-.016.047H78.547a1.047,1.047,0,0,0-.25-.758,1.106,1.106,0,0,0-.82-.258,1.073,1.073,0,0,0-.7.227.71.71,0,0,0-.281.578.688.688,0,0,0,.324.57,3.668,3.668,0,0,0,1.309.422,5.257,5.257,0,0,1,2.3.91,2.088,2.088,0,0,1,.742,1.715,2.239,2.239,0,0,1-1.012,1.879,4.438,4.438,0,0,1-2.676.738,4.013,4.013,0,0,1-2.73-.875,2.41,2.41,0,0,1-.957-1.953l.016-.047H76.2a1.06,1.06,0,0,0,.363.867,1.6,1.6,0,0,0,.988.266,1.319,1.319,0,0,0,.8-.207A.7.7,0,0,0,78.633,12.625ZM85.18,15H82.531V6.547H85.18Zm0-10.414H82.531V2.813H85.18Zm4.648-.141v2.1h1.336V8.375H89.828V12.25a.948.948,0,0,0,.184.652.642.642,0,0,0,.5.2,2.654,2.654,0,0,0,.324-.016,2.807,2.807,0,0,0,.309-.062l.18,1.953a6.375,6.375,0,0,1-.719.145,5.789,5.789,0,0,1-.758.043,2.639,2.639,0,0,1-1.98-.7,3.069,3.069,0,0,1-.676-2.2V8.375h-1.18V6.547h1.18v-2.1ZM95.211,15H92.563V6.547h2.648Zm0-10.414H92.563V2.813h2.648Zm4.781,6.93.156.9.047.008.172-.906,1.117-4.969h2.773L101.508,15h-2.68l-2.75-8.453h2.781Zm4.594-.82a4.468,4.468,0,0,1,1.078-3.105,4.381,4.381,0,0,1,6.023,0,4.468,4.468,0,0,1,1.078,3.105v.164a4.465,4.465,0,0,1-1.078,3.109,4.392,4.392,0,0,1-6.023,0,4.465,4.465,0,0,1-1.078-3.109Zm2.641.164a3.5,3.5,0,0,0,.332,1.668,1.181,1.181,0,0,0,1.129.605,1.168,1.168,0,0,0,1.109-.609,3.465,3.465,0,0,0,.336-1.664V10.7a3.478,3.478,0,0,0-.336-1.652,1.177,1.177,0,0,0-1.125-.621,1.16,1.16,0,0,0-1.113.625,3.517,3.517,0,0,0-.332,1.648Zm11.109,1.766a.689.689,0,0,0-.355-.559,3.834,3.834,0,0,0-1.293-.441,5.1,5.1,0,0,1-2.227-.895,2.026,2.026,0,0,1-.75-1.668,2.377,2.377,0,0,1,.938-1.895,3.856,3.856,0,0,1,2.539-.777,4.36,4.36,0,0,1,2.688.754,2.217,2.217,0,0,1,.953,1.949l-.016.047H118.25a1.047,1.047,0,0,0-.25-.758,1.106,1.106,0,0,0-.82-.258,1.073,1.073,0,0,0-.7.227.71.71,0,0,0-.281.578.688.688,0,0,0,.324.57,3.668,3.668,0,0,0,1.309.422,5.257,5.257,0,0,1,2.3.91,2.088,2.088,0,0,1,.742,1.715,2.239,2.239,0,0,1-1.012,1.879,4.438,4.438,0,0,1-2.676.738,4.013,4.013,0,0,1-2.73-.875,2.41,2.41,0,0,1-.957-1.953l.016-.047h2.391a1.06,1.06,0,0,0,.363.867,1.6,1.6,0,0,0,.988.266,1.319,1.319,0,0,0,.8-.207A.7.7,0,0,0,118.336,12.625Zm11.039-1.352.008.063h.047l1.4-4.789h2.813l-3.367,9.711a4.658,4.658,0,0,1-1.008,1.547,2.705,2.705,0,0,1-1.961.609,3.01,3.01,0,0,1-.562-.043q-.219-.043-.687-.16l.32-1.883.164.035a.691.691,0,0,0,.141.012,1.754,1.754,0,0,0,.914-.184,1.088,1.088,0,0,0,.43-.551l.211-.547-2.922-8.547h2.8Zm17.008-5.617h-3.008V15h-2.641V5.656h-2.953V3.625h8.6ZM150.25,15h-2.633V3.625h2.633Zm10.711-3.836.016.047a3.656,3.656,0,0,1-1.1,2.949,4.656,4.656,0,0,1-3.2,1,4.408,4.408,0,0,1-4.664-4.664V8.125a4.688,4.688,0,0,1,1.23-3.371A4.284,4.284,0,0,1,156.5,3.461a5.015,5.015,0,0,1,3.348,1.008A3.553,3.553,0,0,1,161,7.4l-.023.047h-2.57a2.091,2.091,0,0,0-.445-1.5,1.987,1.987,0,0,0-1.461-.453,1.545,1.545,0,0,0-1.367.715,3.38,3.38,0,0,0-.477,1.9V10.5a3.181,3.181,0,0,0,.523,1.914,1.743,1.743,0,0,0,1.5.719,1.67,1.67,0,0,0,1.309-.453,2.272,2.272,0,0,0,.4-1.516Z" transform="translate(701.001 604)" fill="#12263f"/>
    <path id="Trazado_887135" data-name="Trazado 887135" d="M-12428-9288.7v-41.158h419v45.974" transform="translate(13018.5 10024.105)" fill="none" stroke="#3a1d71" stroke-width="1"/>
    <path id="Trazado_887136" data-name="Trazado 887136" d="M-12428-9324.971v41.76h419v-46.646" transform="translate(13017.998 9824.964)" fill="none" stroke="#3a1d71" stroke-width="1"/>
    <path id="Trazado_887137" data-name="Trazado 887137" d="M5.749,1.64,0,0,5.735,8.894l.014-.018.014.018L11.5,0Z" transform="translate(1003.753 733.106)" fill="#3a1d71"/>
    <path id="Trazado_887138" data-name="Trazado 887138" d="M5.749,1.64,0,0,5.735,8.894l.014-.018.014.018L11.5,0Z" transform="translate(584.751 733.106)" fill="#3a1d71"/>
    <path id="Trazado_887139" data-name="Trazado 887139" d="M5.749,1.64,0,0,5.735,8.894l.014-.018.014.018L11.5,0Z" transform="translate(595.749 504) rotate(180)" fill="#3a1d71"/>
    <path id="Trazado_887140" data-name="Trazado 887140" d="M5.749,1.64,0,0,5.735,8.894l.014-.018.014.018L11.5,0Z" transform="translate(1014.749 503.514) rotate(180)" fill="#3a1d71"/>
  </g>
</svg>
